M48
;Layer_Color=9474304
;FILE_FORMAT=2:5
INCH
;TYPE=PLATED
T01F00S00C0.01181
T02F00S00C0.01968
T03F00S00C0.03150
T04F00S00C0.03937
T05F00S00C0.05118
%
T01
X0498819Y0106299
X0502756
X0507087
X0485236Y0202756
Y0206693
Y0210630
X0401575Y0187008
Y0171260
Y0157480
T02
X0483268Y0121063
X0491142Y0138779
T03
X0353346Y0201693
X0348346Y0211693
X0358347
X0375905
X0385906
X0380906Y0201693
X0408465
X0413465Y0211693
X0403465
T04
X0398425Y0117717
X0459488Y0111221
X0469488
T05
X0471457Y0238189
X0481457
X0395039Y0237795
X0385039
X0375039
X0365039
M30
