G04*
G04 #@! TF.GenerationSoftware,Altium Limited,Altium Designer,25.0.2 (28)*
G04*
G04 Layer_Color=32896*
%FSLAX25Y25*%
%MOIN*%
G70*
G04*
G04 #@! TF.SameCoordinates,D75A5BBE-F8D8-4943-B1B8-F21556BF2D07*
G04*
G04*
G04 #@! TF.FilePolarity,Positive*
G04*
G01*
G75*
%ADD10C,0.00787*%
%ADD12C,0.00394*%
%ADD13C,0.01181*%
G36*
X464226Y201005D02*
X464322Y200992D01*
X464376Y200978D01*
X464451Y200944D01*
X464465Y200930D01*
X464479Y200923D01*
X464492Y200910D01*
X464506Y200903D01*
X464578Y200831D01*
X464585Y200817D01*
X464605Y200797D01*
X464612Y200783D01*
X464622Y200773D01*
X464687Y200688D01*
X464694Y200674D01*
X464708Y200660D01*
X464715Y200647D01*
X464728Y200633D01*
X464735Y200619D01*
X464749Y200606D01*
X464756Y200592D01*
X464769Y200578D01*
X464766Y200575D01*
X462490Y200568D01*
X462442Y200575D01*
X462210Y200582D01*
X461998Y200575D01*
X461950Y200568D01*
X461868Y200554D01*
X461813Y200541D01*
X461745Y200520D01*
X461587Y200445D01*
X461540Y200418D01*
X461526Y200411D01*
X461478Y200377D01*
X461465Y200370D01*
X461451Y200356D01*
X461437Y200349D01*
X461423Y200336D01*
X461410Y200329D01*
X461396Y200315D01*
X461382Y200308D01*
X461355Y200281D01*
X461341Y200274D01*
X461294Y200226D01*
X461280Y200219D01*
X460836Y199775D01*
X460822Y199768D01*
X460733Y199679D01*
X460719Y199673D01*
X460569Y199522D01*
X460555Y199515D01*
X460357Y199317D01*
X460344Y199310D01*
X460275Y199242D01*
X460238Y199259D01*
X460193Y199276D01*
X460183Y199286D01*
X460210Y199341D01*
X460552Y200031D01*
X460549Y200035D01*
X460453Y199967D01*
X460439Y199960D01*
X460426Y199946D01*
X460412Y199939D01*
X460364Y199905D01*
X460350Y199898D01*
X460340Y199888D01*
X460258Y199833D01*
X460125Y199734D01*
X460101Y199717D01*
X460015Y199652D01*
X460002Y199645D01*
X459988Y199632D01*
X459974Y199625D01*
X459954Y199604D01*
X459940Y199597D01*
X459927Y199584D01*
X459913Y199577D01*
X459892Y199556D01*
X459879Y199550D01*
X459865Y199536D01*
X459851Y199529D01*
X459831Y199509D01*
X459817Y199502D01*
X459797Y199481D01*
X459783Y199474D01*
X459756Y199447D01*
X459742Y199440D01*
X459722Y199420D01*
X459708Y199413D01*
X459681Y199385D01*
X459667Y199379D01*
X459640Y199351D01*
X459626Y199345D01*
X459598Y199317D01*
X459585Y199310D01*
X459551Y199276D01*
X459537Y199269D01*
X459496Y199228D01*
X459482Y199222D01*
X459435Y199174D01*
X459421Y199167D01*
X459359Y199105D01*
X459346Y199098D01*
X459250Y199003D01*
X459236Y198996D01*
X459007Y198767D01*
X459000Y198753D01*
X458905Y198658D01*
X458898Y198644D01*
X458850Y198596D01*
X458843Y198582D01*
X458795Y198535D01*
X458789Y198521D01*
X458754Y198487D01*
X458747Y198473D01*
X458720Y198446D01*
X458713Y198432D01*
X458686Y198405D01*
X458679Y198391D01*
X458659Y198371D01*
X458652Y198357D01*
X458631Y198336D01*
X458625Y198323D01*
X458604Y198302D01*
X458597Y198289D01*
X458587Y198278D01*
X458522Y198193D01*
X458505Y198169D01*
X458372Y197988D01*
X458355Y197964D01*
X458273Y197841D01*
X458180Y197701D01*
X458173Y197687D01*
X458146Y197646D01*
X458139Y197632D01*
X458105Y197578D01*
X458023Y197434D01*
X457975Y197345D01*
X457811Y197024D01*
X457743Y196880D01*
X457674Y196730D01*
X457565Y196484D01*
X457531Y196409D01*
X457394Y196101D01*
X457360Y196026D01*
X457196Y195657D01*
X457175Y195609D01*
X457121Y195486D01*
X457100Y195438D01*
X457046Y195315D01*
X457025Y195267D01*
X456998Y195206D01*
X456957Y195110D01*
X456929Y195049D01*
X456888Y194953D01*
X456861Y194892D01*
X456820Y194796D01*
X456765Y194673D01*
X456745Y194625D01*
X456717Y194563D01*
X456697Y194516D01*
X456642Y194393D01*
X456622Y194345D01*
X456598Y194287D01*
X456577Y194232D01*
X456564Y194198D01*
X456543Y194143D01*
X456492Y193996D01*
X456485Y193969D01*
X456471Y193935D01*
X456475Y193918D01*
X460959Y193911D01*
X461171Y193918D01*
X461225Y193931D01*
X461314Y193972D01*
X461328Y193979D01*
X461355Y194006D01*
X461369Y194013D01*
X461413Y194071D01*
X461509Y194256D01*
X461673Y194577D01*
X461769Y194762D01*
X461851Y194919D01*
X461994Y195192D01*
X462076Y195343D01*
X462124Y195431D01*
X462165Y195507D01*
X462213Y195596D01*
X462254Y195671D01*
X462288Y195732D01*
X462316Y195780D01*
X462384Y195903D01*
X462548Y196190D01*
X462555Y196204D01*
X462589Y196258D01*
X462623Y196320D01*
X462657Y196375D01*
X462664Y196388D01*
X462698Y196443D01*
X462705Y196457D01*
X462739Y196511D01*
X462746Y196525D01*
X462780Y196580D01*
X462787Y196593D01*
X462835Y196669D01*
X462842Y196682D01*
X462869Y196723D01*
X462876Y196737D01*
X462903Y196778D01*
X462910Y196792D01*
X462937Y196833D01*
X462944Y196846D01*
X462992Y196922D01*
X462999Y196935D01*
X463033Y196983D01*
X463040Y196997D01*
X463067Y197038D01*
X463074Y197051D01*
X463108Y197099D01*
X463115Y197113D01*
X463142Y197154D01*
X463149Y197168D01*
X463183Y197215D01*
X463190Y197229D01*
X463225Y197277D01*
X463231Y197291D01*
X463266Y197338D01*
X463272Y197352D01*
X463341Y197448D01*
X463348Y197461D01*
X463621Y197844D01*
X463628Y197858D01*
X463642Y197872D01*
X463648Y197885D01*
X463662Y197899D01*
X463669Y197913D01*
X463683Y197926D01*
X463689Y197940D01*
X463703Y197954D01*
X463710Y197967D01*
X463724Y197981D01*
X463730Y197995D01*
X463744Y198008D01*
X463751Y198022D01*
X463764Y198036D01*
X463771Y198049D01*
X463785Y198063D01*
X463792Y198077D01*
X463805Y198090D01*
X463812Y198104D01*
X463826Y198118D01*
X463833Y198131D01*
X463846Y198145D01*
X463853Y198159D01*
X463867Y198172D01*
X463874Y198186D01*
X463894Y198206D01*
X463901Y198220D01*
X463915Y198234D01*
X463922Y198248D01*
X463935Y198261D01*
X463942Y198275D01*
X463956Y198289D01*
X463963Y198302D01*
X463983Y198323D01*
X463990Y198336D01*
X464017Y198364D01*
X464024Y198377D01*
X464045Y198398D01*
X464052Y198412D01*
X464072Y198432D01*
X464079Y198446D01*
X464099Y198466D01*
X464106Y198480D01*
X464134Y198507D01*
X464140Y198521D01*
X464175Y198555D01*
X464181Y198569D01*
X464209Y198596D01*
X464216Y198610D01*
X464243Y198637D01*
X464250Y198651D01*
X464291Y198692D01*
X464298Y198705D01*
X464339Y198746D01*
X464346Y198760D01*
X464387Y198801D01*
X464393Y198815D01*
X464434Y198856D01*
X464441Y198870D01*
X464496Y198924D01*
X464503Y198938D01*
X464557Y198993D01*
X464564Y199006D01*
X464619Y199061D01*
X464626Y199074D01*
X464680Y199129D01*
X464687Y199143D01*
X464742Y199198D01*
X464749Y199211D01*
X464810Y199273D01*
X464817Y199286D01*
X464879Y199348D01*
X464886Y199362D01*
X464940Y199416D01*
X464947Y199430D01*
X465008Y199492D01*
X465015Y199505D01*
X465029Y199519D01*
X465026Y199522D01*
X464981Y199519D01*
X464858Y199505D01*
X464752Y199495D01*
X464732Y199488D01*
X464674Y199492D01*
X464687Y199526D01*
X464715Y199587D01*
X464803Y199772D01*
X464858Y199867D01*
X464872Y199881D01*
X464879Y199895D01*
X464892Y199908D01*
X464899Y199922D01*
X464947Y199970D01*
X464954Y199984D01*
X464971Y199994D01*
X464995Y200011D01*
X465050Y200045D01*
X465084Y200059D01*
X465138Y200079D01*
X465166Y200086D01*
X465217Y200096D01*
X465238Y200103D01*
X465381Y200110D01*
X465402Y200117D01*
X466598Y200110D01*
X466618Y200117D01*
X468303Y200113D01*
X468891Y200107D01*
X469068Y200100D01*
X469045Y200083D01*
X468997Y200055D01*
X468840Y199973D01*
X468710Y199912D01*
X468621Y199871D01*
X468546Y199837D01*
X468293Y199714D01*
X467985Y199543D01*
X467972Y199536D01*
X467917Y199502D01*
X467903Y199495D01*
X467848Y199461D01*
X467835Y199454D01*
X467630Y199324D01*
X467616Y199317D01*
X467568Y199283D01*
X467555Y199276D01*
X467459Y199208D01*
X467445Y199201D01*
X467278Y199081D01*
X467192Y199016D01*
X467179Y199010D01*
X467165Y198996D01*
X467151Y198989D01*
X467131Y198969D01*
X467117Y198962D01*
X467097Y198941D01*
X467083Y198934D01*
X467069Y198921D01*
X467056Y198914D01*
X467035Y198893D01*
X467021Y198887D01*
X467001Y198866D01*
X466987Y198859D01*
X466967Y198839D01*
X466953Y198832D01*
X466933Y198811D01*
X466919Y198804D01*
X466885Y198770D01*
X466871Y198764D01*
X466844Y198736D01*
X466830Y198729D01*
X466796Y198695D01*
X466782Y198688D01*
X466748Y198654D01*
X466734Y198647D01*
X466686Y198600D01*
X466673Y198593D01*
X466618Y198538D01*
X466605Y198531D01*
X466529Y198456D01*
X466516Y198449D01*
X466109Y198042D01*
X466102Y198029D01*
X466027Y197954D01*
X466020Y197940D01*
X465965Y197885D01*
X465959Y197872D01*
X465911Y197824D01*
X465904Y197810D01*
X465863Y197769D01*
X465856Y197755D01*
X465829Y197728D01*
X465822Y197714D01*
X465795Y197687D01*
X465788Y197673D01*
X465754Y197639D01*
X465747Y197626D01*
X465719Y197598D01*
X465712Y197584D01*
X465692Y197564D01*
X465685Y197550D01*
X465665Y197530D01*
X465658Y197516D01*
X465637Y197496D01*
X465630Y197482D01*
X465610Y197461D01*
X465603Y197448D01*
X465583Y197427D01*
X465576Y197414D01*
X465562Y197400D01*
X465545Y197376D01*
X465480Y197291D01*
X465463Y197267D01*
X465227Y196942D01*
X465220Y196928D01*
X465186Y196880D01*
X465179Y196867D01*
X465111Y196771D01*
X465104Y196757D01*
X465070Y196710D01*
X465063Y196696D01*
X465026Y196645D01*
X464615Y196029D01*
X464581Y195975D01*
X464472Y195811D01*
X464424Y195736D01*
X464397Y195695D01*
X464363Y195640D01*
X464308Y195558D01*
X464260Y195483D01*
X464233Y195442D01*
X464185Y195367D01*
X464157Y195326D01*
X464123Y195271D01*
X464096Y195230D01*
X464062Y195175D01*
X464035Y195134D01*
X464000Y195079D01*
X463973Y195038D01*
X463939Y194984D01*
X463911Y194943D01*
X463877Y194888D01*
X463850Y194847D01*
X463816Y194792D01*
X463788Y194751D01*
X463754Y194697D01*
X463727Y194656D01*
X463693Y194601D01*
X463665Y194560D01*
X463631Y194505D01*
X463604Y194464D01*
X463570Y194410D01*
X463542Y194369D01*
X463508Y194314D01*
X463481Y194273D01*
X463433Y194198D01*
X463406Y194157D01*
X463372Y194102D01*
X463183Y193812D01*
X463177Y193798D01*
X463142Y193750D01*
X463115Y193702D01*
X463101Y193688D01*
X463105Y193685D01*
X463255Y193678D01*
X463276Y193671D01*
X463741Y193665D01*
X463829Y193671D01*
X464000Y193678D01*
X464048Y193685D01*
X464137Y193692D01*
X464164Y193699D01*
X464240Y193733D01*
X464253Y193740D01*
X464267Y193753D01*
X464281Y193760D01*
X464339Y193818D01*
X464346Y193832D01*
X464366Y193852D01*
X464448Y193962D01*
X464465Y193986D01*
X464735Y194358D01*
X464742Y194372D01*
X464756Y194386D01*
X464762Y194399D01*
X464831Y194495D01*
X464838Y194509D01*
X464851Y194522D01*
X464858Y194536D01*
X464892Y194584D01*
X464899Y194597D01*
X464913Y194611D01*
X464920Y194625D01*
X465022Y194768D01*
X465029Y194782D01*
X465097Y194878D01*
X465104Y194892D01*
X465118Y194905D01*
X465125Y194919D01*
X465193Y195015D01*
X465200Y195028D01*
X465213Y195042D01*
X465220Y195055D01*
X465255Y195103D01*
X465261Y195117D01*
X465275Y195131D01*
X465282Y195144D01*
X465487Y195431D01*
X465494Y195445D01*
X465504Y195455D01*
X465531Y195496D01*
X465630Y195630D01*
X465637Y195643D01*
X465651Y195657D01*
X465658Y195671D01*
X465671Y195684D01*
X465678Y195698D01*
X465692Y195712D01*
X465699Y195725D01*
X465712Y195739D01*
X465719Y195753D01*
X465733Y195766D01*
X465740Y195780D01*
X465754Y195794D01*
X465760Y195807D01*
X465774Y195821D01*
X465781Y195835D01*
X465795Y195848D01*
X465801Y195862D01*
X465815Y195876D01*
X465822Y195889D01*
X465836Y195903D01*
X465842Y195917D01*
X465853Y195920D01*
X465873Y195886D01*
X466065Y195599D01*
X466099Y195544D01*
X466181Y195421D01*
X466215Y195367D01*
X466297Y195244D01*
X466345Y195168D01*
X466399Y195086D01*
X466447Y195011D01*
X466502Y194929D01*
X466550Y194854D01*
X466605Y194772D01*
X466652Y194697D01*
X466745Y194556D01*
X466751Y194543D01*
X466769Y194526D01*
X466810Y194567D01*
X466823Y194574D01*
X466878Y194628D01*
X466892Y194635D01*
X466946Y194690D01*
X466960Y194697D01*
X467021Y194758D01*
X467035Y194765D01*
X467117Y194847D01*
X467131Y194854D01*
X467206Y194929D01*
X467220Y194936D01*
X467230Y194946D01*
X467209Y194987D01*
X467107Y195172D01*
X467079Y195220D01*
X466875Y195589D01*
X466792Y195739D01*
X466745Y195828D01*
X466704Y195903D01*
X466656Y195992D01*
X466605Y196091D01*
X466502Y196282D01*
X466488Y196317D01*
X466464Y196381D01*
X466458Y196402D01*
X466451Y196491D01*
X466458Y196539D01*
X466485Y196600D01*
X466492Y196614D01*
X466509Y196631D01*
X466523Y196638D01*
X466543Y196658D01*
X466557Y196665D01*
X466591Y196699D01*
X466605Y196706D01*
X466639Y196740D01*
X466652Y196747D01*
X466686Y196781D01*
X466700Y196788D01*
X466734Y196822D01*
X466748Y196829D01*
X466782Y196863D01*
X466796Y196870D01*
X466830Y196904D01*
X466844Y196911D01*
X466878Y196945D01*
X466892Y196952D01*
X466926Y196986D01*
X466939Y196993D01*
X466974Y197027D01*
X466987Y197034D01*
X467021Y197068D01*
X467035Y197075D01*
X467069Y197109D01*
X467083Y197116D01*
X467110Y197144D01*
X467124Y197151D01*
X467158Y197185D01*
X467172Y197192D01*
X467206Y197226D01*
X467220Y197232D01*
X467254Y197267D01*
X467268Y197274D01*
X467302Y197308D01*
X467315Y197315D01*
X467349Y197349D01*
X467363Y197355D01*
X467390Y197383D01*
X467404Y197390D01*
X467431Y197417D01*
X467445Y197424D01*
X467473Y197451D01*
X467486Y197458D01*
X467514Y197485D01*
X467527Y197492D01*
X467555Y197520D01*
X467568Y197526D01*
X467596Y197554D01*
X467609Y197561D01*
X467630Y197581D01*
X467643Y197588D01*
X467671Y197615D01*
X467684Y197622D01*
X467705Y197643D01*
X467719Y197649D01*
X467746Y197677D01*
X467760Y197684D01*
X467780Y197704D01*
X467794Y197711D01*
X467814Y197731D01*
X467828Y197738D01*
X467842Y197752D01*
X467855Y197759D01*
X467876Y197779D01*
X467889Y197786D01*
X467910Y197807D01*
X467924Y197813D01*
X467944Y197834D01*
X467958Y197841D01*
X467972Y197854D01*
X467985Y197861D01*
X468006Y197882D01*
X468019Y197889D01*
X468033Y197902D01*
X468047Y197909D01*
X468060Y197923D01*
X468074Y197930D01*
X468088Y197943D01*
X468101Y197950D01*
X468122Y197971D01*
X468135Y197977D01*
X468149Y197991D01*
X468163Y197998D01*
X468183Y198019D01*
X468194Y198008D01*
X468200Y197995D01*
X468221Y197974D01*
X468228Y197960D01*
X468248Y197940D01*
X468255Y197926D01*
X468269Y197913D01*
X468276Y197899D01*
X468296Y197878D01*
X468303Y197865D01*
X468324Y197844D01*
X468330Y197830D01*
X468351Y197810D01*
X468358Y197796D01*
X468371Y197783D01*
X468378Y197769D01*
X468399Y197748D01*
X468405Y197735D01*
X468426Y197714D01*
X468433Y197701D01*
X468446Y197687D01*
X468453Y197673D01*
X468474Y197653D01*
X468481Y197639D01*
X468494Y197626D01*
X468501Y197612D01*
X468522Y197591D01*
X468529Y197578D01*
X468549Y197557D01*
X468556Y197544D01*
X468570Y197530D01*
X468576Y197516D01*
X468587Y197506D01*
X468751Y197622D01*
X468764Y197629D01*
X468778Y197643D01*
X468792Y197649D01*
X469222Y197957D01*
X469236Y197964D01*
X469250Y197977D01*
X469263Y197984D01*
X469359Y198053D01*
X469373Y198059D01*
X469468Y198128D01*
X469482Y198135D01*
X469554Y198186D01*
X469718Y198295D01*
X469868Y198391D01*
X469978Y198459D01*
X470012Y198473D01*
X470056Y198490D01*
X470077Y198497D01*
X470227Y198504D01*
X470323Y198490D01*
X470377Y198476D01*
X470466Y198449D01*
X470535Y198422D01*
X470582Y198401D01*
X470617Y198388D01*
X470665Y198367D01*
X470945Y198230D01*
X471088Y198148D01*
X471102Y198142D01*
X471143Y198114D01*
X471157Y198107D01*
X471198Y198080D01*
X471245Y198053D01*
X471437Y197916D01*
X471451Y197909D01*
X471471Y197889D01*
X471485Y197882D01*
X471498Y197868D01*
X471512Y197861D01*
X471533Y197841D01*
X471546Y197834D01*
X471567Y197813D01*
X471580Y197807D01*
X471594Y197793D01*
X471608Y197786D01*
X471635Y197759D01*
X471649Y197752D01*
X471690Y197711D01*
X471703Y197704D01*
X471738Y197670D01*
X471751Y197663D01*
X471806Y197608D01*
X471820Y197602D01*
X471915Y197506D01*
X471929Y197499D01*
X471953Y197475D01*
X471960Y197461D01*
X472131Y197291D01*
X472137Y197277D01*
X472206Y197208D01*
X472213Y197195D01*
X472247Y197161D01*
X472254Y197147D01*
X472288Y197113D01*
X472295Y197099D01*
X472329Y197065D01*
X472336Y197051D01*
X472363Y197024D01*
X472370Y197010D01*
X472390Y196990D01*
X472397Y196976D01*
X472418Y196956D01*
X472425Y196942D01*
X472445Y196922D01*
X472452Y196908D01*
X472466Y196894D01*
X472483Y196870D01*
X472548Y196785D01*
X472565Y196761D01*
X472732Y196532D01*
X472739Y196518D01*
X472773Y196470D01*
X472780Y196457D01*
X472814Y196409D01*
X472821Y196395D01*
X472855Y196347D01*
X472883Y196300D01*
X472917Y196252D01*
X472924Y196238D01*
X472951Y196197D01*
X472978Y196149D01*
X473033Y196047D01*
X473060Y195999D01*
X473129Y195876D01*
X473194Y195756D01*
X473269Y195619D01*
X473351Y195449D01*
X473405Y195312D01*
X473426Y195257D01*
X473436Y195220D01*
X473450Y195185D01*
X473446Y195168D01*
X473436Y195178D01*
X473429Y195192D01*
X473279Y195390D01*
X473272Y195404D01*
X473258Y195418D01*
X473252Y195431D01*
X473238Y195445D01*
X473231Y195459D01*
X473221Y195469D01*
X473194Y195510D01*
X473094Y195643D01*
X473088Y195657D01*
X473074Y195671D01*
X473067Y195684D01*
X473057Y195695D01*
X473029Y195736D01*
X472930Y195869D01*
X472924Y195882D01*
X472910Y195896D01*
X472903Y195910D01*
X472889Y195924D01*
X472883Y195937D01*
X472753Y196108D01*
X472746Y196122D01*
X472732Y196135D01*
X472725Y196149D01*
X472705Y196170D01*
X472698Y196183D01*
X472684Y196197D01*
X472678Y196211D01*
X472657Y196231D01*
X472650Y196245D01*
X472636Y196258D01*
X472630Y196272D01*
X472609Y196293D01*
X472602Y196306D01*
X472589Y196320D01*
X472582Y196334D01*
X472561Y196354D01*
X472554Y196368D01*
X472541Y196381D01*
X472534Y196395D01*
X472507Y196423D01*
X472500Y196436D01*
X472472Y196464D01*
X472466Y196477D01*
X472438Y196504D01*
X472431Y196518D01*
X472404Y196546D01*
X472397Y196559D01*
X472377Y196580D01*
X472370Y196593D01*
X472342Y196621D01*
X472336Y196634D01*
X472295Y196675D01*
X472288Y196689D01*
X472240Y196737D01*
X472233Y196751D01*
X472158Y196826D01*
X472151Y196839D01*
X471874Y197116D01*
X471861Y197123D01*
X471772Y197212D01*
X471758Y197219D01*
X471710Y197267D01*
X471697Y197274D01*
X471662Y197308D01*
X471649Y197315D01*
X471621Y197342D01*
X471608Y197349D01*
X471587Y197369D01*
X471574Y197376D01*
X471553Y197397D01*
X471539Y197403D01*
X471529Y197414D01*
X471348Y197547D01*
X471334Y197554D01*
X471286Y197588D01*
X471273Y197595D01*
X471225Y197629D01*
X471211Y197636D01*
X471170Y197663D01*
X471109Y197697D01*
X471054Y197731D01*
X471040Y197738D01*
X471037Y197742D01*
X470812Y197858D01*
X470661Y197926D01*
X470559Y197967D01*
X470449Y198008D01*
X470323Y198053D01*
X470248Y198073D01*
X470282Y198046D01*
X470295Y198039D01*
X470446Y197943D01*
X470460Y197936D01*
X470507Y197902D01*
X470521Y197896D01*
X470569Y197861D01*
X470582Y197854D01*
X470726Y197752D01*
X470740Y197745D01*
X470753Y197731D01*
X470767Y197725D01*
X470781Y197711D01*
X470794Y197704D01*
X470808Y197690D01*
X470822Y197684D01*
X470835Y197670D01*
X470849Y197663D01*
X470863Y197649D01*
X470876Y197643D01*
X470897Y197622D01*
X470911Y197615D01*
X470931Y197595D01*
X470945Y197588D01*
X470972Y197561D01*
X470986Y197554D01*
X471006Y197533D01*
X471020Y197526D01*
X471054Y197492D01*
X471068Y197485D01*
X471116Y197438D01*
X471129Y197431D01*
X471191Y197369D01*
X471205Y197362D01*
X471345Y197222D01*
X471351Y197208D01*
X471413Y197147D01*
X471420Y197133D01*
X471475Y197079D01*
X471481Y197065D01*
X471522Y197024D01*
X471529Y197010D01*
X471557Y196983D01*
X471563Y196969D01*
X471591Y196942D01*
X471597Y196928D01*
X471618Y196908D01*
X471625Y196894D01*
X471635Y196884D01*
X471768Y196703D01*
X471898Y196504D01*
X471905Y196491D01*
X471939Y196436D01*
X471967Y196388D01*
X472001Y196327D01*
X472120Y196091D01*
X472155Y196016D01*
X472209Y195893D01*
X472250Y195790D01*
X472291Y195681D01*
X472349Y195513D01*
X472363Y195479D01*
X472370Y195438D01*
X471293Y195435D01*
X470589Y195442D01*
X470439Y195449D01*
X470015Y195462D01*
X469960Y195496D01*
X469947Y195503D01*
X469926Y195524D01*
X469913Y195530D01*
X469855Y195589D01*
X469848Y195602D01*
X469834Y195616D01*
X469827Y195630D01*
X469814Y195643D01*
X469786Y195691D01*
X469776Y195701D01*
X469742Y195777D01*
X469728Y195811D01*
X469694Y195906D01*
X469673Y195989D01*
X469667Y196023D01*
X469656Y196101D01*
X469646Y196112D01*
X469632Y196098D01*
X469619Y196091D01*
X469605Y196077D01*
X469591Y196071D01*
X469578Y196057D01*
X469564Y196050D01*
X469550Y196036D01*
X469537Y196029D01*
X469523Y196016D01*
X469509Y196009D01*
X469496Y195995D01*
X469482Y195989D01*
X469468Y195975D01*
X469455Y195968D01*
X469441Y195954D01*
X469427Y195948D01*
X469414Y195934D01*
X469400Y195927D01*
X469386Y195913D01*
X469373Y195906D01*
X469359Y195893D01*
X469345Y195886D01*
X469332Y195872D01*
X469318Y195865D01*
X469304Y195852D01*
X469291Y195845D01*
X469277Y195831D01*
X469263Y195824D01*
X469250Y195811D01*
X469236Y195804D01*
X469215Y195783D01*
X469202Y195777D01*
X469188Y195763D01*
X469174Y195756D01*
X469161Y195742D01*
X469147Y195736D01*
X469134Y195722D01*
X469120Y195715D01*
X469106Y195701D01*
X469093Y195695D01*
X469079Y195681D01*
X469065Y195674D01*
X469051Y195660D01*
X469038Y195654D01*
X469024Y195640D01*
X469010Y195633D01*
X468990Y195613D01*
X468976Y195606D01*
X468963Y195592D01*
X468949Y195585D01*
X468935Y195571D01*
X468922Y195565D01*
X468901Y195544D01*
X468887Y195537D01*
X468874Y195524D01*
X468860Y195517D01*
X468840Y195496D01*
X468826Y195490D01*
X468812Y195476D01*
X468798Y195469D01*
X468785Y195455D01*
X468771Y195449D01*
X468751Y195428D01*
X468737Y195421D01*
X468723Y195407D01*
X468710Y195401D01*
X468696Y195387D01*
X468682Y195380D01*
X468662Y195360D01*
X468648Y195353D01*
X468628Y195332D01*
X468614Y195326D01*
X468594Y195305D01*
X468580Y195298D01*
X468566Y195284D01*
X468552Y195278D01*
X468532Y195257D01*
X468518Y195250D01*
X468498Y195230D01*
X468484Y195223D01*
X468464Y195202D01*
X468450Y195196D01*
X468436Y195182D01*
X468423Y195175D01*
X468402Y195155D01*
X468388Y195148D01*
X468368Y195127D01*
X468354Y195120D01*
X468334Y195100D01*
X468320Y195093D01*
X468293Y195066D01*
X468279Y195059D01*
X468259Y195038D01*
X468245Y195032D01*
X468218Y195004D01*
X468204Y194997D01*
X468177Y194970D01*
X468163Y194963D01*
X468142Y194943D01*
X468129Y194936D01*
X468101Y194908D01*
X468088Y194902D01*
X468067Y194881D01*
X468053Y194874D01*
X468026Y194847D01*
X468013Y194840D01*
X467978Y194806D01*
X467965Y194799D01*
X467931Y194765D01*
X467917Y194758D01*
X467883Y194724D01*
X467869Y194717D01*
X467835Y194683D01*
X467821Y194676D01*
X467787Y194642D01*
X467773Y194635D01*
X467739Y194601D01*
X467725Y194594D01*
X467678Y194546D01*
X467664Y194539D01*
X467609Y194485D01*
X467596Y194478D01*
X467541Y194423D01*
X467527Y194416D01*
X467473Y194362D01*
X467459Y194355D01*
X467384Y194280D01*
X467370Y194273D01*
X467247Y194150D01*
X467233Y194143D01*
X467114Y194023D01*
X467066Y193962D01*
X467015Y193870D01*
X466994Y193815D01*
X466984Y193777D01*
X466977Y193757D01*
X466970Y191501D01*
X466963Y191481D01*
X466957Y188699D01*
X466950Y188678D01*
X466953Y186351D01*
X466950Y185978D01*
X466957Y185890D01*
X466963Y185760D01*
X466970Y185732D01*
X466977Y185685D01*
X466991Y185630D01*
X467004Y185582D01*
X467011Y185555D01*
X467093Y185384D01*
X467107Y185370D01*
X467114Y185356D01*
X467134Y185336D01*
X467141Y185322D01*
X467168Y185295D01*
X467175Y185281D01*
X467209Y185247D01*
X467216Y185233D01*
X467264Y185186D01*
X467271Y185172D01*
X467346Y185097D01*
X467353Y185083D01*
X467435Y185001D01*
X467442Y184987D01*
X467524Y184905D01*
X467531Y184892D01*
X467579Y184844D01*
X467585Y184830D01*
X467626Y184789D01*
X467633Y184775D01*
X467661Y184748D01*
X467667Y184734D01*
X467681Y184721D01*
X467688Y184707D01*
X467671Y184690D01*
X467657Y184683D01*
X467616Y184642D01*
X467602Y184635D01*
X467568Y184601D01*
X467555Y184594D01*
X467520Y184560D01*
X467507Y184553D01*
X467473Y184519D01*
X467459Y184512D01*
X467425Y184478D01*
X467411Y184471D01*
X467377Y184437D01*
X467363Y184430D01*
X467329Y184396D01*
X467315Y184389D01*
X467281Y184355D01*
X467268Y184348D01*
X467233Y184314D01*
X467220Y184307D01*
X467185Y184273D01*
X467172Y184266D01*
X467138Y184232D01*
X467124Y184225D01*
X467097Y184198D01*
X467083Y184191D01*
X467056Y184164D01*
X467042Y184157D01*
X467008Y184123D01*
X466994Y184116D01*
X466967Y184089D01*
X466953Y184082D01*
X466926Y184054D01*
X466912Y184048D01*
X466878Y184013D01*
X466864Y184007D01*
X466837Y183979D01*
X466823Y183972D01*
X466789Y183938D01*
X466775Y183931D01*
X466748Y183904D01*
X466734Y183897D01*
X466707Y183870D01*
X466693Y183863D01*
X466659Y183829D01*
X466645Y183822D01*
X466546Y183723D01*
X466539Y183709D01*
X466519Y183689D01*
X466512Y183675D01*
X466478Y183627D01*
X466423Y183525D01*
X466406Y183480D01*
X466399Y183453D01*
X466389Y183408D01*
X466382Y183388D01*
X466375Y178426D01*
X466369Y178337D01*
X466341Y178241D01*
X466314Y178180D01*
X466287Y178132D01*
X466280Y178118D01*
X466266Y178104D01*
X466259Y178091D01*
X466181Y178012D01*
X466167Y178005D01*
X466147Y177985D01*
X466133Y177978D01*
X466112Y177957D01*
X466099Y177951D01*
X466078Y177930D01*
X466065Y177923D01*
X466037Y177896D01*
X466023Y177889D01*
X466003Y177869D01*
X465989Y177862D01*
X465969Y177841D01*
X465955Y177834D01*
X465935Y177814D01*
X465921Y177807D01*
X465901Y177787D01*
X465887Y177780D01*
X465866Y177759D01*
X465853Y177752D01*
X465825Y177725D01*
X465812Y177718D01*
X465784Y177691D01*
X465771Y177684D01*
X465743Y177657D01*
X465730Y177650D01*
X465702Y177623D01*
X465689Y177616D01*
X465661Y177588D01*
X465648Y177582D01*
X465620Y177554D01*
X465606Y177547D01*
X465579Y177520D01*
X465565Y177513D01*
X465538Y177486D01*
X465524Y177479D01*
X465497Y177452D01*
X465484Y177445D01*
X465449Y177411D01*
X465436Y177404D01*
X465402Y177370D01*
X465388Y177363D01*
X465354Y177329D01*
X465340Y177322D01*
X465306Y177288D01*
X465292Y177281D01*
X465258Y177247D01*
X465244Y177240D01*
X465210Y177206D01*
X465197Y177199D01*
X465155Y177158D01*
X465142Y177151D01*
X465108Y177117D01*
X465094Y177110D01*
X465053Y177069D01*
X465039Y177062D01*
X464998Y177021D01*
X464985Y177014D01*
X464944Y176973D01*
X464930Y176967D01*
X464889Y176925D01*
X464875Y176919D01*
X464834Y176878D01*
X464820Y176871D01*
X464780Y176830D01*
X464766Y176823D01*
X464718Y176775D01*
X464704Y176768D01*
X464663Y176727D01*
X464650Y176720D01*
X464602Y176672D01*
X464588Y176666D01*
X464547Y176625D01*
X464533Y176618D01*
X464486Y176570D01*
X464472Y176563D01*
X464424Y176515D01*
X464410Y176508D01*
X464369Y176468D01*
X464356Y176461D01*
X464308Y176413D01*
X464294Y176406D01*
X464253Y176365D01*
X464240Y176358D01*
X464192Y176310D01*
X464178Y176303D01*
X464137Y176262D01*
X464123Y176256D01*
X464082Y176215D01*
X464069Y176208D01*
X464028Y176167D01*
X464014Y176160D01*
X463973Y176119D01*
X463959Y176112D01*
X463911Y176064D01*
X463898Y176057D01*
X463857Y176016D01*
X463843Y176010D01*
X463802Y175969D01*
X463788Y175962D01*
X463754Y175927D01*
X463741Y175921D01*
X463706Y175886D01*
X463693Y175880D01*
X463659Y175846D01*
X463645Y175839D01*
X463604Y175798D01*
X463590Y175791D01*
X463556Y175757D01*
X463542Y175750D01*
X463508Y175716D01*
X463494Y175709D01*
X463474Y175688D01*
X463392Y175681D01*
X463372Y175675D01*
X455388Y175668D01*
X455368Y175675D01*
X455361Y184027D01*
X455354Y184020D01*
X455340Y184013D01*
X455292Y183979D01*
X455245Y183952D01*
X455231Y183938D01*
X455217Y183931D01*
X455204Y183918D01*
X455190Y183911D01*
X455176Y183897D01*
X455163Y183890D01*
X455142Y183870D01*
X455128Y183863D01*
X455108Y183843D01*
X455094Y183836D01*
X455040Y183781D01*
X455026Y183774D01*
X454927Y183675D01*
X454920Y183661D01*
X454865Y183607D01*
X454858Y183593D01*
X454831Y183566D01*
X454824Y183552D01*
X454810Y183538D01*
X454804Y183525D01*
X454790Y183511D01*
X454783Y183497D01*
X454773Y183487D01*
X454681Y183347D01*
X454578Y183149D01*
X454571Y183121D01*
X454561Y183111D01*
X454537Y183115D01*
X454483Y183128D01*
X454448Y183135D01*
X454257Y183183D01*
X454213Y183193D01*
X454185Y183200D01*
X454178Y183836D01*
X454172Y183931D01*
X454161Y184030D01*
X454154Y184058D01*
X454141Y184140D01*
X454127Y184195D01*
X454113Y184242D01*
X454093Y184311D01*
X454072Y184331D01*
X454066Y184345D01*
X454038Y184372D01*
X454031Y184386D01*
X454004Y184413D01*
X453997Y184427D01*
X453761Y184663D01*
X453748Y184670D01*
X453631Y184786D01*
X453618Y184793D01*
X453526Y184885D01*
X453519Y184899D01*
X453450Y184967D01*
X453443Y184981D01*
X453420Y185004D01*
X453389Y185042D01*
X453307Y185152D01*
X453290Y185175D01*
X453262Y185216D01*
X453170Y185356D01*
X453163Y185370D01*
X453129Y185425D01*
X453088Y185500D01*
X453037Y185599D01*
X452962Y185770D01*
X452948Y185804D01*
X452907Y185914D01*
X452863Y186040D01*
X452842Y186108D01*
X452832Y186146D01*
X452784Y186337D01*
X452770Y186406D01*
X452763Y186447D01*
X452757Y186481D01*
X452743Y186563D01*
X452733Y186642D01*
X452726Y186662D01*
X452719Y186771D01*
X452712Y186792D01*
X452705Y186990D01*
X452699Y187011D01*
X452702Y187294D01*
X452709Y187438D01*
X452719Y187557D01*
X452726Y187605D01*
X452750Y187800D01*
X452757Y187834D01*
X452763Y187875D01*
X452770Y187909D01*
X452777Y187950D01*
X452791Y188019D01*
X452801Y188063D01*
X452815Y188118D01*
X452842Y188214D01*
X452886Y188354D01*
X452948Y188518D01*
X452975Y188586D01*
X452996Y188641D01*
X453010Y188675D01*
X453037Y188750D01*
X453088Y188897D01*
X453102Y188931D01*
X453098Y188935D01*
X453071Y188907D01*
X453057Y188900D01*
X453023Y188866D01*
X453010Y188859D01*
X452828Y188678D01*
X452821Y188665D01*
X452780Y188624D01*
X452774Y188610D01*
X452746Y188583D01*
X452739Y188569D01*
X452726Y188555D01*
X452719Y188542D01*
X452699Y188521D01*
X452692Y188507D01*
X452678Y188494D01*
X452671Y188480D01*
X452661Y188470D01*
X452634Y188429D01*
X452541Y188289D01*
X452442Y188101D01*
X452408Y188026D01*
X452381Y187957D01*
X452353Y187882D01*
X452336Y187838D01*
X452323Y187790D01*
X452306Y187732D01*
X452285Y187650D01*
X452278Y187616D01*
X452271Y187588D01*
X452264Y187554D01*
X452258Y187527D01*
X452251Y187493D01*
X452244Y187452D01*
X452223Y187315D01*
X452213Y187223D01*
X452206Y187202D01*
X452200Y186997D01*
X452193Y186976D01*
X452196Y186720D01*
X452203Y186590D01*
X452210Y186501D01*
X452220Y186389D01*
X452227Y186361D01*
X452244Y186221D01*
X452258Y186139D01*
X452271Y186071D01*
X452278Y186030D01*
X452285Y185996D01*
X452295Y185951D01*
X452350Y185732D01*
X452377Y185637D01*
X452422Y185497D01*
X452442Y185442D01*
X452459Y185398D01*
X452473Y185363D01*
X452493Y185316D01*
X452507Y185281D01*
X452534Y185220D01*
X452623Y185035D01*
X452685Y184919D01*
X452726Y184844D01*
X452760Y184789D01*
X452767Y184775D01*
X452794Y184734D01*
X452801Y184721D01*
X452828Y184680D01*
X452835Y184666D01*
X452863Y184625D01*
X452869Y184611D01*
X452938Y184516D01*
X452945Y184502D01*
X453013Y184406D01*
X453020Y184393D01*
X453033Y184379D01*
X453040Y184365D01*
X453054Y184352D01*
X453061Y184338D01*
X453074Y184324D01*
X453081Y184311D01*
X453102Y184290D01*
X453109Y184277D01*
X453122Y184263D01*
X453129Y184249D01*
X453143Y184236D01*
X453150Y184222D01*
X453163Y184208D01*
X453170Y184195D01*
X453191Y184174D01*
X453197Y184160D01*
X453218Y184140D01*
X453225Y184126D01*
X453245Y184106D01*
X453252Y184092D01*
X453279Y184065D01*
X453286Y184051D01*
X453307Y184030D01*
X453314Y184017D01*
X453327Y184003D01*
X453324Y184000D01*
X453242Y184041D01*
X453126Y184102D01*
X453071Y184136D01*
X453023Y184164D01*
X452927Y184232D01*
X452914Y184239D01*
X452900Y184253D01*
X452886Y184259D01*
X452866Y184280D01*
X452852Y184287D01*
X452818Y184321D01*
X452804Y184328D01*
X452678Y184454D01*
X452671Y184468D01*
X452630Y184509D01*
X452623Y184523D01*
X452593Y184553D01*
X452528Y184639D01*
X452446Y184748D01*
X452439Y184762D01*
X452405Y184810D01*
X452398Y184823D01*
X452364Y184871D01*
X452357Y184885D01*
X452323Y184940D01*
X452295Y184987D01*
X452213Y185145D01*
X452155Y185271D01*
X452128Y185339D01*
X452107Y185394D01*
X452042Y185582D01*
X452029Y185630D01*
X452018Y185668D01*
X451998Y185749D01*
X451991Y185784D01*
X451984Y185811D01*
X451971Y185879D01*
X451950Y186002D01*
X451936Y186112D01*
X451930Y186187D01*
X451919Y186416D01*
X451926Y186546D01*
X451940Y186730D01*
X451947Y186758D01*
X451954Y186826D01*
X451960Y186853D01*
X451981Y186970D01*
X452022Y187134D01*
X452036Y187168D01*
X452032Y187178D01*
X451861Y187110D01*
X451813Y187089D01*
X451779Y187075D01*
X451718Y187048D01*
X451707Y187052D01*
X451714Y187168D01*
X451721Y187195D01*
X451738Y187335D01*
X451759Y187458D01*
X451786Y187595D01*
X451793Y187622D01*
X451803Y187667D01*
X451810Y187694D01*
X451824Y187742D01*
X451830Y187769D01*
X451858Y187865D01*
X451916Y188046D01*
X451933Y188091D01*
X451974Y188193D01*
X451995Y188241D01*
X452111Y188480D01*
X452158Y188569D01*
X452206Y188644D01*
X452213Y188658D01*
X452275Y188747D01*
X452282Y188760D01*
X452295Y188774D01*
X452302Y188788D01*
X452316Y188801D01*
X452323Y188815D01*
X452343Y188836D01*
X452350Y188849D01*
X452377Y188877D01*
X452384Y188890D01*
X452439Y188945D01*
X452446Y188959D01*
X452572Y189085D01*
X452586Y189092D01*
X452647Y189153D01*
X452661Y189160D01*
X452681Y189181D01*
X452695Y189188D01*
X452716Y189208D01*
X452729Y189215D01*
X452743Y189229D01*
X452767Y189246D01*
X452852Y189311D01*
X452866Y189317D01*
X452876Y189328D01*
X452917Y189355D01*
X453057Y189447D01*
X453105Y189475D01*
X453160Y189509D01*
X453208Y189536D01*
X453269Y189570D01*
X453283Y189584D01*
X453297Y189591D01*
X453375Y189670D01*
X453392Y189693D01*
X453433Y189762D01*
X453447Y189796D01*
X453457Y189833D01*
X453464Y189854D01*
X453461Y191511D01*
X453454Y191758D01*
X453443Y192315D01*
X453450Y192335D01*
X453447Y193186D01*
X453440Y193432D01*
X453430Y193682D01*
X453437Y193812D01*
X453443Y193859D01*
X453457Y193941D01*
X453471Y193989D01*
X453478Y194017D01*
X453491Y194051D01*
X453546Y194167D01*
X453628Y194317D01*
X453765Y194563D01*
X453806Y194639D01*
X453840Y194693D01*
X453895Y194789D01*
X453929Y194850D01*
X453963Y194905D01*
X453970Y194919D01*
X454004Y194974D01*
X454011Y194987D01*
X454045Y195042D01*
X454052Y195055D01*
X454079Y195097D01*
X454086Y195110D01*
X454120Y195165D01*
X454127Y195178D01*
X454154Y195220D01*
X454161Y195233D01*
X454305Y195459D01*
X454312Y195472D01*
X454346Y195520D01*
X454353Y195534D01*
X454387Y195582D01*
X454414Y195630D01*
X454483Y195725D01*
X454489Y195739D01*
X454524Y195787D01*
X454530Y195800D01*
X454599Y195896D01*
X454605Y195910D01*
X454619Y195924D01*
X454626Y195937D01*
X454814Y196200D01*
X454879Y196286D01*
X454886Y196300D01*
X454899Y196313D01*
X454906Y196327D01*
X454920Y196341D01*
X454927Y196354D01*
X454940Y196368D01*
X454947Y196381D01*
X454961Y196395D01*
X454968Y196409D01*
X454981Y196423D01*
X454988Y196436D01*
X455009Y196457D01*
X455016Y196470D01*
X455029Y196484D01*
X455036Y196498D01*
X455057Y196518D01*
X455063Y196532D01*
X455084Y196552D01*
X455091Y196566D01*
X455104Y196580D01*
X455111Y196593D01*
X455132Y196614D01*
X455139Y196628D01*
X455159Y196648D01*
X455166Y196662D01*
X455187Y196682D01*
X455193Y196696D01*
X455207Y196710D01*
X455214Y196723D01*
X455241Y196751D01*
X455248Y196764D01*
X455275Y196792D01*
X455282Y196805D01*
X455309Y196833D01*
X455316Y196846D01*
X455344Y196874D01*
X455350Y196887D01*
X455378Y196915D01*
X455385Y196928D01*
X455412Y196956D01*
X455419Y196969D01*
X455446Y196997D01*
X455453Y197010D01*
X455501Y197058D01*
X455508Y197072D01*
X455549Y197113D01*
X455556Y197126D01*
X455597Y197168D01*
X455603Y197181D01*
X455651Y197229D01*
X455658Y197243D01*
X455720Y197304D01*
X455726Y197318D01*
X455822Y197414D01*
X455829Y197427D01*
X455918Y197516D01*
X455925Y197530D01*
X456243Y197848D01*
X456256Y197854D01*
X456379Y197977D01*
X456393Y197984D01*
X456475Y198066D01*
X456489Y198073D01*
X456536Y198121D01*
X456550Y198128D01*
X456605Y198182D01*
X456618Y198189D01*
X456666Y198237D01*
X456680Y198244D01*
X456721Y198285D01*
X456735Y198292D01*
X456762Y198319D01*
X456776Y198326D01*
X456810Y198360D01*
X456823Y198367D01*
X456851Y198394D01*
X456865Y198401D01*
X456892Y198429D01*
X456906Y198435D01*
X456933Y198463D01*
X456947Y198470D01*
X456981Y198504D01*
X456994Y198511D01*
X457015Y198531D01*
X457028Y198538D01*
X457042Y198552D01*
X457056Y198558D01*
X457069Y198572D01*
X457093Y198589D01*
X457131Y198620D01*
X457155Y198637D01*
X457193Y198668D01*
X457316Y198764D01*
X457329Y198770D01*
X457343Y198784D01*
X457357Y198791D01*
X457370Y198804D01*
X457384Y198811D01*
X457394Y198822D01*
X457435Y198849D01*
X457521Y198914D01*
X457534Y198921D01*
X457548Y198934D01*
X457562Y198941D01*
X457575Y198955D01*
X457589Y198962D01*
X457685Y199030D01*
X457698Y199037D01*
X457746Y199071D01*
X457760Y199078D01*
X457808Y199112D01*
X457821Y199119D01*
X457869Y199153D01*
X457883Y199160D01*
X457931Y199194D01*
X457979Y199222D01*
X458027Y199256D01*
X458040Y199262D01*
X458081Y199290D01*
X458095Y199297D01*
X458170Y199345D01*
X458184Y199351D01*
X458238Y199385D01*
X458252Y199392D01*
X458307Y199426D01*
X458498Y199536D01*
X458573Y199577D01*
X458635Y199611D01*
X459093Y199844D01*
X459195Y199891D01*
X459311Y199946D01*
X459373Y199973D01*
X459448Y200008D01*
X459633Y200090D01*
X459681Y200110D01*
X459742Y200137D01*
X459790Y200158D01*
X459851Y200185D01*
X459899Y200206D01*
X459961Y200233D01*
X460009Y200254D01*
X460132Y200308D01*
X460207Y200342D01*
X460330Y200397D01*
X460535Y200493D01*
X461006Y200725D01*
X461136Y200787D01*
X461198Y200814D01*
X461256Y200838D01*
X461331Y200865D01*
X461427Y200900D01*
X461509Y200920D01*
X461543Y200927D01*
X461625Y200940D01*
X461693Y200947D01*
X462261Y200968D01*
X462726Y200981D01*
X463006Y200988D01*
X463488Y200999D01*
X463946Y201005D01*
X464096Y201012D01*
X464226Y201005D01*
D02*
G37*
G36*
X462937Y199198D02*
X462883Y199143D01*
X462876Y199129D01*
X462828Y199081D01*
X462821Y199068D01*
X462767Y199013D01*
X462760Y198999D01*
X462712Y198951D01*
X462705Y198938D01*
X462671Y198904D01*
X462664Y198890D01*
X462637Y198863D01*
X462620Y198839D01*
X462589Y198801D01*
X462572Y198777D01*
X462541Y198740D01*
X462534Y198726D01*
X462524Y198716D01*
X462442Y198593D01*
X462298Y198367D01*
X462264Y198312D01*
X462121Y198087D01*
X462086Y198032D01*
X461895Y197731D01*
X461861Y197677D01*
X461717Y197451D01*
X461683Y197397D01*
X461492Y197096D01*
X461458Y197041D01*
X461362Y196891D01*
X461328Y196836D01*
X461232Y196686D01*
X461198Y196631D01*
X461102Y196481D01*
X461068Y196426D01*
X460972Y196275D01*
X460938Y196221D01*
X460795Y195995D01*
X460760Y195941D01*
X460665Y195790D01*
X460661Y195787D01*
X460648Y195766D01*
X460641Y195753D01*
X460613Y195712D01*
X460607Y195698D01*
X460579Y195657D01*
X460552Y195609D01*
X460518Y195561D01*
X460511Y195548D01*
X460450Y195459D01*
X460443Y195445D01*
X460429Y195431D01*
X460422Y195418D01*
X460402Y195397D01*
X460395Y195384D01*
X460374Y195363D01*
X460337Y195332D01*
X460289Y195298D01*
X460265Y195288D01*
X460227Y195278D01*
X460207Y195271D01*
X458091Y195274D01*
X458119Y195329D01*
X458365Y195780D01*
X458433Y195903D01*
X458474Y195978D01*
X458542Y196101D01*
X458583Y196176D01*
X458686Y196361D01*
X458713Y196409D01*
X458747Y196470D01*
X458830Y196614D01*
X458871Y196689D01*
X458905Y196744D01*
X458932Y196792D01*
X458939Y196805D01*
X458973Y196860D01*
X458980Y196874D01*
X459014Y196928D01*
X459042Y196976D01*
X459048Y196990D01*
X459076Y197031D01*
X459083Y197045D01*
X459117Y197099D01*
X459124Y197113D01*
X459151Y197154D01*
X459158Y197168D01*
X459192Y197222D01*
X459219Y197270D01*
X459253Y197318D01*
X459260Y197332D01*
X459308Y197407D01*
X459315Y197420D01*
X459349Y197468D01*
X459356Y197482D01*
X459383Y197523D01*
X459390Y197537D01*
X459424Y197584D01*
X459431Y197598D01*
X459465Y197646D01*
X459472Y197660D01*
X459540Y197755D01*
X459547Y197769D01*
X459650Y197913D01*
X459657Y197926D01*
X459667Y197936D01*
X459694Y197977D01*
X459759Y198063D01*
X459766Y198077D01*
X459780Y198090D01*
X459787Y198104D01*
X459800Y198118D01*
X459807Y198131D01*
X459821Y198145D01*
X459828Y198159D01*
X459841Y198172D01*
X459848Y198186D01*
X459862Y198200D01*
X459868Y198213D01*
X459889Y198234D01*
X459896Y198248D01*
X459909Y198261D01*
X459916Y198275D01*
X459937Y198295D01*
X459944Y198309D01*
X459957Y198323D01*
X459964Y198336D01*
X459985Y198357D01*
X459992Y198371D01*
X460012Y198391D01*
X460019Y198405D01*
X460046Y198432D01*
X460053Y198446D01*
X460080Y198473D01*
X460087Y198487D01*
X460115Y198514D01*
X460121Y198528D01*
X460142Y198548D01*
X460149Y198562D01*
X460183Y198596D01*
X460190Y198610D01*
X460231Y198651D01*
X460238Y198664D01*
X460285Y198712D01*
X460292Y198726D01*
X460333Y198767D01*
X460340Y198781D01*
X460429Y198870D01*
X460436Y198883D01*
X460658Y199105D01*
X460682Y199122D01*
X460719Y199153D01*
X460767Y199180D01*
X460836Y199208D01*
X462934Y199215D01*
X462937Y199198D01*
D02*
G37*
G36*
X471857Y193729D02*
X471864Y193716D01*
X471891Y193688D01*
X471898Y193675D01*
X471919Y193654D01*
X471926Y193641D01*
X471946Y193620D01*
X471953Y193606D01*
X471973Y193586D01*
X471980Y193572D01*
X472001Y193552D01*
X472008Y193538D01*
X472035Y193511D01*
X472042Y193497D01*
X472062Y193477D01*
X472069Y193463D01*
X472090Y193442D01*
X472096Y193429D01*
X472117Y193408D01*
X472124Y193395D01*
X472151Y193367D01*
X472158Y193354D01*
X472179Y193333D01*
X472185Y193319D01*
X472213Y193292D01*
X472220Y193278D01*
X472230Y193268D01*
X472261Y193230D01*
X472213Y193224D01*
X472144Y193217D01*
X472021Y193203D01*
X471915Y193193D01*
X471888Y193186D01*
X471652Y193155D01*
X471618Y193149D01*
X471577Y193142D01*
X471509Y193128D01*
X471464Y193118D01*
X471382Y193097D01*
X471286Y193070D01*
X471187Y193039D01*
X471133Y193019D01*
X471123Y192995D01*
X471112Y192923D01*
X471105Y192902D01*
X471099Y192786D01*
X471092Y192766D01*
X471085Y192485D01*
X471075Y192284D01*
X470914Y192294D01*
X470603Y192318D01*
X470548D01*
X470377Y192311D01*
X470350Y192304D01*
X470268Y192291D01*
X470241Y192284D01*
X470183Y192267D01*
X470145Y192256D01*
X470118Y192216D01*
X470090Y192140D01*
X470084Y192113D01*
X470070Y192038D01*
X470056Y191867D01*
X470049Y191799D01*
X470043Y191758D01*
X470032Y191761D01*
X469978Y191768D01*
X469916Y191775D01*
X469861Y191781D01*
X469800Y191788D01*
X469745Y191795D01*
X469622Y191809D01*
X469185Y191864D01*
X469150Y191870D01*
X469188Y191901D01*
X469202Y191908D01*
X469250Y191942D01*
X469263Y191949D01*
X469277Y191963D01*
X469291Y191970D01*
X469386Y192038D01*
X469400Y192045D01*
X469448Y192079D01*
X469461Y192086D01*
X469475Y192099D01*
X469489Y192106D01*
X469585Y192174D01*
X469598Y192181D01*
X469694Y192250D01*
X469708Y192256D01*
X469803Y192325D01*
X469817Y192332D01*
X469960Y192434D01*
X469974Y192441D01*
X470118Y192544D01*
X470131Y192550D01*
X470275Y192653D01*
X470289Y192660D01*
X470384Y192728D01*
X470398Y192735D01*
X470412Y192749D01*
X470425Y192755D01*
X470473Y192790D01*
X470487Y192797D01*
X470501Y192810D01*
X470514Y192817D01*
X470658Y192920D01*
X470671Y192926D01*
X470815Y193029D01*
X470829Y193036D01*
X470924Y193104D01*
X470938Y193111D01*
X470952Y193125D01*
X470965Y193131D01*
X471013Y193166D01*
X471027Y193172D01*
X471040Y193186D01*
X471054Y193193D01*
X471198Y193296D01*
X471211Y193302D01*
X471259Y193336D01*
X471273Y193343D01*
X471286Y193357D01*
X471300Y193364D01*
X471348Y193398D01*
X471362Y193405D01*
X471375Y193419D01*
X471389Y193425D01*
X471437Y193459D01*
X471451Y193466D01*
X471464Y193480D01*
X471478Y193487D01*
X471526Y193521D01*
X471539Y193528D01*
X471553Y193542D01*
X471567Y193548D01*
X471615Y193582D01*
X471628Y193589D01*
X471642Y193603D01*
X471656Y193610D01*
X471751Y193678D01*
X471765Y193685D01*
X471813Y193719D01*
X471847Y193740D01*
X471857Y193729D01*
D02*
G37*
G36*
X472531Y192366D02*
X472558Y192359D01*
X472606Y192352D01*
X472633Y192345D01*
X472722Y192318D01*
X472811Y192277D01*
X472824Y192270D01*
X472865Y192243D01*
X472879Y192236D01*
X472893Y192222D01*
X472906Y192216D01*
X472934Y192188D01*
X472947Y192181D01*
X472964Y192164D01*
X472961Y192161D01*
X472879Y192154D01*
X472852Y192147D01*
X472712Y192130D01*
X472630Y192116D01*
X472527Y192096D01*
X472483Y192086D01*
X472373Y192058D01*
X472278Y192031D01*
X472066Y191963D01*
X471929Y191908D01*
X471881Y191887D01*
X471615Y191758D01*
X471553Y191723D01*
X471410Y191641D01*
X471362Y191607D01*
X471348Y191600D01*
X471300Y191566D01*
X471286Y191559D01*
X471239Y191525D01*
X471225Y191518D01*
X471211Y191505D01*
X471198Y191498D01*
X471184Y191484D01*
X471170Y191477D01*
X471157Y191464D01*
X471143Y191457D01*
X471129Y191443D01*
X471116Y191436D01*
X471095Y191416D01*
X471081Y191409D01*
X471068Y191395D01*
X471054Y191388D01*
X471013Y191348D01*
X470999Y191341D01*
X470969Y191310D01*
X470962Y191296D01*
X470941Y191276D01*
X470893Y191214D01*
X470812Y191091D01*
X470805Y191077D01*
X470771Y191023D01*
X470764Y191009D01*
X470729Y190954D01*
X470723Y190941D01*
X470695Y190900D01*
X470688Y190886D01*
X470678Y190876D01*
X470651Y190883D01*
X470552Y190913D01*
X470384Y190972D01*
X470336Y190985D01*
X470299Y190996D01*
X470271Y191002D01*
X470186Y191019D01*
X470165Y191026D01*
X470015Y191033D01*
X469926Y191026D01*
X469906Y191019D01*
X469889Y191023D01*
X469940Y191060D01*
X469954Y191067D01*
X469967Y191081D01*
X469981Y191088D01*
X470029Y191122D01*
X470043Y191129D01*
X470056Y191142D01*
X470070Y191149D01*
X470118Y191183D01*
X470131Y191190D01*
X470145Y191204D01*
X470159Y191211D01*
X470254Y191279D01*
X470268Y191286D01*
X470282Y191300D01*
X470295Y191306D01*
X470391Y191375D01*
X470405Y191382D01*
X470419Y191395D01*
X470432Y191402D01*
X470528Y191471D01*
X470541Y191477D01*
X470589Y191511D01*
X470603Y191518D01*
X470613Y191529D01*
X470736Y191611D01*
X470801Y191655D01*
X470815Y191662D01*
X470863Y191696D01*
X470876Y191703D01*
X470924Y191737D01*
X470938Y191744D01*
X470986Y191778D01*
X470999Y191785D01*
X471040Y191812D01*
X471054Y191819D01*
X471095Y191846D01*
X471109Y191853D01*
X471150Y191881D01*
X471164Y191887D01*
X471205Y191915D01*
X471252Y191942D01*
X471314Y191976D01*
X471369Y192010D01*
X471416Y192038D01*
X471679Y192178D01*
X471714Y192192D01*
X471789Y192226D01*
X471823Y192239D01*
X471878Y192260D01*
X472025Y192311D01*
X472052Y192318D01*
X472059D01*
X472062Y192322D01*
X472090Y192328D01*
X472124Y192335D01*
X472151Y192342D01*
X472185Y192349D01*
X472257Y192359D01*
X472278Y192366D01*
X472442Y192373D01*
X472531Y192366D01*
D02*
G37*
G36*
X475934Y187383D02*
X475962Y187376D01*
X476037Y187356D01*
X476180Y187287D01*
X476194Y187281D01*
X476242Y187246D01*
X476256Y187240D01*
X476276Y187219D01*
X476290Y187212D01*
X476344Y187158D01*
X476358Y187151D01*
X476362Y187141D01*
X476403Y187100D01*
X476409Y187086D01*
X476430Y187065D01*
X476437Y187052D01*
X476447Y187041D01*
X476515Y186932D01*
X476549Y186857D01*
X476563Y186823D01*
X476584Y186768D01*
X476597Y186713D01*
X476608Y186662D01*
X476615Y186642D01*
X476621Y186505D01*
X476615Y186416D01*
X476601Y186334D01*
X476594Y186307D01*
X476573Y186238D01*
X476546Y186170D01*
X476519Y186108D01*
X476471Y186033D01*
X476464Y186020D01*
X476450Y186006D01*
X476444Y185992D01*
X476430Y185978D01*
X476423Y185965D01*
X476389Y185931D01*
X476382Y185917D01*
X476331Y185866D01*
X476317Y185859D01*
X476290Y185831D01*
X476276Y185825D01*
X476259Y185808D01*
X476194Y185763D01*
X476088Y185705D01*
X476054Y185691D01*
X475969Y185661D01*
X475941Y185654D01*
X475921Y185647D01*
X475839Y185640D01*
X475832D01*
X475777Y185633D01*
X475688Y185640D01*
X475606Y185654D01*
X475497Y185688D01*
X475367Y185749D01*
X475271Y185818D01*
X475258Y185825D01*
X475210Y185873D01*
X475196Y185879D01*
X475186Y185890D01*
X475179Y185903D01*
X475141Y185941D01*
X475111Y185978D01*
X475094Y186002D01*
X475035Y186088D01*
X474984Y186187D01*
X474943Y186303D01*
X474936Y186330D01*
X474926Y186375D01*
X474919Y186395D01*
X474913Y186553D01*
X474923Y186645D01*
X474930Y186686D01*
X474940Y186730D01*
X474960Y186799D01*
X474974Y186833D01*
X475015Y186922D01*
X475049Y186983D01*
X475063Y186997D01*
X475070Y187011D01*
X475083Y187024D01*
X475090Y187038D01*
X475104Y187052D01*
X475111Y187065D01*
X475159Y187113D01*
X475165Y187127D01*
X475176Y187130D01*
X475217Y187171D01*
X475326Y187253D01*
X475459Y187325D01*
X475514Y187346D01*
X475558Y187363D01*
X475586Y187369D01*
X475606Y187376D01*
X475654Y187383D01*
X475675Y187390D01*
X475818Y187397D01*
X475934Y187383D01*
D02*
G37*
G36*
X473433Y189816D02*
X473357Y189782D01*
X473269Y189741D01*
X473070Y189646D01*
X472982Y189598D01*
X472968Y189591D01*
X472913Y189557D01*
X472900Y189550D01*
X472736Y189434D01*
X472722Y189427D01*
X472708Y189413D01*
X472694Y189406D01*
X472674Y189386D01*
X472660Y189379D01*
X472647Y189365D01*
X472633Y189358D01*
X472606Y189331D01*
X472592Y189324D01*
X472558Y189290D01*
X472544Y189283D01*
X472462Y189201D01*
X472448Y189194D01*
X472418Y189164D01*
X472411Y189150D01*
X472329Y189068D01*
X472322Y189054D01*
X472281Y189013D01*
X472274Y189000D01*
X472254Y188979D01*
X472237Y188955D01*
X472206Y188918D01*
X472189Y188894D01*
X472090Y188760D01*
X472083Y188747D01*
X472049Y188699D01*
X472042Y188685D01*
X472014Y188644D01*
X472008Y188630D01*
X471973Y188576D01*
X471874Y188388D01*
X471833Y188306D01*
X471799Y188231D01*
X471744Y188094D01*
X471673Y187885D01*
X471659Y187838D01*
X471652Y187810D01*
X471642Y187773D01*
X471628Y187718D01*
X471615Y187650D01*
X471608Y187622D01*
X471601Y187588D01*
X471574Y187424D01*
X471567Y187369D01*
X471557Y187270D01*
X471550Y187250D01*
X471543Y187065D01*
X471536Y187045D01*
X471539Y186659D01*
X471546Y186529D01*
X471553Y186433D01*
X471567Y186283D01*
X471577Y186184D01*
X471584Y186156D01*
X471608Y185968D01*
X471615Y185927D01*
X471628Y185838D01*
X471635Y185797D01*
X471642Y185763D01*
X471649Y185722D01*
X471656Y185688D01*
X471662Y185647D01*
X471697Y185476D01*
X471707Y185432D01*
X471734Y185322D01*
X471748Y185275D01*
X471755Y185247D01*
X471833Y185004D01*
X471847Y184970D01*
X471864Y184926D01*
X471878Y184892D01*
X471939Y184748D01*
X472055Y184509D01*
X472110Y184406D01*
X472144Y184345D01*
X472172Y184297D01*
X472179Y184283D01*
X472213Y184229D01*
X472220Y184215D01*
X472254Y184160D01*
X472288Y184099D01*
X472322Y184051D01*
X472329Y184037D01*
X472332Y184034D01*
X472349Y184010D01*
X472356Y183996D01*
X472383Y183955D01*
X472390Y183942D01*
X472425Y183894D01*
X472431Y183880D01*
X472466Y183832D01*
X472472Y183819D01*
X472486Y183805D01*
X472493Y183791D01*
X472561Y183696D01*
X472568Y183682D01*
X472582Y183668D01*
X472578Y183658D01*
X472537Y183685D01*
X472476Y183720D01*
X472380Y183788D01*
X472366Y183795D01*
X472353Y183808D01*
X472339Y183815D01*
X472325Y183829D01*
X472312Y183836D01*
X472291Y183856D01*
X472278Y183863D01*
X472264Y183877D01*
X472250Y183884D01*
X472223Y183911D01*
X472209Y183918D01*
X472175Y183952D01*
X472161Y183959D01*
X472066Y184054D01*
X472052Y184061D01*
X472014Y184099D01*
X472008Y184113D01*
X471926Y184195D01*
X471919Y184208D01*
X471891Y184236D01*
X471885Y184249D01*
X471874Y184259D01*
X471840Y184300D01*
X471809Y184338D01*
X471792Y184362D01*
X471693Y184495D01*
X471686Y184509D01*
X471652Y184557D01*
X471645Y184571D01*
X471618Y184611D01*
X471611Y184625D01*
X471577Y184680D01*
X471543Y184741D01*
X471447Y184926D01*
X471420Y184987D01*
X471403Y185025D01*
X471348Y185162D01*
X471283Y185343D01*
X471222Y185548D01*
X471205Y185606D01*
X471170Y185743D01*
X471150Y185845D01*
X471143Y185873D01*
X471116Y186037D01*
X471109Y186098D01*
X471099Y186211D01*
X471092Y186231D01*
X471085Y186519D01*
X471095Y186720D01*
X471102Y186802D01*
X471109Y186857D01*
X471119Y186935D01*
X471126Y186963D01*
X471153Y187113D01*
X471187Y187250D01*
X471208Y187318D01*
X471245Y187438D01*
X471266Y187493D01*
X471283Y187537D01*
X471310Y187598D01*
X471420Y187824D01*
X471403Y187821D01*
X471355Y187807D01*
X471327Y187800D01*
X471280Y187786D01*
X471252Y187779D01*
X471205Y187766D01*
X471150Y187752D01*
X471112Y187742D01*
X471085Y187735D01*
X471040Y187725D01*
X471006Y187711D01*
X471003Y187722D01*
X471061Y187909D01*
X471075Y187944D01*
X471092Y187988D01*
X471119Y188056D01*
X471139Y188104D01*
X471167Y188166D01*
X471269Y188378D01*
X471304Y188432D01*
X471310Y188446D01*
X471345Y188501D01*
X471372Y188549D01*
X471379Y188562D01*
X471413Y188610D01*
X471420Y188624D01*
X471454Y188672D01*
X471461Y188685D01*
X471475Y188699D01*
X471481Y188713D01*
X471495Y188726D01*
X471502Y188740D01*
X471516Y188753D01*
X471522Y188767D01*
X471536Y188781D01*
X471543Y188795D01*
X471563Y188815D01*
X471570Y188829D01*
X471584Y188842D01*
X471591Y188856D01*
X471625Y188890D01*
X471632Y188904D01*
X471666Y188938D01*
X471673Y188952D01*
X471721Y189000D01*
X471727Y189013D01*
X471929Y189215D01*
X471943Y189222D01*
X471997Y189276D01*
X472011Y189283D01*
X472031Y189304D01*
X472045Y189311D01*
X472073Y189338D01*
X472086Y189345D01*
X472100Y189358D01*
X472124Y189375D01*
X472257Y189475D01*
X472380Y189557D01*
X472394Y189564D01*
X472435Y189591D01*
X472496Y189625D01*
X472626Y189693D01*
X472729Y189741D01*
X472787Y189765D01*
X472821Y189779D01*
X472937Y189820D01*
X472982Y189837D01*
X473009Y189844D01*
X473057Y189857D01*
X473094Y189868D01*
X473122Y189874D01*
X473190Y189888D01*
X473217Y189895D01*
X473299Y189909D01*
X473385Y189919D01*
X473405Y189926D01*
X473658Y189933D01*
X473433Y189816D01*
D02*
G37*
G36*
X475534Y189410D02*
X475617Y189403D01*
X475702Y189393D01*
X475733Y189382D01*
X475702Y189372D01*
X475429Y189304D01*
X475381Y189290D01*
X475353Y189283D01*
X475258Y189256D01*
X475189Y189235D01*
X475049Y189191D01*
X475005Y189174D01*
X474936Y189147D01*
X474615Y188989D01*
X474560Y188955D01*
X474547Y188948D01*
X474492Y188914D01*
X474478Y188907D01*
X474335Y188805D01*
X474321Y188798D01*
X474308Y188784D01*
X474294Y188777D01*
X474280Y188764D01*
X474267Y188757D01*
X474246Y188736D01*
X474232Y188730D01*
X474205Y188702D01*
X474191Y188696D01*
X474171Y188675D01*
X474157Y188668D01*
X474103Y188613D01*
X474089Y188607D01*
X473908Y188426D01*
X473901Y188412D01*
X473853Y188364D01*
X473846Y188350D01*
X473819Y188323D01*
X473812Y188309D01*
X473792Y188289D01*
X473785Y188275D01*
X473768Y188258D01*
X473703Y188173D01*
X473696Y188159D01*
X473686Y188149D01*
X473593Y188008D01*
X473587Y187995D01*
X473552Y187940D01*
X473443Y187728D01*
X473426Y187691D01*
X473385Y187588D01*
X473320Y187400D01*
X473310Y187363D01*
X473282Y187253D01*
X473269Y187185D01*
X473255Y187103D01*
X473245Y187011D01*
X473238Y186990D01*
X473231Y186477D01*
X473241Y186276D01*
X473248Y186187D01*
X473262Y186064D01*
X473272Y185985D01*
X473279Y185958D01*
X473286Y185910D01*
X473320Y185726D01*
X473368Y185534D01*
X473395Y185445D01*
X473412Y185387D01*
X473419Y185360D01*
X473470Y185220D01*
X473484Y185186D01*
X473504Y185138D01*
X473518Y185104D01*
X473641Y184851D01*
X473675Y184789D01*
X473730Y184694D01*
X473764Y184646D01*
X473771Y184632D01*
X473839Y184536D01*
X473846Y184523D01*
X473860Y184509D01*
X473867Y184495D01*
X473880Y184482D01*
X473887Y184468D01*
X473908Y184448D01*
X473915Y184434D01*
X473942Y184406D01*
X473949Y184393D01*
X473976Y184365D01*
X473983Y184352D01*
X474058Y184277D01*
X474065Y184263D01*
X474267Y184061D01*
X474280Y184054D01*
X474328Y184007D01*
X474342Y184000D01*
X474369Y183972D01*
X474383Y183966D01*
X474410Y183938D01*
X474424Y183931D01*
X474438Y183918D01*
X474451Y183911D01*
X474465Y183897D01*
X474478Y183890D01*
X474492Y183877D01*
X474506Y183870D01*
X474519Y183856D01*
X474533Y183849D01*
X474547Y183836D01*
X474560Y183829D01*
X474591Y183805D01*
X474632Y183778D01*
X474772Y183685D01*
X474786Y183678D01*
X474841Y183644D01*
X474854Y183637D01*
X474909Y183603D01*
X474971Y183569D01*
X475128Y183487D01*
X475138Y183477D01*
X475432Y183333D01*
X475429Y183330D01*
X475405Y183333D01*
X475336Y183347D01*
X475295Y183354D01*
X475261Y183361D01*
X475234Y183368D01*
X475165Y183381D01*
X475121Y183391D01*
X474984Y183426D01*
X474889Y183453D01*
X474789Y183484D01*
X474714Y183511D01*
X474670Y183528D01*
X474636Y183542D01*
X474588Y183562D01*
X474362Y183672D01*
X474314Y183699D01*
X474239Y183740D01*
X474191Y183774D01*
X474178Y183781D01*
X474034Y183884D01*
X474020Y183890D01*
X474000Y183911D01*
X473986Y183918D01*
X473966Y183938D01*
X473952Y183945D01*
X473932Y183966D01*
X473918Y183972D01*
X473891Y184000D01*
X473877Y184007D01*
X473822Y184061D01*
X473809Y184068D01*
X473634Y184242D01*
X473628Y184256D01*
X473573Y184311D01*
X473566Y184324D01*
X473539Y184352D01*
X473532Y184365D01*
X473522Y184376D01*
X473446Y184471D01*
X473382Y184557D01*
X473375Y184571D01*
X473306Y184666D01*
X473299Y184680D01*
X473265Y184734D01*
X473258Y184748D01*
X473231Y184789D01*
X473091Y185059D01*
X473036Y185196D01*
X472971Y185384D01*
X472964Y185411D01*
X472951Y185459D01*
X472944Y185486D01*
X472934Y185524D01*
X472900Y185695D01*
X472886Y185784D01*
X472879Y185825D01*
X472869Y185931D01*
X472862Y185951D01*
X472855Y186143D01*
X472848Y186163D01*
X472852Y186392D01*
X472862Y186621D01*
X472869Y186648D01*
X472876Y186737D01*
X472883Y186785D01*
X472906Y186973D01*
X472913Y187014D01*
X472920Y187048D01*
X472934Y187130D01*
X472954Y187233D01*
X472961Y187260D01*
X472975Y187328D01*
X472988Y187383D01*
X472999Y187427D01*
X473012Y187482D01*
X473026Y187530D01*
X473033Y187557D01*
X473040Y187578D01*
X473036Y187595D01*
X472804Y187479D01*
X472800Y187482D01*
X472807Y187503D01*
X472821Y187551D01*
X472862Y187680D01*
X472876Y187715D01*
X472903Y187776D01*
Y187783D01*
X473019Y188022D01*
X473046Y188070D01*
X473081Y188131D01*
X473115Y188179D01*
X473122Y188193D01*
X473190Y188289D01*
X473197Y188302D01*
X473211Y188316D01*
X473217Y188330D01*
X473231Y188343D01*
X473238Y188357D01*
X473258Y188378D01*
X473265Y188391D01*
X473286Y188412D01*
X473293Y188426D01*
X473334Y188467D01*
X473340Y188480D01*
X473409Y188549D01*
X473416Y188562D01*
X473494Y188641D01*
X473508Y188648D01*
X473576Y188716D01*
X473590Y188723D01*
X473631Y188764D01*
X473645Y188771D01*
X473658Y188784D01*
X473682Y188801D01*
X473720Y188832D01*
X473744Y188849D01*
X473829Y188914D01*
X473843Y188921D01*
X473891Y188955D01*
X473928Y188979D01*
X473983Y189013D01*
X474051Y189054D01*
X474202Y189136D01*
X474352Y189205D01*
X474420Y189232D01*
X474475Y189252D01*
X474622Y189304D01*
X474680Y189321D01*
X474789Y189348D01*
X474824Y189355D01*
X474851Y189362D01*
X474919Y189375D01*
X475001Y189389D01*
X475056Y189396D01*
X475176Y189406D01*
X475196Y189413D01*
X475534Y189410D01*
D02*
G37*
G36*
X468542Y180264D02*
X468535Y180217D01*
X468508Y180155D01*
X468501Y180141D01*
X468488Y180128D01*
X468481Y180114D01*
X468423Y180056D01*
X468409Y180049D01*
X468388Y180029D01*
X468375Y180022D01*
X468361Y180008D01*
X468347Y180001D01*
X468327Y179981D01*
X468313Y179974D01*
X468300Y179960D01*
X468286Y179953D01*
X468272Y179940D01*
X468259Y179933D01*
X468245Y179919D01*
X468231Y179912D01*
X468218Y179899D01*
X468204Y179892D01*
X468190Y179878D01*
X468177Y179871D01*
X468163Y179858D01*
X468149Y179851D01*
X468135Y179837D01*
X468122Y179830D01*
X468101Y179810D01*
X468088Y179803D01*
X468074Y179789D01*
X468060Y179782D01*
X468047Y179769D01*
X468033Y179762D01*
X468019Y179748D01*
X468006Y179742D01*
X467992Y179728D01*
X467978Y179721D01*
X467965Y179707D01*
X467951Y179701D01*
X467937Y179687D01*
X467924Y179680D01*
X467910Y179666D01*
X467896Y179659D01*
X467876Y179639D01*
X467862Y179632D01*
X467848Y179619D01*
X467835Y179612D01*
X467821Y179598D01*
X467807Y179591D01*
X467794Y179577D01*
X467780Y179571D01*
X467766Y179557D01*
X467753Y179550D01*
X467739Y179536D01*
X467725Y179530D01*
X467712Y179516D01*
X467698Y179509D01*
X467684Y179495D01*
X467671Y179489D01*
X467657Y179475D01*
X467643Y179468D01*
X467630Y179454D01*
X467616Y179448D01*
X467602Y179434D01*
X467589Y179427D01*
X467575Y179413D01*
X467561Y179407D01*
X467548Y179393D01*
X467534Y179386D01*
X467520Y179372D01*
X467507Y179366D01*
X467493Y179352D01*
X467479Y179345D01*
X467466Y179331D01*
X467452Y179324D01*
X467438Y179311D01*
X467425Y179304D01*
X467411Y179290D01*
X467397Y179283D01*
X467384Y179270D01*
X467370Y179263D01*
X467356Y179249D01*
X467343Y179243D01*
X467329Y179229D01*
X467315Y179222D01*
X467302Y179208D01*
X467288Y179201D01*
X467274Y179188D01*
X467261Y179181D01*
X467247Y179167D01*
X467233Y179160D01*
X467220Y179147D01*
X467206Y179140D01*
X467192Y179126D01*
X467179Y179120D01*
X467165Y179106D01*
X467151Y179099D01*
X467131Y179078D01*
X467127Y179082D01*
X467121Y179273D01*
X467114Y179294D01*
X467107Y179718D01*
X467100Y179738D01*
X467093Y181631D01*
X467086Y182192D01*
X467079Y182212D01*
X467083Y182469D01*
X467090Y182530D01*
X467097Y182571D01*
X467103Y182605D01*
X467117Y182660D01*
X467134Y182704D01*
X467148Y182739D01*
X467182Y182793D01*
X467189Y182807D01*
X467216Y182834D01*
X467223Y182848D01*
X467247Y182872D01*
X467261Y182879D01*
X467288Y182906D01*
X467302Y182913D01*
X467329Y182940D01*
X467343Y182947D01*
X467363Y182968D01*
X467377Y182975D01*
X467397Y182995D01*
X467411Y183002D01*
X467431Y183022D01*
X467445Y183029D01*
X467466Y183050D01*
X467479Y183056D01*
X467493Y183070D01*
X467507Y183077D01*
X467520Y183091D01*
X467534Y183098D01*
X467555Y183118D01*
X467568Y183125D01*
X467582Y183139D01*
X467596Y183145D01*
X467609Y183159D01*
X467623Y183166D01*
X467637Y183179D01*
X467650Y183186D01*
X467664Y183200D01*
X467678Y183207D01*
X467691Y183221D01*
X467705Y183227D01*
X467719Y183241D01*
X467732Y183248D01*
X467746Y183262D01*
X467760Y183268D01*
X467770Y183279D01*
X467811Y183306D01*
X467944Y183405D01*
X467958Y183412D01*
X467972Y183426D01*
X467985Y183432D01*
X467989Y183436D01*
X467992Y183439D01*
X468006Y183446D01*
X468016Y183456D01*
X468057Y183484D01*
X468286Y183651D01*
X468300Y183658D01*
X468313Y183672D01*
X468327Y183678D01*
X468341Y183692D01*
X468354Y183699D01*
X468364Y183709D01*
X468405Y183737D01*
X468539Y183836D01*
X468542Y180264D01*
D02*
G37*
G36*
X471129Y178867D02*
X471136Y178832D01*
X471150Y178778D01*
X471157Y178744D01*
X471177Y178662D01*
X471184Y178627D01*
X471198Y178573D01*
X471205Y178539D01*
X471211Y178511D01*
X471218Y178477D01*
X471225Y178450D01*
X471245Y178347D01*
X471252Y178320D01*
X471266Y178251D01*
X471273Y178210D01*
X471280Y178176D01*
X471286Y178135D01*
X471297Y178057D01*
X471304Y178036D01*
X471310Y177940D01*
X471317Y177920D01*
X471324Y177722D01*
X471331Y177701D01*
X471327Y177623D01*
X471321Y177486D01*
X471314Y177424D01*
X471307Y177370D01*
X471300Y177329D01*
X471293Y177295D01*
X471286Y177267D01*
X471256Y177353D01*
X471235Y177421D01*
X471208Y177517D01*
X471201Y177544D01*
X471187Y177592D01*
X471174Y177647D01*
X471160Y177694D01*
X471139Y177776D01*
X471126Y177824D01*
X471071Y178043D01*
X471058Y178091D01*
X471051Y178118D01*
X471037Y178166D01*
X471023Y178221D01*
X471013Y178258D01*
X471003Y178310D01*
X470993Y178320D01*
X470986Y178313D01*
X470972Y178306D01*
X470941Y178282D01*
X470856Y178217D01*
X470832Y178200D01*
X470747Y178135D01*
X470723Y178118D01*
X470589Y178019D01*
X470565Y178002D01*
X470480Y177937D01*
X470456Y177920D01*
X470371Y177855D01*
X470347Y177838D01*
X470261Y177773D01*
X470237Y177756D01*
X470152Y177691D01*
X470138Y177684D01*
X470124Y177671D01*
X470111Y177664D01*
X470097Y177650D01*
X470084Y177643D01*
X470070Y177629D01*
X470056Y177623D01*
X470043Y177609D01*
X470029Y177602D01*
X470015Y177588D01*
X470002Y177582D01*
X469988Y177568D01*
X469974Y177561D01*
X469960Y177547D01*
X469947Y177541D01*
X469933Y177527D01*
X469919Y177520D01*
X469906Y177506D01*
X469892Y177500D01*
X469878Y177486D01*
X469865Y177479D01*
X469851Y177465D01*
X469838Y177459D01*
X469824Y177445D01*
X469810Y177438D01*
X469797Y177424D01*
X469783Y177418D01*
X469769Y177404D01*
X469756Y177397D01*
X469742Y177383D01*
X469728Y177376D01*
X469714Y177363D01*
X469701Y177356D01*
X469687Y177342D01*
X469673Y177336D01*
X469660Y177322D01*
X469646Y177315D01*
X469632Y177301D01*
X469619Y177295D01*
X469605Y177281D01*
X469591Y177274D01*
X469578Y177260D01*
X469564Y177253D01*
X469550Y177240D01*
X469537Y177233D01*
X469523Y177219D01*
X469509Y177213D01*
X469496Y177199D01*
X469482Y177192D01*
X469468Y177178D01*
X469455Y177172D01*
X469441Y177158D01*
X469427Y177151D01*
X469414Y177137D01*
X469400Y177130D01*
X469386Y177117D01*
X469373Y177110D01*
X469359Y177096D01*
X469345Y177090D01*
X469332Y177076D01*
X469318Y177069D01*
X469304Y177055D01*
X469291Y177049D01*
X469277Y177035D01*
X469263Y177028D01*
X469250Y177014D01*
X469236Y177007D01*
X469222Y176994D01*
X469209Y176987D01*
X469195Y176973D01*
X469181Y176967D01*
X469164Y176949D01*
X469171Y176929D01*
X469178Y176751D01*
X469185Y176731D01*
X469181Y176433D01*
X469113Y176502D01*
X469099Y176508D01*
X469082Y176526D01*
X469075Y176539D01*
X468987Y176628D01*
X468980Y176642D01*
X468939Y176683D01*
X468932Y176697D01*
X468904Y176724D01*
X468898Y176737D01*
X468877Y176758D01*
X468870Y176772D01*
X468846Y176796D01*
X468840Y176789D01*
X468826Y176782D01*
X468785Y176755D01*
X468771Y176748D01*
X468716Y176714D01*
X468703Y176707D01*
X468648Y176672D01*
X468635Y176666D01*
X468580Y176631D01*
X468518Y176597D01*
X468470Y176563D01*
X468457Y176556D01*
X468409Y176522D01*
X468395Y176515D01*
X468382Y176502D01*
X468368Y176495D01*
X468354Y176481D01*
X468341Y176474D01*
X468313Y176447D01*
X468300Y176440D01*
X468218Y176358D01*
X468221Y176245D01*
X468337Y176006D01*
X468405Y175876D01*
X468529Y175651D01*
X468576Y175562D01*
X468713Y175316D01*
X468740Y175268D01*
X468843Y175083D01*
X468884Y175008D01*
X468952Y174885D01*
X468983Y174827D01*
X469004Y174834D01*
X469099Y174902D01*
X469113Y174909D01*
X469161Y174943D01*
X469174Y174950D01*
X469270Y175019D01*
X469284Y175025D01*
X469332Y175059D01*
X469345Y175066D01*
X469393Y175101D01*
X469407Y175107D01*
X469420Y175121D01*
X469434Y175128D01*
X469482Y175162D01*
X469496Y175169D01*
X469544Y175203D01*
X469557Y175210D01*
X469653Y175278D01*
X469667Y175285D01*
X469714Y175319D01*
X469728Y175326D01*
X469824Y175394D01*
X469838Y175401D01*
X469885Y175435D01*
X469899Y175442D01*
X469995Y175511D01*
X470008Y175517D01*
X470056Y175552D01*
X470070Y175558D01*
X470165Y175627D01*
X470179Y175634D01*
X470227Y175668D01*
X470241Y175675D01*
X470336Y175743D01*
X470350Y175750D01*
X470398Y175784D01*
X470412Y175791D01*
X470507Y175859D01*
X470521Y175866D01*
X470569Y175900D01*
X470582Y175907D01*
X470630Y175941D01*
X470644Y175948D01*
X470740Y176016D01*
X470753Y176023D01*
X470801Y176057D01*
X470815Y176064D01*
X470863Y176098D01*
X470876Y176105D01*
X470924Y176139D01*
X470938Y176146D01*
X471034Y176215D01*
X471047Y176221D01*
X471095Y176256D01*
X471109Y176262D01*
X471157Y176297D01*
X471170Y176303D01*
X471266Y176372D01*
X471280Y176379D01*
X471327Y176413D01*
X471341Y176420D01*
X471389Y176454D01*
X471403Y176461D01*
X471451Y176495D01*
X471464Y176502D01*
X471560Y176570D01*
X471574Y176577D01*
X471621Y176611D01*
X471635Y176618D01*
X471683Y176652D01*
X471697Y176659D01*
X471792Y176727D01*
X471806Y176734D01*
X471854Y176768D01*
X471868Y176775D01*
X471915Y176809D01*
X471929Y176816D01*
X471977Y176850D01*
X471990Y176857D01*
X472086Y176925D01*
X472107Y176932D01*
X472179Y176765D01*
X472206Y176703D01*
X472213Y176676D01*
X472202Y176666D01*
X472189Y176659D01*
X472175Y176645D01*
X472161Y176638D01*
X472066Y176570D01*
X472052Y176563D01*
X472038Y176549D01*
X472025Y176543D01*
X471929Y176474D01*
X471915Y176468D01*
X471902Y176454D01*
X471888Y176447D01*
X471792Y176379D01*
X471779Y176372D01*
X471765Y176358D01*
X471751Y176351D01*
X471656Y176283D01*
X471642Y176276D01*
X471628Y176262D01*
X471615Y176256D01*
X471519Y176187D01*
X471505Y176180D01*
X471492Y176167D01*
X471478Y176160D01*
X471382Y176092D01*
X471369Y176085D01*
X471355Y176071D01*
X471341Y176064D01*
X471245Y175996D01*
X471232Y175989D01*
X471218Y175975D01*
X471205Y175969D01*
X471109Y175900D01*
X471095Y175893D01*
X471081Y175880D01*
X471068Y175873D01*
X470972Y175804D01*
X470958Y175798D01*
X470945Y175784D01*
X470931Y175777D01*
X470835Y175709D01*
X470822Y175702D01*
X470808Y175688D01*
X470794Y175681D01*
X470651Y175579D01*
X470637Y175572D01*
X470623Y175558D01*
X470610Y175552D01*
X470514Y175483D01*
X470501Y175476D01*
X470487Y175463D01*
X470473Y175456D01*
X470377Y175388D01*
X470364Y175381D01*
X470350Y175367D01*
X470336Y175360D01*
X470241Y175292D01*
X470227Y175285D01*
X470213Y175271D01*
X470200Y175265D01*
X470104Y175196D01*
X470090Y175189D01*
X470077Y175176D01*
X470063Y175169D01*
X469967Y175101D01*
X469954Y175094D01*
X469940Y175080D01*
X469926Y175073D01*
X469831Y175005D01*
X469817Y174998D01*
X469803Y174984D01*
X469790Y174977D01*
X469694Y174909D01*
X469680Y174902D01*
X469667Y174889D01*
X469653Y174882D01*
X469557Y174813D01*
X469544Y174807D01*
X469530Y174793D01*
X469516Y174786D01*
X469420Y174718D01*
X469407Y174711D01*
X469393Y174697D01*
X469380Y174690D01*
X469188Y174554D01*
X469174Y174547D01*
X469171Y174543D01*
X469168Y174540D01*
X469154Y174533D01*
X469140Y174520D01*
X469127Y174513D01*
X469031Y174444D01*
X469017Y174437D01*
X469004Y174424D01*
X468990Y174417D01*
X468846Y174314D01*
X468833Y174308D01*
X468819Y174294D01*
X468805Y174287D01*
X468710Y174219D01*
X468696Y174212D01*
X468682Y174198D01*
X468669Y174191D01*
X468573Y174123D01*
X468559Y174116D01*
X468546Y174102D01*
X468532Y174096D01*
X468388Y173993D01*
X468375Y173986D01*
X468361Y173973D01*
X468347Y173966D01*
X468252Y173898D01*
X468238Y173891D01*
X468224Y173877D01*
X468211Y173870D01*
X468115Y173802D01*
X468101Y173795D01*
X468088Y173781D01*
X468074Y173775D01*
X467931Y173672D01*
X467917Y173665D01*
X467903Y173651D01*
X467889Y173645D01*
X467794Y173576D01*
X467780Y173569D01*
X467766Y173556D01*
X467753Y173549D01*
X467609Y173446D01*
X467596Y173440D01*
X467582Y173426D01*
X467568Y173419D01*
X467473Y173351D01*
X467459Y173344D01*
X467445Y173330D01*
X467431Y173323D01*
X467336Y173255D01*
X467322Y173248D01*
X467309Y173234D01*
X467295Y173228D01*
X467151Y173125D01*
X467138Y173118D01*
X467124Y173105D01*
X467110Y173098D01*
X467015Y173029D01*
X467001Y173023D01*
X466987Y173009D01*
X466974Y173002D01*
X466878Y172934D01*
X466864Y172927D01*
X466851Y172913D01*
X466837Y172906D01*
X466693Y172804D01*
X466680Y172797D01*
X466666Y172783D01*
X466652Y172776D01*
X466557Y172708D01*
X466543Y172701D01*
X466529Y172688D01*
X466516Y172681D01*
X466253Y172944D01*
X466324Y172995D01*
X466338Y173002D01*
X466386Y173036D01*
X466399Y173043D01*
X466413Y173057D01*
X466427Y173064D01*
X466475Y173098D01*
X466488Y173105D01*
X466502Y173118D01*
X466516Y173125D01*
X466611Y173194D01*
X466625Y173200D01*
X466673Y173234D01*
X466686Y173241D01*
X466700Y173255D01*
X466714Y173262D01*
X466762Y173296D01*
X466775Y173303D01*
X466789Y173317D01*
X466803Y173323D01*
X466898Y173392D01*
X466912Y173398D01*
X466960Y173433D01*
X466974Y173440D01*
X466987Y173453D01*
X467001Y173460D01*
X467049Y173494D01*
X467062Y173501D01*
X467076Y173515D01*
X467090Y173522D01*
X467185Y173590D01*
X467199Y173597D01*
X467247Y173631D01*
X467261Y173638D01*
X467274Y173651D01*
X467288Y173658D01*
X467336Y173693D01*
X467349Y173699D01*
X467363Y173713D01*
X467377Y173720D01*
X467425Y173754D01*
X467438Y173761D01*
X467452Y173775D01*
X467466Y173781D01*
X467561Y173850D01*
X467575Y173856D01*
X467623Y173891D01*
X467637Y173898D01*
X467650Y173911D01*
X467664Y173918D01*
X467712Y173952D01*
X467725Y173959D01*
X467739Y173973D01*
X467753Y173979D01*
X467848Y174048D01*
X467862Y174055D01*
X467910Y174089D01*
X467924Y174096D01*
X467937Y174109D01*
X467951Y174116D01*
X467999Y174150D01*
X468013Y174157D01*
X468026Y174171D01*
X468040Y174178D01*
X468135Y174246D01*
X468149Y174253D01*
X468197Y174287D01*
X468211Y174294D01*
X468224Y174308D01*
X468238Y174314D01*
X468286Y174349D01*
X468300Y174355D01*
X468313Y174369D01*
X468327Y174376D01*
X468375Y174410D01*
X468388Y174417D01*
X468402Y174431D01*
X468416Y174437D01*
X468511Y174506D01*
X468525Y174513D01*
X468573Y174547D01*
X468587Y174554D01*
X468600Y174567D01*
X468614Y174574D01*
X468662Y174608D01*
X468676Y174615D01*
X468686Y174625D01*
X468679Y174646D01*
X468672Y174660D01*
X468638Y174714D01*
X468631Y174728D01*
X468597Y174783D01*
X468590Y174796D01*
X468563Y174837D01*
X468556Y174851D01*
X468522Y174906D01*
X468515Y174919D01*
X468481Y174974D01*
X468474Y174988D01*
X468446Y175029D01*
X468440Y175042D01*
X468405Y175097D01*
X468399Y175111D01*
X468364Y175165D01*
X468358Y175179D01*
X468330Y175220D01*
X468324Y175234D01*
X468289Y175288D01*
X468283Y175302D01*
X468248Y175357D01*
X468242Y175371D01*
X468194Y175446D01*
X468187Y175459D01*
X468153Y175514D01*
X468146Y175528D01*
X468118Y175569D01*
X468112Y175582D01*
X468077Y175637D01*
X468071Y175651D01*
X468023Y175726D01*
X468016Y175740D01*
X467968Y175815D01*
X467961Y175828D01*
X467934Y175869D01*
X467927Y175883D01*
X467893Y175938D01*
X467886Y175951D01*
X467838Y176027D01*
X467831Y176040D01*
X467783Y176116D01*
X467777Y176129D01*
X467749Y176170D01*
X467742Y176184D01*
X467708Y176239D01*
X467701Y176252D01*
X467674Y176293D01*
X467667Y176307D01*
X467633Y176362D01*
X467606Y176409D01*
X467835Y176577D01*
X467848Y176584D01*
X467862Y176597D01*
X467876Y176604D01*
X468067Y176741D01*
X468081Y176748D01*
X468094Y176761D01*
X468108Y176768D01*
X468347Y176939D01*
X468361Y176946D01*
X468375Y176960D01*
X468388Y176967D01*
X468580Y177103D01*
X468594Y177110D01*
X468607Y177124D01*
X468621Y177130D01*
X468860Y177301D01*
X468874Y177308D01*
X468887Y177322D01*
X468901Y177329D01*
X469093Y177465D01*
X469106Y177472D01*
X469120Y177486D01*
X469134Y177493D01*
X469373Y177664D01*
X469386Y177671D01*
X469400Y177684D01*
X469414Y177691D01*
X469653Y177862D01*
X469667Y177869D01*
X469680Y177882D01*
X469694Y177889D01*
X469933Y178060D01*
X469947Y178067D01*
X469960Y178081D01*
X469974Y178087D01*
X470213Y178258D01*
X470227Y178265D01*
X470241Y178279D01*
X470254Y178286D01*
X470494Y178456D01*
X470507Y178463D01*
X470521Y178477D01*
X470535Y178484D01*
X470774Y178655D01*
X470788Y178662D01*
X470801Y178675D01*
X470815Y178682D01*
X471102Y178887D01*
X471123Y178894D01*
X471129Y178867D01*
D02*
G37*
G36*
X464168Y174448D02*
X464212Y174437D01*
X464301Y174397D01*
X464315Y174390D01*
X464332Y174372D01*
X464349Y174349D01*
X464383Y174294D01*
X464397Y174260D01*
X464417Y174205D01*
X464434Y174161D01*
X464455Y174113D01*
X462743Y174109D01*
X462739Y174120D01*
X462773Y174195D01*
X462835Y174325D01*
X462842Y174338D01*
X462855Y174352D01*
X462862Y174366D01*
X462907Y174410D01*
X462968Y174444D01*
X463030Y174451D01*
X463050Y174458D01*
X463272Y174455D01*
X463580Y174441D01*
X463864Y174444D01*
X463884Y174451D01*
X464110Y174458D01*
X464116D01*
X464168Y174448D01*
D02*
G37*
G36*
X473638Y174786D02*
X473651Y174636D01*
X473662Y174502D01*
X473668Y174482D01*
X473665Y174444D01*
X473617Y174417D01*
X473569Y174383D01*
X473556Y174376D01*
X473546Y174366D01*
X473504Y174338D01*
X473419Y174273D01*
X473395Y174256D01*
X473262Y174157D01*
X473248Y174150D01*
X473200Y174116D01*
X473057Y174041D01*
X473009Y174021D01*
X472988Y174014D01*
X472852Y174007D01*
X472824Y174014D01*
X472777Y174021D01*
X472749Y174027D01*
X472701Y174041D01*
X472602Y174072D01*
X472565Y174082D01*
X472561Y174092D01*
X473105Y174485D01*
X473118Y174492D01*
X473132Y174506D01*
X473146Y174513D01*
X473241Y174581D01*
X473255Y174588D01*
X473269Y174601D01*
X473282Y174608D01*
X473296Y174622D01*
X473303D01*
X473316Y174636D01*
X473330Y174643D01*
X473617Y174848D01*
X473631Y174854D01*
X473638Y174786D01*
D02*
G37*
G36*
X463840Y172937D02*
X464086Y172930D01*
X464195Y172924D01*
X464328Y172913D01*
X464335D01*
X464363Y172906D01*
X464455Y172896D01*
X464482Y172889D01*
X464489Y172876D01*
X464509Y172807D01*
X464537Y172719D01*
X464544Y172691D01*
X464557Y172657D01*
X464554Y172640D01*
X463399Y172633D01*
X462367Y172640D01*
X462363Y172650D01*
X462384Y172719D01*
X462432Y172821D01*
X462438Y172835D01*
X462452Y172848D01*
X462459Y172862D01*
X462486Y172889D01*
X462527Y172917D01*
X462562Y172930D01*
X462589Y172937D01*
X462869Y172930D01*
X463556Y172934D01*
X463577Y172941D01*
X463840Y172937D01*
D02*
G37*
G36*
X464287Y171519D02*
X464335Y171512D01*
X464404Y171505D01*
X464410D01*
X464431Y171498D01*
X464479Y171485D01*
X464516Y171447D01*
X464540Y171409D01*
X464571Y171324D01*
X464598Y171228D01*
X462394Y171225D01*
X462397Y171242D01*
X462425Y171310D01*
X462479Y171427D01*
X462486Y171440D01*
X462517Y171471D01*
X462565Y171505D01*
X462627Y171512D01*
X462647Y171519D01*
X463187Y171526D01*
X463235Y171519D01*
X463652Y171512D01*
X464048Y171519D01*
X464116Y171526D01*
X464287Y171519D01*
D02*
G37*
G36*
X471618Y174482D02*
X471611Y174434D01*
X471604Y174407D01*
X471577Y174345D01*
X471563Y174331D01*
X471557Y174318D01*
X471519Y174280D01*
X471505Y174273D01*
X471488Y174256D01*
X471348Y174164D01*
X471334Y174157D01*
X471286Y174123D01*
X471273Y174116D01*
X471259Y174102D01*
X471245Y174096D01*
X471218Y174068D01*
X471157Y174021D01*
X471143Y174014D01*
X471129Y174000D01*
X471116Y173993D01*
X471102Y173979D01*
X471088Y173973D01*
X471075Y173959D01*
X471061Y173952D01*
X471047Y173939D01*
X471034Y173932D01*
X471003Y173908D01*
X470870Y173809D01*
X470866Y173805D01*
X470846Y173792D01*
X470760Y173727D01*
X470736Y173709D01*
X470651Y173645D01*
X470637Y173638D01*
X470623Y173624D01*
X470610Y173617D01*
X470596Y173604D01*
X470582Y173597D01*
X470569Y173583D01*
X470555Y173576D01*
X470497Y173532D01*
X470364Y173433D01*
X470340Y173416D01*
X470254Y173351D01*
X470230Y173334D01*
X470097Y173234D01*
X470073Y173217D01*
X469988Y173152D01*
X469964Y173135D01*
X469878Y173071D01*
X469865Y173064D01*
X469834Y173040D01*
X469749Y172975D01*
X469725Y172958D01*
X469591Y172859D01*
X469567Y172842D01*
X469482Y172776D01*
X469458Y172759D01*
X469373Y172695D01*
X469359Y172688D01*
X469345Y172674D01*
X469332Y172667D01*
X469318Y172653D01*
X469304Y172647D01*
X469291Y172633D01*
X469277Y172626D01*
X469263Y172613D01*
X469250Y172606D01*
X469236Y172592D01*
X469222Y172585D01*
X469212Y172575D01*
X469171Y172548D01*
X469086Y172483D01*
X469062Y172466D01*
X468976Y172401D01*
X468963Y172394D01*
X468949Y172380D01*
X468935Y172373D01*
X468922Y172360D01*
X468908Y172353D01*
X468894Y172339D01*
X468881Y172332D01*
X468867Y172319D01*
X468853Y172312D01*
X468840Y172298D01*
X468826Y172291D01*
X468812Y172278D01*
X468798Y172271D01*
X468788Y172260D01*
X468747Y172233D01*
X468662Y172168D01*
X468638Y172151D01*
X468505Y172052D01*
X468481Y172035D01*
X468347Y171936D01*
X468324Y171919D01*
X468238Y171854D01*
X468214Y171837D01*
X468081Y171738D01*
X468057Y171721D01*
X467972Y171656D01*
X467958Y171649D01*
X467944Y171635D01*
X467931Y171628D01*
X467917Y171615D01*
X467903Y171608D01*
X467889Y171594D01*
X467876Y171587D01*
X467862Y171574D01*
X467848Y171567D01*
X467835Y171553D01*
X467821Y171546D01*
X467807Y171533D01*
X467794Y171526D01*
X467773Y171505D01*
X467770Y171509D01*
X467736Y171570D01*
X467688Y171659D01*
X467599Y171830D01*
X467609Y171833D01*
X467657Y171868D01*
X467671Y171874D01*
X467712Y171902D01*
X467725Y171908D01*
X467773Y171943D01*
X467787Y171950D01*
X467835Y171984D01*
X467848Y171991D01*
X467896Y172025D01*
X467910Y172031D01*
X467958Y172066D01*
X467972Y172073D01*
X468019Y172107D01*
X468033Y172114D01*
X468081Y172148D01*
X468094Y172154D01*
X468142Y172189D01*
X468156Y172196D01*
X468204Y172230D01*
X468218Y172237D01*
X468265Y172271D01*
X468279Y172278D01*
X468327Y172312D01*
X468341Y172319D01*
X468388Y172353D01*
X468402Y172360D01*
X468450Y172394D01*
X468464Y172401D01*
X468511Y172435D01*
X468525Y172442D01*
X468573Y172476D01*
X468587Y172483D01*
X468635Y172517D01*
X468648Y172524D01*
X468696Y172558D01*
X468710Y172565D01*
X468757Y172599D01*
X468771Y172606D01*
X468785Y172619D01*
X468798Y172626D01*
X468846Y172660D01*
X468860Y172667D01*
X468908Y172701D01*
X468922Y172708D01*
X468969Y172742D01*
X468983Y172749D01*
X469031Y172783D01*
X469045Y172790D01*
X469093Y172824D01*
X469106Y172831D01*
X469154Y172865D01*
X469168Y172872D01*
X469181Y172886D01*
X469195Y172893D01*
X469243Y172927D01*
X469256Y172934D01*
X469304Y172968D01*
X469318Y172975D01*
X469366Y173009D01*
X469380Y173016D01*
X469427Y173050D01*
X469441Y173057D01*
X469489Y173091D01*
X469502Y173098D01*
X469550Y173132D01*
X469564Y173139D01*
X469574Y173149D01*
X470805Y173969D01*
X470859Y174003D01*
X471064Y174140D01*
X471119Y174174D01*
X471259Y174267D01*
X471273Y174273D01*
X471321Y174308D01*
X471369Y174335D01*
X471416Y174369D01*
X471430Y174376D01*
X471478Y174410D01*
X471492Y174417D01*
X471533Y174444D01*
X471546Y174451D01*
X471594Y174485D01*
X471615Y174492D01*
X471618Y174482D01*
D02*
G37*
G36*
X460795Y171430D02*
X460808Y171375D01*
X460819Y171310D01*
X460825Y171290D01*
X460832Y171112D01*
X460825Y171064D01*
X460819Y170975D01*
X460812Y170948D01*
X460791Y170832D01*
X460784Y170805D01*
X460757Y170709D01*
X460699Y170528D01*
X460672Y170453D01*
X460651Y170398D01*
X460624Y170330D01*
X460603Y170275D01*
X460590Y170241D01*
X460572Y170196D01*
X460545Y170128D01*
X460538Y170101D01*
X463816Y170097D01*
X464766D01*
X464916Y170090D01*
X465012Y170077D01*
X465039Y170070D01*
X465087Y170056D01*
X465108Y170015D01*
X465121Y169981D01*
X465159Y169875D01*
X465172Y169841D01*
X465179Y169800D01*
X461700Y169793D01*
X461577Y169786D01*
X461502Y169779D01*
X461441Y169773D01*
X461492Y169755D01*
X461529Y169745D01*
X461639Y169718D01*
X461673Y169711D01*
X461755Y169697D01*
X461810Y169691D01*
X461953Y169684D01*
X462124Y169677D01*
X462514Y169663D01*
X462739Y169656D01*
X463238Y169643D01*
X463471Y169636D01*
X463689Y169629D01*
X464065Y169615D01*
X464346Y169602D01*
X464581Y169591D01*
X464609Y169585D01*
X464810Y169574D01*
X464899Y169568D01*
X464995Y169561D01*
X465070Y169554D01*
X465152Y169547D01*
X465227Y169540D01*
X465432Y169520D01*
X465494Y169513D01*
X465531Y169502D01*
X465600Y169475D01*
X465654Y169441D01*
X465668Y169434D01*
X465716Y169400D01*
X465730Y169393D01*
X465740Y169383D01*
X465781Y169356D01*
X465788Y169342D01*
X465754Y169328D01*
X465689Y169304D01*
X465661Y169298D01*
X465641Y169291D01*
X460323Y169284D01*
X459127Y169291D01*
X459130Y169308D01*
X459151Y169328D01*
X459158Y169342D01*
X459171Y169356D01*
X459178Y169369D01*
X459192Y169383D01*
X459199Y169397D01*
X459219Y169417D01*
X459226Y169431D01*
X459240Y169444D01*
X459246Y169458D01*
X459260Y169472D01*
X459267Y169485D01*
X459288Y169506D01*
X459294Y169520D01*
X459308Y169533D01*
X459315Y169547D01*
X459329Y169561D01*
X459335Y169574D01*
X459356Y169595D01*
X459363Y169608D01*
X459376Y169622D01*
X459383Y169636D01*
X459397Y169650D01*
X459404Y169663D01*
X459417Y169677D01*
X459424Y169691D01*
X459445Y169711D01*
X459452Y169725D01*
X459465Y169738D01*
X459472Y169752D01*
X459486Y169766D01*
X459493Y169779D01*
X459513Y169800D01*
X459520Y169814D01*
X459534Y169827D01*
X459540Y169841D01*
X459554Y169854D01*
X459561Y169868D01*
X459581Y169889D01*
X459588Y169902D01*
X459602Y169916D01*
X459609Y169930D01*
X459622Y169943D01*
X459629Y169957D01*
X459650Y169978D01*
X459657Y169991D01*
X459670Y170005D01*
X459677Y170019D01*
X459691Y170032D01*
X459698Y170046D01*
X459718Y170066D01*
X459725Y170080D01*
X459739Y170094D01*
X459746Y170107D01*
X459759Y170121D01*
X459766Y170135D01*
X459787Y170155D01*
X459793Y170169D01*
X459807Y170183D01*
X459814Y170196D01*
X459828Y170210D01*
X459834Y170224D01*
X459855Y170244D01*
X459862Y170258D01*
X459875Y170272D01*
X459882Y170285D01*
X459896Y170299D01*
X459903Y170312D01*
X459923Y170333D01*
X459930Y170347D01*
X459944Y170360D01*
X459950Y170374D01*
X459964Y170388D01*
X459971Y170401D01*
X459992Y170422D01*
X459998Y170436D01*
X460012Y170449D01*
X460019Y170463D01*
X460033Y170476D01*
X460039Y170490D01*
X460060Y170511D01*
X460067Y170524D01*
X460080Y170538D01*
X460087Y170552D01*
X460101Y170565D01*
X460108Y170579D01*
X460128Y170600D01*
X460135Y170613D01*
X460149Y170627D01*
X460156Y170641D01*
X460169Y170654D01*
X460176Y170668D01*
X460197Y170688D01*
X460203Y170702D01*
X460217Y170716D01*
X460224Y170729D01*
X460238Y170743D01*
X460244Y170757D01*
X460265Y170777D01*
X460272Y170791D01*
X460285Y170805D01*
X460292Y170818D01*
X460306Y170832D01*
X460313Y170846D01*
X460333Y170866D01*
X460340Y170880D01*
X460354Y170894D01*
X460361Y170907D01*
X460381Y170928D01*
X460388Y170941D01*
X460402Y170955D01*
X460408Y170969D01*
X460429Y170989D01*
X460436Y171003D01*
X460450Y171017D01*
X460456Y171030D01*
X460477Y171051D01*
X460484Y171064D01*
X460497Y171078D01*
X460504Y171092D01*
X460525Y171112D01*
X460532Y171126D01*
X460545Y171140D01*
X460552Y171153D01*
X460572Y171174D01*
X460579Y171187D01*
X460593Y171201D01*
X460600Y171215D01*
X460620Y171235D01*
X460627Y171249D01*
X460641Y171263D01*
X460648Y171276D01*
X460668Y171297D01*
X460675Y171310D01*
X460689Y171324D01*
X460696Y171338D01*
X460716Y171358D01*
X460723Y171372D01*
X460737Y171386D01*
X460743Y171399D01*
X460764Y171420D01*
X460771Y171433D01*
X460788Y171450D01*
X460795Y171430D01*
D02*
G37*
G36*
X472281Y172719D02*
X472261Y172671D01*
X472247Y172657D01*
X472240Y172643D01*
X472202Y172613D01*
X472141Y172565D01*
X471984Y172449D01*
X471970Y172442D01*
X471960Y172431D01*
X471919Y172404D01*
X471690Y172237D01*
X471676Y172230D01*
X471666Y172220D01*
X471625Y172192D01*
X471396Y172025D01*
X471382Y172018D01*
X471372Y172008D01*
X471331Y171980D01*
X471150Y171847D01*
X471136Y171840D01*
X471126Y171830D01*
X471085Y171802D01*
X470856Y171635D01*
X470842Y171628D01*
X470832Y171618D01*
X470791Y171591D01*
X470562Y171423D01*
X470548Y171416D01*
X470538Y171406D01*
X470497Y171379D01*
X470268Y171211D01*
X470254Y171204D01*
X470244Y171194D01*
X470203Y171167D01*
X469974Y170999D01*
X469960Y170993D01*
X469950Y170982D01*
X469909Y170955D01*
X469728Y170822D01*
X469714Y170815D01*
X469704Y170805D01*
X469663Y170777D01*
X469482Y170644D01*
X469468Y170637D01*
X469458Y170627D01*
X469417Y170600D01*
X469284Y170501D01*
X469270Y170494D01*
X469260Y170483D01*
X469219Y170456D01*
X469038Y170323D01*
X469024Y170316D01*
X469014Y170306D01*
X468973Y170278D01*
X468744Y170111D01*
X468730Y170104D01*
X468716Y170090D01*
X468703Y170083D01*
X468693Y170073D01*
X468652Y170046D01*
X468470Y169913D01*
X468457Y169906D01*
X468446Y169896D01*
X468405Y169868D01*
X468177Y169701D01*
X468163Y169694D01*
X468149Y169680D01*
X468135Y169673D01*
X468125Y169663D01*
X468084Y169636D01*
X467903Y169502D01*
X467889Y169496D01*
X467879Y169485D01*
X467838Y169458D01*
X467609Y169291D01*
X467596Y169284D01*
X467582Y169270D01*
X467568Y169263D01*
X467555Y169250D01*
X467541Y169243D01*
X467531Y169232D01*
X467527Y169229D01*
X467517Y169226D01*
X467336Y169092D01*
X467322Y169086D01*
X467305Y169116D01*
X467264Y169192D01*
X467230Y169246D01*
X467175Y169342D01*
X467134Y169417D01*
X467107Y169458D01*
X467110Y169475D01*
X467148Y169499D01*
X467189Y169527D01*
X467244Y169561D01*
X467285Y169588D01*
X467339Y169622D01*
X467380Y169650D01*
X467435Y169684D01*
X467476Y169711D01*
X467531Y169745D01*
X467572Y169773D01*
X467626Y169807D01*
X467667Y169834D01*
X467722Y169868D01*
X467763Y169896D01*
X467818Y169930D01*
X467859Y169957D01*
X467913Y169991D01*
X467954Y170019D01*
X468009Y170053D01*
X468050Y170080D01*
X468105Y170114D01*
X468146Y170142D01*
X468200Y170176D01*
X468242Y170203D01*
X468296Y170237D01*
X468337Y170265D01*
X468412Y170312D01*
X468453Y170340D01*
X468529Y170388D01*
X468570Y170415D01*
X468645Y170463D01*
X468686Y170490D01*
X468761Y170538D01*
X468802Y170565D01*
X468877Y170613D01*
X468918Y170641D01*
X468993Y170688D01*
X469034Y170716D01*
X469109Y170764D01*
X469150Y170791D01*
X469226Y170839D01*
X469267Y170866D01*
X469321Y170900D01*
X469362Y170928D01*
X469438Y170975D01*
X469479Y171003D01*
X469554Y171051D01*
X469595Y171078D01*
X469670Y171126D01*
X469711Y171153D01*
X469766Y171187D01*
X469807Y171215D01*
X469861Y171249D01*
X469902Y171276D01*
X469957Y171310D01*
X469998Y171338D01*
X470053Y171372D01*
X470094Y171399D01*
X470149Y171433D01*
X470190Y171461D01*
X470244Y171495D01*
X470285Y171522D01*
X470340Y171556D01*
X470381Y171584D01*
X470435Y171618D01*
X470477Y171645D01*
X470531Y171679D01*
X470572Y171707D01*
X470627Y171741D01*
X470917Y171929D01*
X470931Y171936D01*
X470979Y171970D01*
X470993Y171977D01*
X471034Y172004D01*
X471081Y172031D01*
X471129Y172066D01*
X471143Y172073D01*
X471184Y172100D01*
X471232Y172127D01*
X471280Y172161D01*
X471293Y172168D01*
X471334Y172196D01*
X471382Y172223D01*
X471430Y172257D01*
X471444Y172264D01*
X471485Y172291D01*
X471498Y172298D01*
X471539Y172325D01*
X471587Y172353D01*
X471635Y172387D01*
X471649Y172394D01*
X471724Y172442D01*
X471772Y172469D01*
X471820Y172503D01*
X471833Y172510D01*
X471909Y172558D01*
X471956Y172585D01*
X472004Y172619D01*
X472018Y172626D01*
X472059Y172653D01*
X472073Y172660D01*
X472114Y172688D01*
X472127Y172695D01*
X472168Y172722D01*
X472182Y172729D01*
X472223Y172756D01*
X472237Y172763D01*
X472250Y172776D01*
X472278Y172783D01*
X472281Y172719D01*
D02*
G37*
%LPC*%
G36*
X470234Y198080D02*
X470230Y198077D01*
X470234Y198073D01*
X470237Y198077D01*
X470234Y198080D01*
D02*
G37*
G36*
X459236Y199570D02*
X459175Y199563D01*
X459127Y199556D01*
X459079Y199543D01*
X459045Y199529D01*
X458997Y199509D01*
X458942Y199474D01*
X458929Y199468D01*
X458918Y199457D01*
X458877Y199430D01*
X458792Y199365D01*
X458778Y199358D01*
X458765Y199345D01*
X458751Y199338D01*
X458737Y199324D01*
X458724Y199317D01*
X458710Y199303D01*
X458696Y199297D01*
X458683Y199283D01*
X458669Y199276D01*
X458655Y199262D01*
X458642Y199256D01*
X458621Y199235D01*
X458607Y199228D01*
X458587Y199208D01*
X458573Y199201D01*
X458560Y199187D01*
X458546Y199180D01*
X458525Y199160D01*
X458512Y199153D01*
X458491Y199133D01*
X458478Y199126D01*
X458450Y199098D01*
X458436Y199092D01*
X458409Y199064D01*
X458395Y199057D01*
X458368Y199030D01*
X458355Y199023D01*
X458320Y198989D01*
X458307Y198982D01*
X458273Y198948D01*
X458259Y198941D01*
X458197Y198880D01*
X458184Y198873D01*
X458129Y198818D01*
X458115Y198811D01*
X457852Y198548D01*
X457845Y198535D01*
X457763Y198452D01*
X457757Y198439D01*
X457709Y198391D01*
X457702Y198377D01*
X457674Y198350D01*
X457668Y198336D01*
X457640Y198309D01*
X457633Y198295D01*
X457606Y198268D01*
X457599Y198254D01*
X457579Y198234D01*
X457572Y198220D01*
X457558Y198206D01*
X457551Y198193D01*
X457538Y198179D01*
X457521Y198155D01*
X457387Y197974D01*
X457380Y197960D01*
X457295Y197841D01*
X457230Y197755D01*
X457223Y197742D01*
X457196Y197714D01*
X457189Y197701D01*
X457162Y197673D01*
X457155Y197660D01*
X457128Y197632D01*
X457121Y197619D01*
X457001Y197499D01*
X456994Y197506D01*
X456987Y197540D01*
X456981Y197567D01*
X456967Y197636D01*
X456960Y197663D01*
X456953Y197697D01*
X456888Y198015D01*
X456878Y198053D01*
X456834Y198008D01*
X456827Y197995D01*
X456772Y197940D01*
X456765Y197926D01*
X456704Y197865D01*
X456697Y197851D01*
X456636Y197790D01*
X456629Y197776D01*
X456560Y197707D01*
X456554Y197694D01*
X456492Y197632D01*
X456485Y197619D01*
X456424Y197557D01*
X456417Y197544D01*
X456362Y197489D01*
X456355Y197475D01*
X456314Y197434D01*
X456307Y197420D01*
X456273Y197386D01*
X456266Y197373D01*
X456239Y197345D01*
X456232Y197332D01*
X456205Y197304D01*
X456198Y197291D01*
X456178Y197270D01*
X456160Y197246D01*
X456130Y197208D01*
X456082Y197147D01*
X456065Y197123D01*
X455966Y196990D01*
X455959Y196976D01*
X455945Y196962D01*
X455938Y196949D01*
X455904Y196901D01*
X455897Y196887D01*
X455863Y196839D01*
X455856Y196826D01*
X455822Y196778D01*
X455815Y196764D01*
X455781Y196716D01*
X455774Y196703D01*
X455723Y196631D01*
X455675Y196556D01*
X455484Y196269D01*
X455450Y196214D01*
X455368Y196091D01*
X455320Y196016D01*
X455292Y195975D01*
X455200Y195835D01*
X455193Y195821D01*
X455159Y195773D01*
X455152Y195759D01*
X455118Y195712D01*
X455091Y195664D01*
X455057Y195616D01*
X455050Y195602D01*
X455016Y195554D01*
X455009Y195541D01*
X454975Y195493D01*
X454968Y195479D01*
X454934Y195431D01*
X454927Y195418D01*
X454893Y195370D01*
X454865Y195322D01*
X454831Y195274D01*
X454824Y195261D01*
X454790Y195213D01*
X454783Y195199D01*
X454749Y195151D01*
X454742Y195138D01*
X454708Y195090D01*
X454701Y195076D01*
X454667Y195028D01*
X454660Y195015D01*
X454626Y194967D01*
X454619Y194953D01*
X454585Y194905D01*
X454578Y194892D01*
X454544Y194844D01*
X454537Y194830D01*
X454503Y194782D01*
X454496Y194768D01*
X454428Y194673D01*
X454421Y194659D01*
X454353Y194563D01*
X454346Y194550D01*
X454312Y194502D01*
X454305Y194488D01*
X454291Y194474D01*
X454284Y194461D01*
X454216Y194365D01*
X454209Y194351D01*
X454175Y194304D01*
X454168Y194290D01*
X454134Y194242D01*
X454079Y194140D01*
X454069Y194129D01*
X454014Y194006D01*
X453994Y193952D01*
X453949Y193825D01*
X453939Y193788D01*
X453912Y193678D01*
X453898Y193610D01*
X453877Y193487D01*
X453867Y193388D01*
X453861Y193367D01*
X453854Y193203D01*
X453847Y193183D01*
X453850Y192571D01*
X453857Y190479D01*
X453905Y190514D01*
X453919Y190520D01*
X453960Y190548D01*
X453973Y190555D01*
X453987Y190568D01*
X454001Y190575D01*
X454014Y190589D01*
X454028Y190596D01*
X454042Y190609D01*
X454055Y190616D01*
X454083Y190644D01*
X454096Y190650D01*
X454243Y190797D01*
X454250Y190811D01*
X454271Y190831D01*
X454277Y190845D01*
X454298Y190866D01*
X454305Y190879D01*
X454339Y190927D01*
X454404Y191047D01*
X454418Y191081D01*
X454452Y191177D01*
X454459Y191204D01*
X454469Y191262D01*
X454476Y191282D01*
X454483Y191570D01*
X454476Y191884D01*
X454469Y191904D01*
X454462Y192322D01*
X454469Y192451D01*
X455730Y192455D01*
X457938D01*
X457941Y193121D01*
X454776Y193128D01*
X454790Y193155D01*
X454927Y193463D01*
X454961Y193538D01*
X455009Y193641D01*
X455091Y193818D01*
X455474Y194591D01*
X455583Y194796D01*
X455644Y194912D01*
X455884Y195343D01*
X455918Y195397D01*
X455945Y195445D01*
X455979Y195507D01*
X456013Y195561D01*
X456041Y195609D01*
X456048Y195623D01*
X456075Y195664D01*
X456082Y195677D01*
X456116Y195732D01*
X456123Y195746D01*
X456150Y195787D01*
X456157Y195800D01*
X456191Y195855D01*
X456198Y195869D01*
X456225Y195910D01*
X456232Y195924D01*
X456328Y196074D01*
X456335Y196088D01*
X456369Y196135D01*
X456376Y196149D01*
X456403Y196190D01*
X456430Y196238D01*
X456465Y196286D01*
X456471Y196300D01*
X456506Y196347D01*
X456512Y196361D01*
X456547Y196409D01*
X456554Y196423D01*
X456588Y196470D01*
X456595Y196484D01*
X456663Y196580D01*
X456670Y196593D01*
X456704Y196641D01*
X456711Y196655D01*
X456724Y196669D01*
X456731Y196682D01*
X456987Y197041D01*
X457053Y197126D01*
X457069Y197151D01*
X457134Y197236D01*
X457141Y197249D01*
X457155Y197263D01*
X457162Y197277D01*
X457182Y197297D01*
X457189Y197311D01*
X457210Y197332D01*
X457217Y197345D01*
X457230Y197359D01*
X457237Y197373D01*
X457258Y197393D01*
X457264Y197407D01*
X457278Y197420D01*
X457285Y197434D01*
X457305Y197455D01*
X457312Y197468D01*
X457326Y197482D01*
X457333Y197496D01*
X457353Y197516D01*
X457360Y197530D01*
X457380Y197550D01*
X457387Y197564D01*
X457401Y197578D01*
X457408Y197591D01*
X457435Y197619D01*
X457442Y197632D01*
X457469Y197660D01*
X457476Y197673D01*
X457497Y197694D01*
X457504Y197707D01*
X457531Y197735D01*
X457538Y197748D01*
X457558Y197769D01*
X457565Y197783D01*
X457592Y197810D01*
X457599Y197824D01*
X457627Y197851D01*
X457633Y197865D01*
X457654Y197885D01*
X457661Y197899D01*
X457702Y197940D01*
X457709Y197954D01*
X457743Y197988D01*
X457750Y198001D01*
X457791Y198042D01*
X457797Y198056D01*
X457832Y198090D01*
X457838Y198104D01*
X457879Y198145D01*
X457886Y198159D01*
X457927Y198200D01*
X457934Y198213D01*
X457996Y198275D01*
X458003Y198289D01*
X458071Y198357D01*
X458078Y198371D01*
X458139Y198432D01*
X458146Y198446D01*
X458201Y198500D01*
X458208Y198514D01*
X458255Y198562D01*
X458262Y198576D01*
X458310Y198623D01*
X458317Y198637D01*
X458676Y198996D01*
X458689Y199003D01*
X458819Y199133D01*
X458833Y199139D01*
X458963Y199269D01*
X458977Y199276D01*
X459246Y199546D01*
X459253Y199560D01*
X459236Y199570D01*
D02*
G37*
G36*
X464185Y197253D02*
X464137Y197246D01*
X464089Y197232D01*
X464041Y197212D01*
X463857Y197096D01*
X463843Y197089D01*
X463840Y196928D01*
X463850Y196918D01*
X463864Y196911D01*
X463884Y196891D01*
X463898Y196884D01*
X463932Y196850D01*
X463946Y196843D01*
X463966Y196822D01*
X463980Y196816D01*
X463994Y196802D01*
X464007Y196795D01*
X464021Y196781D01*
X464123Y196727D01*
X464212Y196720D01*
X464240Y196727D01*
X464287Y196740D01*
X464349Y196768D01*
X464393Y196812D01*
X464434Y196887D01*
X464441Y197003D01*
X464428Y197058D01*
X464407Y197106D01*
X464393Y197120D01*
X464387Y197133D01*
X464366Y197154D01*
X464363Y197157D01*
X464349Y197164D01*
X464322Y197192D01*
X464308Y197198D01*
X464287Y197219D01*
X464240Y197246D01*
X464185Y197253D01*
D02*
G37*
G36*
X469509Y197226D02*
X469339Y197055D01*
X469308Y197017D01*
X469321Y197003D01*
X469328Y196990D01*
X469342Y196976D01*
X469349Y196962D01*
X469362Y196949D01*
X469369Y196935D01*
X469390Y196915D01*
X469397Y196901D01*
X469410Y196887D01*
X469417Y196874D01*
X469438Y196853D01*
X469444Y196839D01*
X469472Y196812D01*
X469479Y196798D01*
X469506Y196771D01*
X469513Y196757D01*
X469533Y196737D01*
X469540Y196723D01*
X469557Y196706D01*
X469571Y196699D01*
X469574Y196710D01*
X469595Y196730D01*
Y196737D01*
X469745Y196942D01*
X469752Y196956D01*
X469766Y196969D01*
X469772Y196990D01*
X469653Y197109D01*
X469639Y197116D01*
X469598Y197157D01*
X469585Y197164D01*
X469561Y197188D01*
X469523Y197219D01*
X469509Y197226D01*
D02*
G37*
G36*
X469045Y196665D02*
X469014Y196662D01*
X468969Y196651D01*
X468915Y196617D01*
X468901Y196610D01*
X468881Y196590D01*
X468867Y196583D01*
X468833Y196549D01*
X468819Y196542D01*
X468798Y196522D01*
X468785Y196515D01*
X468771Y196501D01*
X468757Y196494D01*
X468747Y196484D01*
X468792Y196460D01*
X468846Y196426D01*
X469038Y196317D01*
X469048Y196327D01*
X469051Y196330D01*
X469055Y196334D01*
X469062Y196347D01*
X469089Y196375D01*
X469096Y196388D01*
X469123Y196416D01*
X469130Y196429D01*
X469144Y196443D01*
X469171Y196491D01*
X469178Y196532D01*
X469164Y196580D01*
X469130Y196614D01*
X469093Y196645D01*
X469079Y196651D01*
X469045Y196665D01*
D02*
G37*
G36*
X467541Y196733D02*
X467411Y196645D01*
X467397Y196638D01*
X467384Y196624D01*
X467370Y196617D01*
X467356Y196604D01*
X467343Y196597D01*
X467322Y196576D01*
X467309Y196570D01*
X467295Y196556D01*
X467281Y196549D01*
X467261Y196528D01*
X467247Y196522D01*
X467233Y196508D01*
X467220Y196501D01*
X467196Y196477D01*
X467203Y196470D01*
X467431Y196303D01*
X467445Y196296D01*
X467449Y196293D01*
X467479Y196275D01*
X467520Y196248D01*
X467548Y196241D01*
X467596Y196248D01*
X467657Y196275D01*
X467671Y196282D01*
X467756Y196368D01*
X467763Y196381D01*
X467777Y196395D01*
X467783Y196409D01*
X467804Y196429D01*
X467797Y196477D01*
X467777Y196525D01*
X467749Y196566D01*
X467742Y196580D01*
X467684Y196638D01*
X467661Y196655D01*
X467623Y196686D01*
X467609Y196693D01*
X467561Y196727D01*
X467541Y196733D01*
D02*
G37*
G36*
X470617Y197082D02*
X470589Y197075D01*
X470541Y197068D01*
X470487Y197055D01*
X470453Y197041D01*
X470323Y196980D01*
X470275Y196952D01*
X470261Y196939D01*
X470248Y196932D01*
X470220Y196904D01*
X470207Y196898D01*
X470155Y196846D01*
X470149Y196833D01*
X470138Y196822D01*
X470073Y196737D01*
X470032Y196662D01*
X470015Y196624D01*
X469995Y196570D01*
X469984Y196525D01*
X469978Y196504D01*
X469971Y196381D01*
X469978Y196293D01*
X470005Y196197D01*
X470019Y196163D01*
X470046Y196101D01*
X470080Y196053D01*
X470087Y196040D01*
X470101Y196026D01*
X470107Y196012D01*
X470186Y195934D01*
X470248Y195886D01*
X470285Y195862D01*
X470289Y195859D01*
X470309Y195845D01*
X470374Y195814D01*
X470408Y195800D01*
X470473Y195777D01*
X470494Y195770D01*
X470548Y195763D01*
X470569Y195756D01*
X470723Y195759D01*
X470764Y195766D01*
X470818Y195780D01*
X470863Y195797D01*
X470938Y195831D01*
X470952Y195838D01*
X470993Y195865D01*
X471006Y195872D01*
X471020Y195886D01*
X471034Y195893D01*
X471061Y195920D01*
X471075Y195927D01*
X471126Y195978D01*
X471133Y195992D01*
X471143Y196002D01*
X471208Y196088D01*
X471263Y196190D01*
X471290Y196258D01*
X471304Y196306D01*
X471310Y196327D01*
X471317Y196416D01*
X471324Y196443D01*
X471310Y196580D01*
X471290Y196655D01*
X471256Y196730D01*
X471222Y196792D01*
X471208Y196805D01*
X471201Y196819D01*
X471187Y196833D01*
X471181Y196846D01*
X471119Y196908D01*
X471034Y196973D01*
X470931Y197027D01*
X470863Y197055D01*
X470815Y197068D01*
X470794Y197075D01*
X470617Y197082D01*
D02*
G37*
G36*
X462893Y195783D02*
X462838Y195770D01*
X462777Y195742D01*
X462763Y195729D01*
X462749Y195722D01*
X462739Y195712D01*
X462691Y195650D01*
X462664Y195602D01*
Y195596D01*
X462657Y195582D01*
X462650Y195479D01*
X462657Y195452D01*
X462664Y195431D01*
X462671Y195404D01*
X462705Y195356D01*
X462732Y195308D01*
X462739Y195295D01*
X462753Y195281D01*
X462790Y195250D01*
X462838Y195223D01*
X462900Y195216D01*
X462920Y195209D01*
X463016Y195223D01*
X463050Y195237D01*
X463112Y195264D01*
X463132Y195284D01*
X463146Y195291D01*
X463163Y195308D01*
X463170Y195322D01*
X463183Y195336D01*
X463218Y195397D01*
X463228Y195455D01*
X463225Y195513D01*
X463207Y195558D01*
X463194Y195592D01*
X463166Y195633D01*
X463136Y195671D01*
X463050Y195736D01*
X462975Y195777D01*
X462893Y195783D01*
D02*
G37*
G36*
X465675Y193911D02*
X465620Y193856D01*
X465606Y193849D01*
X465501Y193743D01*
X465514Y193716D01*
X465528Y193702D01*
X465535Y193688D01*
X465555Y193668D01*
X465562Y193654D01*
X465583Y193634D01*
X465590Y193620D01*
X465610Y193600D01*
X465617Y193586D01*
X465637Y193565D01*
X465644Y193552D01*
X465671Y193524D01*
X465678Y193511D01*
X465699Y193490D01*
X465706Y193477D01*
X465716Y193473D01*
X465774Y193531D01*
X465781Y193545D01*
X465836Y193600D01*
X465842Y193613D01*
X465901Y193671D01*
X465904Y193675D01*
Y193682D01*
X465931Y193709D01*
X465921Y193719D01*
X465907Y193726D01*
X465887Y193747D01*
X465873Y193753D01*
X465853Y193774D01*
X465839Y193781D01*
X465825Y193794D01*
X465812Y193801D01*
X465798Y193815D01*
X465774Y193832D01*
X465736Y193863D01*
X465675Y193911D01*
D02*
G37*
G36*
X460651Y193125D02*
X460648Y192472D01*
X466010Y192468D01*
X466013Y192608D01*
Y192615D01*
Y193121D01*
X460651Y193125D01*
D02*
G37*
G36*
X461362Y192188D02*
X461314Y192181D01*
X461225Y192154D01*
X461174Y192123D01*
X461136Y192093D01*
X461106Y192055D01*
X461065Y191980D01*
X461051Y191946D01*
X461044Y191802D01*
X461051Y191754D01*
X461065Y191706D01*
X461119Y191590D01*
X461140Y191570D01*
X461147Y191556D01*
X461157Y191546D01*
X461171Y191539D01*
X461198Y191511D01*
X461301Y191457D01*
X461451Y191450D01*
X461519Y191457D01*
X461608Y191498D01*
X461622Y191505D01*
X461663Y191546D01*
X461697Y191587D01*
X461731Y191641D01*
X461762Y191727D01*
Y191734D01*
X461769Y191761D01*
X461775Y191809D01*
X461769Y191898D01*
X461755Y191952D01*
X461721Y192027D01*
X461714Y192041D01*
X461700Y192055D01*
X461693Y192069D01*
X461683Y192072D01*
X461649Y192106D01*
X461533Y192168D01*
X461499Y192181D01*
X461362Y192188D01*
D02*
G37*
G36*
X455156Y192222D02*
X455087Y192216D01*
X455040Y192202D01*
X454992Y192181D01*
X454957Y192161D01*
X454944Y192154D01*
X454930Y192140D01*
X454923D01*
X454910Y192127D01*
X454886Y192110D01*
X454879Y192096D01*
X454845Y192062D01*
X454838Y192048D01*
X454824Y192034D01*
X454783Y191959D01*
X454770Y191925D01*
X454763Y191904D01*
X454756Y191768D01*
X454770Y191713D01*
X454790Y191645D01*
X454817Y191604D01*
X454824Y191590D01*
X454882Y191532D01*
X454906Y191515D01*
X454961Y191481D01*
X455026Y191457D01*
X455046Y191450D01*
X455190Y191443D01*
X455217Y191450D01*
X455265Y191464D01*
X455327Y191491D01*
X455340Y191505D01*
X455354Y191511D01*
X455374Y191532D01*
X455388Y191539D01*
X455429Y191580D01*
X455460Y191618D01*
X455467Y191631D01*
X455477Y191641D01*
X455491Y191675D01*
X455515Y191741D01*
X455521Y191761D01*
X455528Y191850D01*
X455521Y191918D01*
X455511Y191956D01*
X455504Y191983D01*
X455487Y192027D01*
X455460Y192069D01*
X455453Y192082D01*
X455395Y192140D01*
X455292Y192195D01*
X455258Y192209D01*
X455238Y192216D01*
X455156Y192222D01*
D02*
G37*
G36*
X464739Y192181D02*
X464643Y192168D01*
X464609Y192154D01*
X464561Y192133D01*
X464520Y192106D01*
X464506Y192099D01*
X464441Y192034D01*
X464434Y192021D01*
X464421Y192007D01*
X464393Y191959D01*
X464383Y191935D01*
X464369Y191901D01*
X464359Y191850D01*
X464352Y191829D01*
X464356Y191758D01*
X464363Y191723D01*
X464373Y191679D01*
X464407Y191604D01*
X464414Y191590D01*
X464434Y191570D01*
X464441Y191556D01*
X464451Y191546D01*
X464465Y191539D01*
X464475Y191529D01*
X464479Y191525D01*
X464506Y191505D01*
X464581Y191464D01*
X464609Y191457D01*
X464643Y191443D01*
X464745Y191436D01*
X464773Y191443D01*
X464820Y191450D01*
X464909Y191491D01*
X464923Y191498D01*
X464971Y191546D01*
X465002Y191583D01*
X465036Y191645D01*
X465050Y191679D01*
X465056Y191706D01*
X465063Y191727D01*
X465060Y191887D01*
X465050Y191932D01*
X465002Y192034D01*
X464995Y192048D01*
X464974Y192069D01*
X464967Y192082D01*
X464950Y192099D01*
X464937Y192106D01*
X464926Y192116D01*
X464872Y192151D01*
X464827Y192168D01*
X464807Y192174D01*
X464739Y192181D01*
D02*
G37*
G36*
X456721Y192297D02*
X456673Y192291D01*
X456605Y192270D01*
X456557Y192250D01*
X456543Y192243D01*
X456502Y192216D01*
X456489Y192209D01*
X456427Y192147D01*
X456396Y192110D01*
X456348Y192021D01*
X456335Y191987D01*
X456328Y191932D01*
X456321Y191904D01*
Y191898D01*
Y191843D01*
X456328Y191795D01*
X456335Y191768D01*
X456348Y191720D01*
X456362Y191686D01*
X456390Y191645D01*
X456396Y191631D01*
X456410Y191618D01*
X456417Y191604D01*
X456461Y191559D01*
X456485Y191542D01*
X456523Y191511D01*
X456598Y191471D01*
X456625Y191464D01*
X456659Y191450D01*
X456714Y191443D01*
X456735Y191436D01*
X456803Y191443D01*
X456858Y191457D01*
X456960Y191505D01*
X456974Y191518D01*
X456987Y191525D01*
X457022Y191559D01*
X457046Y191576D01*
X457053Y191590D01*
X457073Y191611D01*
X457090Y191635D01*
X457124Y191689D01*
X457145Y191730D01*
X457162Y191775D01*
X457169Y191795D01*
X457175Y191843D01*
X457182Y191864D01*
X457175Y191952D01*
X457169Y191980D01*
X457128Y192069D01*
X457121Y192082D01*
X457059Y192144D01*
X457053Y192157D01*
X457035Y192174D01*
X457022Y192181D01*
X457001Y192202D01*
X456987Y192209D01*
X456974Y192222D01*
X456871Y192277D01*
X456837Y192291D01*
X456721Y192297D01*
D02*
G37*
G36*
X465689Y192154D02*
X465641Y192147D01*
X465586Y192133D01*
X465497Y192093D01*
X465484Y192086D01*
X465425Y192027D01*
X465391Y191980D01*
X465384Y191966D01*
X465371Y191932D01*
X465364Y191911D01*
X465357Y191747D01*
X465371Y191693D01*
X465412Y191604D01*
X465419Y191590D01*
X465432Y191576D01*
X465439Y191563D01*
X465477Y191525D01*
X465490Y191518D01*
X465504Y191505D01*
X465606Y191450D01*
X465641Y191436D01*
X465750Y191429D01*
X465832Y191443D01*
X465880Y191457D01*
X465928Y191477D01*
X465941Y191491D01*
X465955Y191498D01*
X465982Y191525D01*
X466013Y191563D01*
X466054Y191638D01*
X466068Y191672D01*
X466075Y191693D01*
X466082Y191754D01*
X466088Y191781D01*
X466082Y191870D01*
X466068Y191925D01*
X466027Y192014D01*
X466020Y192027D01*
X465962Y192086D01*
X465948Y192093D01*
X465907Y192120D01*
X465901D01*
X465818Y192147D01*
X465689Y192154D01*
D02*
G37*
G36*
X458348Y193432D02*
X458344Y190134D01*
Y190127D01*
Y190079D01*
X460173Y190076D01*
X460176Y193429D01*
X458348Y193432D01*
D02*
G37*
G36*
X465764Y190158D02*
X465702Y190131D01*
X465641Y190097D01*
X465627Y190083D01*
X465613Y190076D01*
X465600Y190062D01*
X465586Y190056D01*
X465565Y190035D01*
X465552Y190028D01*
X465501Y189977D01*
X465494Y189963D01*
X465477Y189946D01*
X465436Y189878D01*
X465422Y189844D01*
X465412Y189779D01*
X465419Y189731D01*
X465425Y189704D01*
X465446Y189656D01*
X465494Y189608D01*
X465562Y189567D01*
X465590Y189560D01*
X465644Y189553D01*
X465689Y189557D01*
X465743Y189570D01*
X465887Y189639D01*
X465935Y189673D01*
X465948Y189680D01*
X465962Y189693D01*
X465976Y189700D01*
X465989Y189714D01*
X466003Y189721D01*
X466017Y189734D01*
X466030Y189741D01*
X466054Y189765D01*
X466061Y189868D01*
Y189874D01*
X466058Y189926D01*
X466044Y189933D01*
X466017Y189960D01*
X466003Y189967D01*
X465989Y189980D01*
X465965Y189997D01*
X465924Y190032D01*
X465887Y190062D01*
X465825Y190110D01*
X465801Y190127D01*
X465764Y190158D01*
D02*
G37*
G36*
X454438Y190548D02*
X454418Y190541D01*
X454383Y190527D01*
X454281Y190479D01*
X454267Y190473D01*
X454213Y190438D01*
X454199Y190432D01*
X454151Y190397D01*
X454137Y190391D01*
X454124Y190377D01*
X454110Y190370D01*
X454089Y190349D01*
X454076Y190343D01*
X454028Y190295D01*
X454014Y190288D01*
X454004Y190278D01*
X453997Y190264D01*
X453946Y190213D01*
X453915Y190175D01*
X453833Y190066D01*
X453826Y190052D01*
X453792Y189997D01*
X453741Y189898D01*
X453727Y189864D01*
X453707Y189810D01*
X453690Y189765D01*
X453679Y189727D01*
X453666Y189673D01*
X453649Y189594D01*
X453642Y189546D01*
X453659Y189550D01*
X453673Y189564D01*
X453686Y189570D01*
X453700Y189584D01*
X453714Y189591D01*
X453727Y189604D01*
X453741Y189611D01*
X453755Y189625D01*
X453768Y189632D01*
X453782Y189646D01*
X453795Y189652D01*
X453809Y189666D01*
X453823Y189673D01*
X453836Y189687D01*
X453850Y189693D01*
X453864Y189707D01*
X453877Y189714D01*
X453898Y189734D01*
X453912Y189741D01*
X453932Y189762D01*
X453946Y189769D01*
X453960Y189782D01*
X453973Y189789D01*
X453994Y189810D01*
X454007Y189816D01*
X454028Y189837D01*
X454042Y189844D01*
X454062Y189864D01*
X454076Y189871D01*
X454103Y189898D01*
X454117Y189905D01*
X454151Y189939D01*
X454165Y189946D01*
X454192Y189974D01*
X454206Y189980D01*
X454233Y190008D01*
X454247Y190015D01*
X454294Y190062D01*
X454308Y190069D01*
X454356Y190117D01*
X454370Y190124D01*
X454424Y190179D01*
X454438Y190185D01*
X454441Y190189D01*
X454448Y190196D01*
X454445Y190486D01*
X454438Y190548D01*
D02*
G37*
G36*
X461205Y189372D02*
X461164Y189331D01*
X461150Y189324D01*
X461109Y189283D01*
X461095Y189276D01*
X460921Y189102D01*
X460914Y189088D01*
X460866Y189041D01*
X460860Y189027D01*
X460825Y188993D01*
X460819Y188979D01*
X460805Y188965D01*
X460798Y188952D01*
X460788Y188942D01*
X460689Y188808D01*
X460682Y188795D01*
X460648Y188747D01*
X460641Y188733D01*
X460637Y188730D01*
X460613Y188692D01*
X460514Y188504D01*
X460480Y188429D01*
X460453Y188361D01*
X460408Y188234D01*
X460395Y188186D01*
X460388Y188166D01*
X460391Y188162D01*
X460456Y188255D01*
X460463Y188268D01*
X460497Y188316D01*
X460504Y188330D01*
X460518Y188343D01*
X460525Y188357D01*
X460559Y188405D01*
X460566Y188419D01*
X460579Y188432D01*
X460586Y188446D01*
X460654Y188542D01*
X460661Y188555D01*
X460730Y188651D01*
X460737Y188665D01*
X460805Y188760D01*
X460812Y188774D01*
X460846Y188822D01*
X460853Y188836D01*
X460887Y188883D01*
X460894Y188897D01*
X460928Y188945D01*
X460935Y188959D01*
X460969Y189006D01*
X460976Y189020D01*
X461010Y189068D01*
X461017Y189082D01*
X461051Y189129D01*
X461058Y189143D01*
X461092Y189191D01*
X461099Y189205D01*
X461112Y189218D01*
X461119Y189232D01*
X461154Y189280D01*
X461160Y189294D01*
X461195Y189341D01*
X461201Y189355D01*
X461215Y189369D01*
X461205Y189372D01*
D02*
G37*
G36*
X459264Y185230D02*
X459195Y185223D01*
X459147Y185210D01*
X459072Y185175D01*
X459004Y185127D01*
X458990Y185121D01*
X458970Y185100D01*
X458956Y185093D01*
X458942Y185080D01*
X458929Y185073D01*
X458908Y185052D01*
X458894Y185046D01*
X458881Y185032D01*
X458867Y185025D01*
X458853Y185011D01*
X458840Y185004D01*
X458830Y184994D01*
X458819Y184943D01*
X458809Y184857D01*
X458847Y184827D01*
X458860Y184820D01*
X458881Y184800D01*
X458905Y184782D01*
X458942Y184752D01*
X459004Y184704D01*
X459028Y184687D01*
X459096Y184646D01*
X459182Y184615D01*
X459229Y184608D01*
X459298Y184615D01*
X459373Y184649D01*
X459387Y184656D01*
X459400Y184670D01*
X459404Y184673D01*
X459435Y184704D01*
X459476Y184772D01*
X459489Y184806D01*
X459499Y184851D01*
X459506Y184871D01*
X459503Y184991D01*
X459493Y185035D01*
X459458Y185110D01*
X459452Y185124D01*
X459400Y185175D01*
X459325Y185216D01*
X459284Y185223D01*
X459264Y185230D01*
D02*
G37*
G36*
X456243Y189946D02*
X455911Y189943D01*
X455815Y189936D01*
X455747Y189929D01*
X455638Y189916D01*
X455573Y189905D01*
X455545Y189898D01*
X455429Y189878D01*
X455292Y189844D01*
X455197Y189816D01*
X455087Y189782D01*
X455050Y189772D01*
X454995Y189752D01*
X454951Y189734D01*
X454882Y189707D01*
X454835Y189687D01*
X454541Y189543D01*
X454479Y189509D01*
X454465Y189502D01*
X454390Y189454D01*
X454342Y189427D01*
X454199Y189324D01*
X454185Y189317D01*
X454172Y189304D01*
X454158Y189297D01*
X454144Y189283D01*
X454131Y189276D01*
X454110Y189256D01*
X454096Y189249D01*
X454076Y189229D01*
X454062Y189222D01*
X454035Y189194D01*
X454021Y189188D01*
X453987Y189153D01*
X453973Y189147D01*
X453905Y189078D01*
X453891Y189071D01*
X453792Y188972D01*
X453785Y188959D01*
X453717Y188890D01*
X453710Y188877D01*
X453676Y188842D01*
X453669Y188829D01*
X453642Y188801D01*
X453635Y188788D01*
X453614Y188767D01*
X453608Y188753D01*
X453594Y188740D01*
X453587Y188726D01*
X453573Y188713D01*
X453567Y188699D01*
X453553Y188685D01*
X453546Y188672D01*
X453532Y188658D01*
X453526Y188644D01*
X453491Y188596D01*
X453471Y188562D01*
X453437Y188514D01*
X453430Y188501D01*
X453396Y188446D01*
X453368Y188398D01*
X453307Y188282D01*
X453276Y188217D01*
X453242Y188142D01*
X453201Y188039D01*
X453136Y187851D01*
X453122Y187803D01*
X453112Y187766D01*
X453105Y187732D01*
X453091Y187677D01*
X453085Y187643D01*
X453078Y187616D01*
X453057Y187493D01*
X453047Y187400D01*
X453040Y187380D01*
X453033Y187223D01*
X453027Y187202D01*
X453030Y186987D01*
X453037Y186864D01*
X453051Y186741D01*
X453057Y186686D01*
X453071Y186604D01*
X453078Y186570D01*
X453085Y186529D01*
X453095Y186484D01*
X453129Y186348D01*
X453163Y186238D01*
X453187Y186160D01*
X453208Y186105D01*
X453225Y186061D01*
X453238Y186026D01*
X453266Y185965D01*
X453375Y185739D01*
X453423Y185664D01*
X453430Y185650D01*
X453457Y185609D01*
X453464Y185596D01*
X453546Y185479D01*
X453553Y185466D01*
X453567Y185452D01*
X453573Y185439D01*
X453587Y185425D01*
X453594Y185411D01*
X453614Y185391D01*
X453621Y185377D01*
X453642Y185356D01*
X453649Y185343D01*
X453676Y185316D01*
X453683Y185302D01*
X453744Y185240D01*
X453751Y185227D01*
X453871Y185107D01*
X453884Y185100D01*
X453932Y185052D01*
X453946Y185046D01*
X453987Y185004D01*
X454001Y184998D01*
X454014Y184984D01*
X454028Y184977D01*
X454048Y184957D01*
X454062Y184950D01*
X454076Y184936D01*
X454089Y184929D01*
X454103Y184916D01*
X454117Y184909D01*
X454131Y184895D01*
X454144Y184888D01*
X454240Y184820D01*
X454253Y184813D01*
X454294Y184786D01*
X454308Y184779D01*
X454349Y184752D01*
X454643Y184601D01*
X454677Y184588D01*
X454739Y184560D01*
X454746D01*
X454790Y184543D01*
X454930Y184492D01*
X454998Y184471D01*
X455036Y184461D01*
X455200Y184420D01*
X455268Y184406D01*
X455309Y184400D01*
X455439Y184379D01*
X455494Y184372D01*
X455641Y184362D01*
X455661Y184355D01*
X455986Y184359D01*
X456061Y184365D01*
X456123Y184372D01*
X456178Y184379D01*
X456301Y184400D01*
X456335Y184406D01*
X456362Y184413D01*
X456396Y184420D01*
X456441Y184430D01*
X456523Y184451D01*
X456618Y184478D01*
X456646Y184485D01*
X456796Y184533D01*
X456834Y184543D01*
X456974Y184594D01*
X457008Y184608D01*
X457056Y184629D01*
X457213Y184704D01*
X457288Y184745D01*
X457364Y184793D01*
X457377Y184800D01*
X457425Y184834D01*
X457439Y184841D01*
X457452Y184854D01*
X457466Y184861D01*
X457480Y184875D01*
X457493Y184881D01*
X457507Y184895D01*
X457521Y184902D01*
X457541Y184923D01*
X457555Y184929D01*
X457575Y184950D01*
X457589Y184957D01*
X457637Y185004D01*
X457651Y185011D01*
X457791Y185152D01*
X457797Y185165D01*
X457845Y185213D01*
X457852Y185227D01*
X457873Y185247D01*
X457879Y185261D01*
X457890Y185271D01*
X457989Y185404D01*
X458016Y185452D01*
X458050Y185500D01*
X458173Y185739D01*
X458197Y185797D01*
X458225Y185873D01*
X458262Y185978D01*
X458303Y186108D01*
X458317Y186163D01*
X458327Y186201D01*
X458355Y186310D01*
X458361Y186344D01*
X458368Y186372D01*
X458382Y186440D01*
X458389Y186481D01*
X458395Y186515D01*
X458406Y186580D01*
X458413Y186607D01*
X458430Y186761D01*
X458440Y186922D01*
X458447Y186942D01*
X458443Y187301D01*
X458436Y187410D01*
X458423Y187533D01*
X458416Y187588D01*
X458395Y187711D01*
X458389Y187745D01*
X458372Y187824D01*
X458351Y187906D01*
X458324Y188002D01*
X458262Y188193D01*
X458242Y188241D01*
X458214Y188309D01*
X458050Y188644D01*
X458016Y188699D01*
X458009Y188713D01*
X457941Y188822D01*
X457934Y188836D01*
X457832Y188979D01*
X457825Y188993D01*
X457804Y189013D01*
X457797Y189027D01*
X457784Y189041D01*
X457777Y189054D01*
X457757Y189075D01*
X457750Y189088D01*
X457722Y189116D01*
X457715Y189129D01*
X457681Y189164D01*
X457674Y189177D01*
X457599Y189252D01*
X457592Y189266D01*
X457521Y189338D01*
X457507Y189345D01*
X457432Y189420D01*
X457418Y189427D01*
X457391Y189454D01*
X457377Y189461D01*
X457357Y189481D01*
X457333Y189499D01*
X457247Y189564D01*
X457223Y189581D01*
X457158Y189625D01*
X457145Y189632D01*
X457097Y189666D01*
X457001Y189721D01*
X456841Y189799D01*
X456806Y189813D01*
X456752Y189833D01*
X456717Y189847D01*
X456632Y189878D01*
X456595Y189888D01*
X456485Y189916D01*
X456427Y189926D01*
X456406Y189933D01*
X456263Y189939D01*
X456243Y189946D01*
D02*
G37*
G36*
X463358Y189905D02*
X463331Y189898D01*
X463180Y189892D01*
X463153Y189885D01*
X463061Y189874D01*
X463006Y189868D01*
X462869Y189840D01*
X462825Y189830D01*
X462770Y189816D01*
X462722Y189803D01*
X462695Y189796D01*
X462627Y189775D01*
X462507Y189738D01*
X462442Y189714D01*
X462408Y189700D01*
X462360Y189680D01*
X462326Y189666D01*
X462264Y189639D01*
X462025Y189523D01*
X461964Y189488D01*
X461950Y189481D01*
X461875Y189434D01*
X461861Y189427D01*
X461765Y189358D01*
X461752Y189352D01*
X461738Y189338D01*
X461724Y189331D01*
X461711Y189317D01*
X461697Y189311D01*
X461676Y189290D01*
X461663Y189283D01*
X461635Y189256D01*
X461622Y189249D01*
X461601Y189229D01*
X461587Y189222D01*
X461512Y189147D01*
X461499Y189140D01*
X461379Y189020D01*
X461372Y189006D01*
X461331Y188965D01*
X461324Y188952D01*
X461283Y188911D01*
X461276Y188897D01*
X461256Y188877D01*
X461249Y188863D01*
X461229Y188842D01*
X461222Y188829D01*
X461212Y188819D01*
X461147Y188733D01*
X461140Y188719D01*
X461095Y188661D01*
X461061Y188607D01*
X461034Y188566D01*
X461000Y188511D01*
X460959Y188443D01*
X460877Y188292D01*
X460802Y188142D01*
X460788Y188108D01*
X460754Y188032D01*
X460726Y187964D01*
X460685Y187855D01*
X460672Y187786D01*
X460665Y187759D01*
X460651Y187691D01*
X460641Y187619D01*
X460634Y187598D01*
X460627Y187516D01*
X460620Y187496D01*
X460613Y187359D01*
X460607Y187339D01*
X460610Y187021D01*
X460617Y186932D01*
X460627Y186826D01*
X460634Y186799D01*
X460641Y186751D01*
X460668Y186600D01*
X460689Y186519D01*
X460716Y186423D01*
X460754Y186303D01*
X460771Y186259D01*
X460784Y186225D01*
X460805Y186177D01*
X460907Y185965D01*
X460942Y185910D01*
X460948Y185897D01*
X460976Y185855D01*
X460983Y185842D01*
X461017Y185794D01*
X461024Y185780D01*
X461037Y185767D01*
X461044Y185753D01*
X461058Y185739D01*
X461065Y185726D01*
X461078Y185712D01*
X461085Y185698D01*
X461106Y185678D01*
X461112Y185664D01*
X461154Y185623D01*
X461160Y185609D01*
X461301Y185469D01*
X461314Y185462D01*
X461393Y185384D01*
X461400Y185370D01*
X461434Y185336D01*
X461441Y185322D01*
X461468Y185295D01*
X461475Y185281D01*
X461557Y185199D01*
X461564Y185186D01*
X461731Y185018D01*
X461745Y185011D01*
X461799Y184957D01*
X461813Y184950D01*
X461847Y184916D01*
X461861Y184909D01*
X461871Y184899D01*
X461939Y184844D01*
X462025Y184779D01*
X462049Y184762D01*
X462131Y184707D01*
X462206Y184659D01*
X462411Y184550D01*
X462486Y184516D01*
X462555Y184488D01*
X462691Y184441D01*
X462719Y184434D01*
X462753Y184427D01*
X462780Y184420D01*
X462814Y184413D01*
X462842Y184406D01*
X462876Y184400D01*
X462999Y184379D01*
X463088Y184365D01*
X463187Y184355D01*
X463207Y184348D01*
X463529Y184342D01*
X463679Y184348D01*
X463727Y184355D01*
X463819Y184365D01*
X463901Y184379D01*
X463935Y184386D01*
X463963Y184393D01*
X464007Y184403D01*
X464151Y184444D01*
X464209Y184461D01*
X464212Y184465D01*
X464332Y184502D01*
X464376Y184519D01*
X464424Y184540D01*
X464650Y184649D01*
X464739Y184697D01*
X464780Y184724D01*
X464827Y184752D01*
X464923Y184820D01*
X464937Y184827D01*
X464950Y184841D01*
X464964Y184847D01*
X464978Y184861D01*
X464991Y184868D01*
X465005Y184881D01*
X465019Y184888D01*
X465046Y184916D01*
X465060Y184923D01*
X465087Y184950D01*
X465101Y184957D01*
X465135Y184991D01*
X465149Y184998D01*
X465343Y185193D01*
X465350Y185206D01*
X465398Y185254D01*
X465405Y185268D01*
X465419Y185281D01*
X465436Y185305D01*
X465466Y185343D01*
X465549Y185452D01*
X465565Y185476D01*
X465593Y185517D01*
X465627Y185572D01*
X465675Y185647D01*
X465777Y185838D01*
X465791Y185873D01*
X465825Y185948D01*
X465846Y186002D01*
X465860Y186037D01*
X465918Y186204D01*
X465924Y186231D01*
X465935Y186269D01*
X465941Y186296D01*
X465948Y186330D01*
X465955Y186358D01*
X465962Y186392D01*
X465969Y186419D01*
X465976Y186453D01*
X465982Y186495D01*
X465989Y186529D01*
X465996Y186570D01*
X466010Y186659D01*
X466020Y186751D01*
X466027Y186771D01*
X466034Y186922D01*
X466041Y186942D01*
X466037Y187356D01*
X466027Y187489D01*
X466020Y187516D01*
X466003Y187656D01*
X465996Y187691D01*
X465989Y187732D01*
X465976Y187800D01*
X465965Y187845D01*
X465945Y187926D01*
X465931Y187974D01*
X465911Y188043D01*
X465873Y188162D01*
X465849Y188227D01*
X465808Y188323D01*
X465712Y188521D01*
X465658Y188617D01*
X465651Y188630D01*
X465624Y188672D01*
X465617Y188685D01*
X465590Y188726D01*
X465583Y188740D01*
X465514Y188836D01*
X465507Y188849D01*
X465487Y188870D01*
X465480Y188883D01*
X465460Y188904D01*
X465453Y188918D01*
X465432Y188938D01*
X465425Y188952D01*
X465384Y188993D01*
X465378Y189006D01*
X465176Y189208D01*
X465162Y189215D01*
X465128Y189249D01*
X465114Y189256D01*
X465087Y189283D01*
X465073Y189290D01*
X465053Y189311D01*
X465039Y189317D01*
X465026Y189331D01*
X465012Y189338D01*
X464998Y189352D01*
X464985Y189358D01*
X464971Y189372D01*
X464957Y189379D01*
X464947Y189389D01*
X464906Y189417D01*
X464841Y189461D01*
X464827Y189468D01*
X464780Y189502D01*
X464718Y189536D01*
X464663Y189570D01*
X464506Y189652D01*
X464404Y189700D01*
X464366Y189717D01*
X464229Y189772D01*
X464079Y189827D01*
X464052Y189833D01*
X464017Y189840D01*
X463963Y189854D01*
X463922Y189861D01*
X463888Y189868D01*
X463809Y189878D01*
X463788Y189885D01*
X463679Y189892D01*
X463659Y189898D01*
X463358Y189905D01*
D02*
G37*
G36*
X458081Y184512D02*
X457992Y184471D01*
X457979Y184458D01*
X457965Y184451D01*
X457914Y184400D01*
X457866Y184338D01*
X457838Y184290D01*
X457828Y184280D01*
X457801Y184212D01*
X457784Y184167D01*
X457777Y184147D01*
X457770Y184092D01*
X457763Y184044D01*
X457777Y184030D01*
X457784Y184017D01*
X457797Y184003D01*
X457804Y183990D01*
X457886Y183907D01*
X457972Y183849D01*
X458027Y183829D01*
X458047Y183822D01*
X458126Y183826D01*
X458170Y183836D01*
X458231Y183863D01*
X458245Y183877D01*
X458259Y183884D01*
X458276Y183901D01*
X458283Y183914D01*
X458293Y183925D01*
X458327Y183979D01*
X458341Y184013D01*
X458351Y184051D01*
X458358Y184072D01*
X458355Y184150D01*
X458348Y184184D01*
X458337Y184222D01*
X458310Y184263D01*
X458303Y184277D01*
X458290Y184290D01*
X458283Y184304D01*
X458262Y184324D01*
X458255Y184338D01*
X458228Y184365D01*
X458225Y184369D01*
X458221Y184379D01*
X458173Y184427D01*
X458167Y184441D01*
X458126Y184482D01*
X458109Y184505D01*
X458081Y184512D01*
D02*
G37*
G36*
X462182Y184266D02*
X462151Y184222D01*
X462134Y184198D01*
X462104Y184160D01*
X462100Y184157D01*
X462097Y184153D01*
X462090Y184140D01*
X462076Y184126D01*
X462069Y184113D01*
X462056Y184099D01*
X462022Y184037D01*
X462015Y183955D01*
X462035Y183907D01*
X462063Y183880D01*
X462069Y183867D01*
X462100Y183836D01*
X462162Y183801D01*
X462210Y183795D01*
X462237Y183801D01*
X462285Y183822D01*
X462298Y183829D01*
X462339Y183870D01*
X462353Y183877D01*
X462384Y183921D01*
X462391Y183969D01*
X462370Y184037D01*
X462336Y184085D01*
X462329Y184099D01*
X462295Y184133D01*
X462288Y184147D01*
X462254Y184181D01*
X462247Y184195D01*
X462220Y184222D01*
X462213Y184236D01*
X462199Y184249D01*
X462192Y184263D01*
X462182Y184266D01*
D02*
G37*
G36*
X465818Y184300D02*
X465771Y184294D01*
X465695Y184259D01*
X465654Y184232D01*
X465641Y184225D01*
X465620Y184205D01*
X465606Y184198D01*
X465555Y184147D01*
X465549Y184133D01*
X465538Y184123D01*
X465494Y184058D01*
Y184051D01*
X465477Y184020D01*
X465463Y183986D01*
X465453Y183935D01*
X465446Y183914D01*
X465466Y183880D01*
X465473Y183867D01*
X465487Y183853D01*
X465494Y183839D01*
X465514Y183819D01*
X465521Y183805D01*
X465569Y183757D01*
X465576Y183743D01*
X465671Y183648D01*
X465678Y183634D01*
X465743Y183569D01*
X465777Y183528D01*
X465781Y183531D01*
X465788Y183545D01*
X465798Y183555D01*
X465863Y183641D01*
X465880Y183665D01*
X465945Y183750D01*
X466013Y183853D01*
X466044Y183911D01*
X466058Y183945D01*
X466068Y183983D01*
X466075Y184010D01*
X466068Y184078D01*
X466061Y184106D01*
X466027Y184181D01*
X466020Y184195D01*
X465986Y184229D01*
X465948Y184259D01*
X465901Y184287D01*
X465880Y184294D01*
X465818Y184300D01*
D02*
G37*
G36*
X465449Y180001D02*
X465422Y179994D01*
X465374Y179988D01*
X465340Y179974D01*
X465292Y179953D01*
X465244Y179919D01*
X465231Y179912D01*
X465217Y179899D01*
X465203Y179892D01*
X465176Y179865D01*
X465162Y179858D01*
X465094Y179789D01*
X465080Y179782D01*
X465043Y179745D01*
X465036Y179683D01*
X465043Y179656D01*
X465063Y179608D01*
X465121Y179550D01*
X465145Y179533D01*
X465149Y179530D01*
X465210Y179495D01*
X465261Y179472D01*
X465296Y179458D01*
X465360Y179434D01*
X465408Y179413D01*
X465504Y179407D01*
X465552Y179420D01*
X465586Y179434D01*
X465600Y179441D01*
X465613Y179454D01*
X465627Y179461D01*
X465658Y179499D01*
X465699Y179574D01*
X465712Y179608D01*
X465719Y179731D01*
X465712Y179779D01*
X465706Y179806D01*
X465671Y179882D01*
X465665Y179895D01*
X465613Y179946D01*
X465552Y179981D01*
X465518Y179994D01*
X465449Y180001D01*
D02*
G37*
G36*
X457336Y180487D02*
X456441Y180480D01*
X456437Y178583D01*
X457336Y178579D01*
X457339Y178931D01*
Y178938D01*
X457336Y180487D01*
D02*
G37*
G36*
X462401Y180500D02*
X462397Y178569D01*
X462544Y178566D01*
X463317D01*
X463320Y180497D01*
X462401Y180500D01*
D02*
G37*
G36*
X465183Y178935D02*
X465166Y178918D01*
X465159Y178904D01*
X465125Y178870D01*
X465118Y178856D01*
X465084Y178822D01*
X465077Y178808D01*
X465056Y178788D01*
X465039Y178764D01*
X465005Y178723D01*
X465050Y178631D01*
X465172Y178392D01*
X465183Y178388D01*
X465330Y178535D01*
X465337Y178549D01*
X465398Y178610D01*
X465405Y178624D01*
X465432Y178651D01*
X465439Y178665D01*
X465405Y178740D01*
X465391Y178754D01*
X465384Y178768D01*
X465337Y178815D01*
X465296Y178849D01*
X465292Y178853D01*
X465278Y178867D01*
X465255Y178884D01*
X465217Y178914D01*
X465183Y178935D01*
D02*
G37*
G36*
X459366Y181635D02*
X459363Y177435D01*
X460261Y177431D01*
X460265Y178863D01*
Y178870D01*
Y181631D01*
X459366Y181635D01*
D02*
G37*
G36*
X457808D02*
X457804Y178501D01*
Y178494D01*
Y177435D01*
X458703Y177431D01*
X458707Y181631D01*
X457808Y181635D01*
D02*
G37*
G36*
X460924Y181669D02*
X460921Y179786D01*
Y179779D01*
Y177401D01*
X461840Y177397D01*
X461844Y181666D01*
X460924Y181669D01*
D02*
G37*
G36*
X461728Y177175D02*
X461690Y177158D01*
X461628Y177124D01*
X461615Y177117D01*
X461540Y177069D01*
X461526Y177062D01*
X461430Y176994D01*
X461417Y176987D01*
X461403Y176973D01*
X461389Y176967D01*
X461376Y176953D01*
X461362Y176946D01*
X461359Y176936D01*
X461458Y176864D01*
X461471Y176857D01*
X461485Y176843D01*
X461499Y176837D01*
X461547Y176802D01*
X461560Y176796D01*
X461608Y176761D01*
X461669Y176727D01*
X461683Y176714D01*
X461731Y176734D01*
X461772Y176761D01*
X461786Y176768D01*
X461799Y176782D01*
X461813Y176789D01*
X461861Y176837D01*
X461875Y176843D01*
X461960Y176929D01*
X461946Y176943D01*
X461939Y176956D01*
X461864Y177031D01*
X461858Y177045D01*
X461738Y177165D01*
X461734Y177168D01*
X461728Y177175D01*
D02*
G37*
G36*
X462674Y177001D02*
X462613Y176939D01*
X462599Y176932D01*
X462582Y176915D01*
X462579Y176912D01*
X462397Y176731D01*
X462391Y176717D01*
X462428Y176693D01*
X462476Y176666D01*
X462490Y176659D01*
X462544Y176625D01*
X462729Y176529D01*
X462770Y176549D01*
X462790Y176570D01*
X462804Y176577D01*
X462931Y176703D01*
X462937Y176717D01*
X462992Y176772D01*
X462944Y176806D01*
X462907Y176837D01*
X462883Y176854D01*
X462749Y176953D01*
X462736Y176960D01*
X462688Y176994D01*
X462674Y177001D01*
D02*
G37*
%LPD*%
G36*
X455272Y188395D02*
X455320Y188388D01*
X455402Y188374D01*
X455429Y188367D01*
X455467Y188357D01*
X455494Y188350D01*
X455559Y188326D01*
X455607Y188306D01*
X455668Y188278D01*
X455744Y188238D01*
X455757Y188231D01*
X455798Y188203D01*
X455812Y188197D01*
X455826Y188183D01*
X455839Y188176D01*
X455853Y188162D01*
X455867Y188155D01*
X455887Y188135D01*
X455901Y188128D01*
X456034Y187995D01*
X456041Y187981D01*
X456061Y187961D01*
X456068Y187947D01*
X456082Y187933D01*
X456089Y187920D01*
X456102Y187906D01*
X456109Y187892D01*
X456143Y187845D01*
X456171Y187797D01*
X456222Y187698D01*
X456249Y187629D01*
X456277Y187554D01*
X456284Y187527D01*
X456307Y187421D01*
X456314Y187400D01*
X456321Y187270D01*
X456328Y187243D01*
X456321Y187175D01*
X456314Y187045D01*
X456307Y187017D01*
X456301Y186970D01*
X456287Y186915D01*
X456253Y186805D01*
X456171Y186635D01*
X456164Y186621D01*
X456102Y186532D01*
X456096Y186519D01*
X456082Y186505D01*
X456075Y186491D01*
X456041Y186457D01*
X456034Y186443D01*
X455921Y186330D01*
X455908Y186324D01*
X455887Y186303D01*
X455873Y186296D01*
X455853Y186276D01*
X455839Y186269D01*
X455826Y186255D01*
X455778Y186228D01*
X455730Y186194D01*
X455631Y186143D01*
X455597Y186129D01*
X455542Y186108D01*
X455508Y186095D01*
X455480Y186088D01*
X455409Y186071D01*
X455388Y186064D01*
X455320Y186057D01*
X455299Y186050D01*
X455125Y186054D01*
X455040Y186064D01*
X454992Y186071D01*
X454910Y186084D01*
X454855Y186098D01*
X454766Y186126D01*
X454732Y186139D01*
X454616Y186194D01*
X454568Y186221D01*
X454554Y186228D01*
X454465Y186290D01*
X454452Y186296D01*
X454424Y186324D01*
X454411Y186330D01*
X454383Y186358D01*
X454370Y186365D01*
X454284Y186450D01*
X454277Y186464D01*
X454267Y186474D01*
X454236Y186512D01*
X454189Y186573D01*
X454182Y186587D01*
X454172Y186597D01*
X454103Y186713D01*
X454062Y186795D01*
X454042Y186850D01*
X454011Y186935D01*
X454001Y186973D01*
X453983Y187058D01*
X453977Y187079D01*
X453970Y187304D01*
X453977Y187352D01*
X453990Y187434D01*
X454004Y187489D01*
X454031Y187578D01*
X454045Y187612D01*
X454127Y187783D01*
X454161Y187831D01*
X454168Y187845D01*
X454182Y187858D01*
Y187865D01*
X454195Y187879D01*
X454202Y187892D01*
X454223Y187913D01*
X454230Y187926D01*
X454264Y187961D01*
X454271Y187974D01*
X454363Y188067D01*
X454377Y188074D01*
X454404Y188101D01*
X454428Y188118D01*
X454465Y188149D01*
X454479Y188155D01*
X454493Y188169D01*
X454506Y188176D01*
X454554Y188210D01*
X454715Y188296D01*
X454749Y188309D01*
X454804Y188330D01*
X454848Y188347D01*
X454886Y188357D01*
X454913Y188364D01*
X454992Y188381D01*
X455012Y188388D01*
X455135Y188395D01*
X455156Y188401D01*
X455272Y188395D01*
D02*
G37*
G36*
X462975Y188361D02*
X463002Y188354D01*
X463050Y188347D01*
X463105Y188333D01*
X463242Y188292D01*
X463276Y188278D01*
X463419Y188210D01*
X463467Y188176D01*
X463481Y188169D01*
X463494Y188155D01*
X463508Y188149D01*
X463522Y188135D01*
X463535Y188128D01*
X463556Y188108D01*
X463570Y188101D01*
X463669Y188002D01*
X463676Y187988D01*
X463700Y187964D01*
X463764Y187879D01*
X463771Y187865D01*
X463805Y187817D01*
X463884Y187670D01*
X463911Y187602D01*
X463939Y187527D01*
X463952Y187472D01*
X463963Y187414D01*
X463970Y187393D01*
X463976Y187195D01*
X463970Y187065D01*
X463963Y187038D01*
X463956Y186990D01*
X463935Y186908D01*
X463901Y186799D01*
X463888Y186765D01*
X463867Y186717D01*
X463833Y186642D01*
X463799Y186587D01*
X463792Y186573D01*
X463764Y186532D01*
X463758Y186519D01*
X463744Y186505D01*
X463737Y186491D01*
X463724Y186477D01*
X463717Y186464D01*
X463703Y186450D01*
X463696Y186436D01*
X463635Y186375D01*
X463628Y186361D01*
X463611Y186344D01*
X463597Y186337D01*
X463556Y186296D01*
X463542Y186290D01*
X463522Y186269D01*
X463508Y186262D01*
X463494Y186249D01*
X463481Y186242D01*
X463433Y186207D01*
X463313Y186143D01*
X463279Y186129D01*
X463183Y186095D01*
X463156Y186088D01*
X463112Y186078D01*
X463091Y186071D01*
X463009Y186064D01*
X462989Y186057D01*
X462763Y186050D01*
X462695Y186057D01*
X462613Y186071D01*
X462585Y186078D01*
X462538Y186091D01*
X462469Y186112D01*
X462435Y186126D01*
X462319Y186180D01*
X462271Y186207D01*
X462257Y186214D01*
X462216Y186242D01*
X462203Y186249D01*
X462189Y186262D01*
X462175Y186269D01*
X462162Y186283D01*
X462148Y186290D01*
X462134Y186303D01*
X462121Y186310D01*
X462086Y186344D01*
X462073Y186351D01*
X461994Y186430D01*
X461987Y186443D01*
X461970Y186460D01*
X461939Y186498D01*
X461892Y186559D01*
X461885Y186573D01*
X461851Y186621D01*
X461782Y186751D01*
X461779Y186754D01*
X461765Y186788D01*
X461748Y186833D01*
X461734Y186867D01*
X461717Y186925D01*
X461700Y187011D01*
X461693Y187031D01*
X461687Y187154D01*
X461680Y187175D01*
X461683Y187199D01*
X461690Y187308D01*
X461700Y187373D01*
X461707Y187400D01*
X461721Y187482D01*
X461728Y187510D01*
X461762Y187619D01*
X461851Y187803D01*
X461885Y187851D01*
X461892Y187865D01*
X461905Y187879D01*
X461912Y187892D01*
X461933Y187913D01*
X461939Y187926D01*
X461980Y187968D01*
X461987Y187981D01*
X462052Y188046D01*
X462066Y188053D01*
X462093Y188080D01*
X462155Y188128D01*
X462179Y188145D01*
X462264Y188203D01*
X462278Y188210D01*
X462329Y188241D01*
X462404Y188275D01*
X462438Y188289D01*
X462555Y188330D01*
X462589Y188337D01*
X462616Y188343D01*
X462674Y188354D01*
X462695Y188361D01*
X462866Y188367D01*
X462975Y188361D01*
D02*
G37*
%LPC*%
G36*
X460993Y198292D02*
X460945Y198271D01*
X460931Y198265D01*
X460918Y198251D01*
X460904Y198244D01*
X460880Y198220D01*
X460873Y198206D01*
X460863Y198196D01*
X460829Y198142D01*
X460822Y198114D01*
X460812Y198049D01*
X460825Y198001D01*
X460873Y197899D01*
X460880Y197885D01*
X460907Y197844D01*
X460914Y197830D01*
X461017Y197687D01*
X461024Y197673D01*
X461037Y197660D01*
X461044Y197646D01*
X461061Y197629D01*
X461099Y197667D01*
X461106Y197680D01*
X461242Y197817D01*
X461249Y197830D01*
X461276Y197858D01*
X461283Y197872D01*
X461297Y197885D01*
X461304Y197899D01*
X461335Y197950D01*
X461355Y198005D01*
X461352Y198022D01*
X461345Y198049D01*
X461307Y198128D01*
X461304Y198131D01*
X461297Y198138D01*
X461290Y198152D01*
X461276Y198166D01*
X461270Y198179D01*
X461246Y198203D01*
X461232Y198210D01*
X461205Y198237D01*
X461143Y198271D01*
X461109Y198285D01*
X460993Y198292D01*
D02*
G37*
G36*
X460132Y197567D02*
X459851Y197431D01*
X459735Y197369D01*
X459674Y197335D01*
X459633Y197308D01*
X459619Y197301D01*
X459571Y197267D01*
X459557Y197260D01*
X459544Y197246D01*
X459530Y197239D01*
X459516Y197226D01*
X459503Y197219D01*
X459482Y197198D01*
X459469Y197192D01*
X459397Y197120D01*
X459349Y197058D01*
X459291Y196959D01*
X459274Y196915D01*
X459260Y196880D01*
X459250Y196843D01*
X459240Y196798D01*
X459233Y196778D01*
X459226Y196634D01*
X459240Y196539D01*
X459260Y196457D01*
X459322Y196327D01*
X459342Y196306D01*
Y196300D01*
X459414Y196228D01*
X459476Y196180D01*
X459581Y196122D01*
X459677Y196088D01*
X459704Y196081D01*
X459739Y196074D01*
X459780Y196067D01*
X459855Y196060D01*
X459974Y196064D01*
X460002Y196071D01*
X460050Y196077D01*
X460145Y196105D01*
X460180Y196118D01*
X460268Y196159D01*
X460316Y196194D01*
X460330Y196200D01*
X460357Y196228D01*
X460371Y196235D01*
X460426Y196289D01*
X460439Y196296D01*
X460504Y196361D01*
X460511Y196375D01*
X460572Y196436D01*
X460579Y196450D01*
X460600Y196470D01*
X460617Y196494D01*
X460682Y196580D01*
X460689Y196593D01*
X460723Y196641D01*
X460730Y196655D01*
X460760Y196706D01*
X460795Y196781D01*
X460825Y196867D01*
X460832Y196887D01*
X460839Y196956D01*
X460846Y196976D01*
X460839Y197085D01*
X460825Y197140D01*
X460812Y197188D01*
X460791Y197236D01*
X460764Y197277D01*
X460757Y197291D01*
X460678Y197369D01*
X460665Y197376D01*
X460651Y197390D01*
X460549Y197444D01*
X460501Y197465D01*
X460432Y197485D01*
X460296Y197520D01*
X460200Y197547D01*
X460166Y197561D01*
X460132Y197567D01*
D02*
G37*
G36*
X467883Y182612D02*
X467787Y182605D01*
X467732Y182592D01*
X467684Y182578D01*
X467596Y182537D01*
X467555Y182510D01*
X467541Y182503D01*
X467520Y182482D01*
X467507Y182475D01*
X467421Y182390D01*
X467414Y182376D01*
X467404Y182366D01*
X467377Y182325D01*
X467336Y182257D01*
X467309Y182188D01*
X467298Y182151D01*
X467291Y182123D01*
X467285Y182076D01*
X467291Y181966D01*
X467305Y181912D01*
X467319Y181864D01*
X467380Y181734D01*
X467394Y181720D01*
X467401Y181707D01*
X467428Y181679D01*
X467435Y181666D01*
X467459Y181642D01*
X467483Y181625D01*
X467520Y181594D01*
X467579Y181556D01*
X467647Y181529D01*
X467684Y181519D01*
X467712Y181512D01*
X467780Y181505D01*
X467807Y181512D01*
X467814D01*
X467866Y181515D01*
X467910Y181526D01*
X467944Y181539D01*
X468033Y181580D01*
X468047Y181594D01*
X468060Y181601D01*
X468074Y181614D01*
X468088Y181621D01*
X468153Y181686D01*
X468170Y181710D01*
X468200Y181748D01*
X468252Y181840D01*
X468265Y181874D01*
X468289Y181939D01*
X468296Y181959D01*
X468303Y182042D01*
X468310Y182062D01*
X468306Y182100D01*
X468300Y182168D01*
X468293Y182202D01*
X468283Y182247D01*
X468276Y182274D01*
X468207Y182417D01*
X468187Y182438D01*
X468180Y182452D01*
X468139Y182493D01*
X468098Y182527D01*
X468033Y182571D01*
X467965Y182599D01*
X467903Y182605D01*
X467883Y182612D01*
D02*
G37*
G36*
X468060Y180719D02*
X468033Y180712D01*
X467965Y180685D01*
X467951Y180671D01*
X467920Y180633D01*
X467910Y180610D01*
X467900Y180558D01*
X467907Y180490D01*
X467913Y180463D01*
X467934Y180394D01*
X467975Y180305D01*
X467992Y180309D01*
X468013Y180329D01*
X468026Y180336D01*
X468040Y180350D01*
X468053Y180357D01*
X468074Y180377D01*
X468088Y180384D01*
X468101Y180398D01*
X468115Y180404D01*
X468135Y180425D01*
X468149Y180432D01*
X468163Y180446D01*
X468177Y180452D01*
X468204Y180480D01*
X468211D01*
X468224Y180493D01*
X468238Y180500D01*
X468252Y180514D01*
X468265Y180521D01*
X468279Y180534D01*
X468303Y180551D01*
X468293Y180562D01*
X468279Y180569D01*
X468204Y180644D01*
X468190Y180651D01*
X468166Y180675D01*
X468112Y180709D01*
X468060Y180719D01*
D02*
G37*
%LPD*%
D10*
X381102Y185040D02*
Y188976D01*
X379134D01*
X378479Y188320D01*
Y187008D01*
X379134Y186352D01*
X381102D01*
X379790D02*
X378479Y185040D01*
X374543Y188976D02*
X375855Y188320D01*
X377167Y187008D01*
Y185696D01*
X376511Y185040D01*
X375199D01*
X374543Y185696D01*
Y186352D01*
X375199Y187008D01*
X377167D01*
X381233Y166339D02*
Y170275D01*
X379265D01*
X378609Y169619D01*
Y168307D01*
X379265Y167651D01*
X381233D01*
X379921D02*
X378609Y166339D01*
X374673Y170275D02*
X377297D01*
Y168307D01*
X375985Y168963D01*
X375329D01*
X374673Y168307D01*
Y166995D01*
X375329Y166339D01*
X376641D01*
X377297Y166995D01*
X381233Y148623D02*
Y152558D01*
X379265D01*
X378609Y151902D01*
Y150591D01*
X379265Y149935D01*
X381233D01*
X379921D02*
X378609Y148623D01*
X375329D02*
Y152558D01*
X377297Y150591D01*
X374673D01*
X381102Y178150D02*
Y182086D01*
X379134D01*
X378479Y181430D01*
Y180118D01*
X379134Y179462D01*
X381102D01*
X379790D02*
X378479Y178150D01*
X377167Y181430D02*
X376511Y182086D01*
X375199D01*
X374543Y181430D01*
Y180774D01*
X375199Y180118D01*
X375855D01*
X375199D01*
X374543Y179462D01*
Y178806D01*
X375199Y178150D01*
X376511D01*
X377167Y178806D01*
X381233Y159450D02*
Y163385D01*
X379265D01*
X378609Y162729D01*
Y161417D01*
X379265Y160761D01*
X381233D01*
X379921D02*
X378609Y159450D01*
X374673D02*
X377297D01*
X374673Y162073D01*
Y162729D01*
X375329Y163385D01*
X376641D01*
X377297Y162729D01*
X381102Y141733D02*
Y145669D01*
X379134D01*
X378479Y145013D01*
Y143701D01*
X379134Y143045D01*
X381102D01*
X379790D02*
X378479Y141733D01*
X377167D02*
X375855D01*
X376511D01*
Y145669D01*
X377167Y145013D01*
D12*
X383071Y164567D02*
X396456D01*
X383071Y158268D02*
X396456D01*
Y164567D01*
X383071Y158268D02*
Y164567D01*
X383071Y165157D02*
X396457D01*
X383071Y171457D02*
X396457D01*
X383071Y165157D02*
Y171457D01*
X396457Y165157D02*
Y171457D01*
X383071Y147441D02*
X396457D01*
X383071Y153740D02*
X396457D01*
X383071Y147441D02*
Y153740D01*
X396457Y147441D02*
Y153740D01*
X383071Y183858D02*
X396457D01*
X383071Y190157D02*
X396457D01*
X383071Y183858D02*
Y190157D01*
X396457Y183858D02*
Y190157D01*
X383071Y183268D02*
X396456D01*
X383071Y176969D02*
X396456D01*
Y183268D01*
X383071Y176969D02*
Y183268D01*
Y146850D02*
X396456D01*
X383071Y140551D02*
X396456D01*
Y146850D01*
X383071Y140551D02*
Y146850D01*
D13*
X457669Y239369D02*
X455701Y235433D01*
X453733Y239369D01*
X451766Y235433D02*
X449798D01*
X450782D01*
Y241337D01*
X451766Y240353D01*
X446846Y235433D02*
Y236417D01*
X445862D01*
Y235433D01*
X446846D01*
X441926Y240353D02*
X440942Y241337D01*
X438975D01*
X437991Y240353D01*
Y236417D01*
X438975Y235433D01*
X440942D01*
X441926Y236417D01*
Y240353D01*
X426183Y235433D02*
X430119D01*
X426183Y239369D01*
Y240353D01*
X427167Y241337D01*
X429135D01*
X430119Y240353D01*
X424216D02*
X423232Y241337D01*
X421264D01*
X420280Y240353D01*
Y236417D01*
X421264Y235433D01*
X423232D01*
X424216Y236417D01*
Y240353D01*
X414376Y235433D02*
X418312D01*
X414376Y239369D01*
Y240353D01*
X415360Y241337D01*
X417328D01*
X418312Y240353D01*
X408472Y241337D02*
X410440Y240353D01*
X412408Y238385D01*
Y236417D01*
X411424Y235433D01*
X409456D01*
X408472Y236417D01*
Y237401D01*
X409456Y238385D01*
X412408D01*
X478143Y157094D02*
Y161030D01*
X475191D01*
X474207Y160046D01*
Y157094D01*
X471256D02*
X469288D01*
X468304Y158078D01*
Y160046D01*
X469288Y161030D01*
X471256D01*
X472239Y160046D01*
Y158078D01*
X471256Y157094D01*
X466336Y161030D02*
X462400Y157094D01*
X464368Y159062D01*
X462400Y161030D01*
X466336Y157094D01*
X457480D02*
X459448D01*
X460432Y158078D01*
Y160046D01*
X459448Y161030D01*
X457480D01*
X456497Y160046D01*
Y159062D01*
X460432D01*
X453545Y162013D02*
Y161030D01*
X454529D01*
X452561D01*
X453545D01*
Y158078D01*
X452561Y157094D01*
M02*
