G04*
G04 #@! TF.GenerationSoftware,Altium Limited,Altium Designer,25.0.2 (28)*
G04*
G04 Layer_Color=8388736*
%FSLAX25Y25*%
%MOIN*%
G70*
G04*
G04 #@! TF.SameCoordinates,F0B22068-9DE2-4914-ACF3-B4DAD228D1F8*
G04*
G04*
G04 #@! TF.FilePolarity,Negative*
G04*
G01*
G75*
G04:AMPARAMS|DCode=25|XSize=122.05mil|YSize=74.8mil|CornerRadius=19.68mil|HoleSize=0mil|Usage=FLASHONLY|Rotation=180.000|XOffset=0mil|YOffset=0mil|HoleType=Round|Shape=RoundedRectangle|*
%AMROUNDEDRECTD25*
21,1,0.12205,0.03543,0,0,180.0*
21,1,0.08268,0.07480,0,0,180.0*
1,1,0.03937,-0.04134,0.01772*
1,1,0.03937,0.04134,0.01772*
1,1,0.03937,0.04134,-0.01772*
1,1,0.03937,-0.04134,-0.01772*
%
%ADD25ROUNDEDRECTD25*%
%ADD26R,0.09055X0.09055*%
G04:AMPARAMS|DCode=27|XSize=68.9mil|YSize=27.56mil|CornerRadius=7.87mil|HoleSize=0mil|Usage=FLASHONLY|Rotation=0.000|XOffset=0mil|YOffset=0mil|HoleType=Round|Shape=RoundedRectangle|*
%AMROUNDEDRECTD27*
21,1,0.06890,0.01181,0,0,0.0*
21,1,0.05315,0.02756,0,0,0.0*
1,1,0.01575,0.02657,-0.00591*
1,1,0.01575,-0.02657,-0.00591*
1,1,0.01575,-0.02657,0.00591*
1,1,0.01575,0.02657,0.00591*
%
%ADD27ROUNDEDRECTD27*%
%ADD28R,0.10236X0.09449*%
%ADD29R,0.05315X0.04331*%
%ADD30R,0.11221X0.09449*%
%ADD31R,0.10630X0.32677*%
%ADD32R,0.04331X0.05315*%
%ADD33R,0.12205X0.06693*%
%ADD34R,0.06693X0.12205*%
%ADD35C,0.12992*%
%ADD36R,0.07480X0.07480*%
%ADD37C,0.07480*%
%ADD38C,0.08268*%
%ADD39R,0.08268X0.08268*%
%ADD40C,0.02756*%
%ADD41C,0.04331*%
D25*
X342520Y107559D02*
D03*
Y117559D02*
D03*
Y127559D02*
D03*
Y137559D02*
D03*
Y147559D02*
D03*
Y157559D02*
D03*
Y167559D02*
D03*
Y177559D02*
D03*
Y187559D02*
D03*
X413386D02*
D03*
Y177559D02*
D03*
Y167559D02*
D03*
Y157559D02*
D03*
Y147559D02*
D03*
Y137559D02*
D03*
Y127559D02*
D03*
Y117559D02*
D03*
Y107559D02*
D03*
D26*
X464122Y131465D02*
D03*
D27*
X474752Y138965D02*
D03*
Y133965D02*
D03*
Y128965D02*
D03*
Y123965D02*
D03*
X453492D02*
D03*
Y128965D02*
D03*
Y133965D02*
D03*
Y138965D02*
D03*
D28*
X438976Y107811D02*
D03*
X438876Y125921D02*
D03*
D29*
X483268Y125984D02*
D03*
Y133858D02*
D03*
D30*
X491242Y146260D02*
D03*
X491142Y164370D02*
D03*
D31*
X474606Y172244D02*
D03*
X452559D02*
D03*
D32*
X459646Y147638D02*
D03*
X467520D02*
D03*
D33*
X474016Y206693D02*
D03*
X456693Y206693D02*
D03*
D34*
X502953Y114370D02*
D03*
X502953Y131693D02*
D03*
D35*
X437008Y149606D02*
D03*
X507874Y236221D02*
D03*
X342520D02*
D03*
D36*
X413465Y211693D02*
D03*
X358347D02*
D03*
X385906D02*
D03*
D37*
X403465D02*
D03*
X408465Y201693D02*
D03*
X353346D02*
D03*
X348346Y211693D02*
D03*
X380906Y201693D02*
D03*
X375905Y211693D02*
D03*
D38*
X471457Y238189D02*
D03*
X481457D02*
D03*
X469488Y111221D02*
D03*
X395039Y237795D02*
D03*
X385039D02*
D03*
X375039D02*
D03*
X365039D02*
D03*
X398425Y117717D02*
D03*
D39*
X459488Y111221D02*
D03*
D40*
X464122Y131465D02*
D03*
X401575Y157480D02*
D03*
X485236Y202756D02*
D03*
Y210630D02*
D03*
Y206693D02*
D03*
X401575Y187008D02*
D03*
Y171260D02*
D03*
X507087Y106299D02*
D03*
X502756D02*
D03*
X498819D02*
D03*
D41*
X483268Y121063D02*
D03*
X491142Y138779D02*
D03*
M02*
