G04*
G04 #@! TF.GenerationSoftware,Altium Limited,Altium Designer,25.0.2 (28)*
G04*
G04 Layer_Physical_Order=1*
G04 Layer_Color=255*
%FSLAX25Y25*%
%MOIN*%
G70*
G04*
G04 #@! TF.SameCoordinates,D75A5BBE-F8D8-4943-B1B8-F21556BF2D07*
G04*
G04*
G04 #@! TF.FilePolarity,Positive*
G04*
G01*
G75*
%ADD11C,0.01000*%
%ADD14C,0.01575*%
%ADD15R,0.09843X0.09055*%
G04:AMPARAMS|DCode=16|XSize=196.85mil|YSize=70.87mil|CornerRadius=17.72mil|HoleSize=0mil|Usage=FLASHONLY|Rotation=180.000|XOffset=0mil|YOffset=0mil|HoleType=Round|Shape=RoundedRectangle|*
%AMROUNDEDRECTD16*
21,1,0.19685,0.03543,0,0,180.0*
21,1,0.16142,0.07087,0,0,180.0*
1,1,0.03543,-0.08071,0.01772*
1,1,0.03543,0.08071,0.01772*
1,1,0.03543,0.08071,-0.01772*
1,1,0.03543,-0.08071,-0.01772*
%
%ADD16ROUNDEDRECTD16*%
%ADD17R,0.04921X0.03937*%
%ADD18R,0.10827X0.09055*%
G04:AMPARAMS|DCode=19|XSize=64.96mil|YSize=23.62mil|CornerRadius=5.91mil|HoleSize=0mil|Usage=FLASHONLY|Rotation=0.000|XOffset=0mil|YOffset=0mil|HoleType=Round|Shape=RoundedRectangle|*
%AMROUNDEDRECTD19*
21,1,0.06496,0.01181,0,0,0.0*
21,1,0.05315,0.02362,0,0,0.0*
1,1,0.01181,0.02657,-0.00591*
1,1,0.01181,-0.02657,-0.00591*
1,1,0.01181,-0.02657,0.00591*
1,1,0.01181,0.02657,0.00591*
%
%ADD19ROUNDEDRECTD19*%
%ADD20R,0.08661X0.08661*%
%ADD21R,0.10236X0.32284*%
%ADD22R,0.03937X0.04921*%
%ADD23R,0.11811X0.06299*%
%ADD24R,0.06299X0.11811*%
%ADD42C,0.06299*%
%ADD43C,0.04724*%
%ADD44C,0.03150*%
%ADD45C,0.02362*%
%ADD46C,0.12598*%
%ADD47R,0.07087X0.07087*%
%ADD48C,0.07087*%
%ADD49C,0.07874*%
%ADD50R,0.07874X0.07874*%
%ADD51C,0.02362*%
%ADD52C,0.03937*%
G36*
X489173Y212598D02*
X489173Y200787D01*
X487205Y198819D01*
X483268Y198819D01*
X482283Y199803D01*
X468504D01*
X466535Y201772D01*
X466535Y211614D01*
X468504Y213583D01*
X482283Y213583D01*
X483268Y214567D01*
X487205D01*
X489173Y212598D01*
D02*
G37*
G36*
X464567Y201772D02*
X457677Y194882D01*
Y189386D01*
X453559D01*
Y172244D01*
Y155102D01*
X457677D01*
Y152559D01*
X448819Y143701D01*
Y128347D01*
X450000Y127165D01*
X450163D01*
X450297Y127076D01*
X450835Y126969D01*
X456150D01*
X456687Y127076D01*
X456821Y127165D01*
X457480D01*
X458268Y126378D01*
Y119291D01*
X457480Y118504D01*
X450000Y118504D01*
X448819Y117323D01*
Y117126D01*
X431102D01*
X431033Y144946D01*
X431359Y145045D01*
X431533Y145059D01*
X432490Y144102D01*
X433651Y143326D01*
X434941Y142792D01*
X436310Y142520D01*
X437706D01*
X439075Y142792D01*
X440365Y143326D01*
X441525Y144102D01*
X442512Y145089D01*
X443288Y146249D01*
X443822Y147539D01*
X444095Y148908D01*
Y150304D01*
X443822Y151673D01*
X443288Y152963D01*
X442512Y154124D01*
X441525Y155111D01*
X440365Y155886D01*
X439440Y156269D01*
X439075Y156595D01*
X438976Y204724D01*
X447835Y213583D01*
X464567D01*
Y201772D01*
D02*
G37*
G36*
X500492Y187303D02*
X500492D01*
Y159547D01*
X497736Y156791D01*
X486417D01*
X483366Y153740D01*
Y140256D01*
X480512Y137402D01*
X470965D01*
X464567Y143799D01*
Y186516D01*
X469291Y191240D01*
X496555D01*
X500492Y187303D01*
D02*
G37*
G36*
X446850Y101575D02*
X403150D01*
Y113637D01*
X407762D01*
X407950Y113493D01*
X408572Y113235D01*
X409240Y113147D01*
X425382D01*
X426050Y113235D01*
X426673Y113493D01*
X427207Y113903D01*
X427617Y114438D01*
X427834Y114961D01*
X446850D01*
Y101575D01*
D02*
G37*
G36*
X506693Y110630D02*
X509055Y108268D01*
Y105512D01*
X507874Y104331D01*
X498032D01*
X496850Y105512D01*
X496850D01*
Y108268D01*
X499213Y110630D01*
X499213D01*
Y120866D01*
X506693D01*
Y110630D01*
D02*
G37*
%LPC*%
G36*
X480921Y210842D02*
X475016D01*
Y207693D01*
X480921D01*
Y210842D01*
D02*
G37*
G36*
X473016D02*
X467110D01*
Y207693D01*
X473016D01*
Y210842D01*
D02*
G37*
G36*
X480921Y205693D02*
X475016D01*
Y202543D01*
X480921D01*
Y205693D01*
D02*
G37*
G36*
X473016D02*
X467110D01*
Y202543D01*
X473016D01*
Y205693D01*
D02*
G37*
G36*
X463598Y210842D02*
X457693D01*
Y207693D01*
X463598D01*
Y210842D01*
D02*
G37*
G36*
X455693D02*
X449787D01*
Y207693D01*
X455693D01*
Y210842D01*
D02*
G37*
G36*
X463598Y205693D02*
X457693D01*
Y202543D01*
X463598D01*
Y205693D01*
D02*
G37*
G36*
X455693D02*
X449787D01*
Y202543D01*
X455693D01*
Y205693D01*
D02*
G37*
G36*
X451559Y189386D02*
X446441D01*
Y173244D01*
X451559D01*
Y189386D01*
D02*
G37*
G36*
Y171244D02*
X446441D01*
Y155102D01*
X451559D01*
Y171244D01*
D02*
G37*
G36*
X444798Y131449D02*
X439876D01*
Y126921D01*
X444798D01*
Y131449D01*
D02*
G37*
G36*
X437876D02*
X432955D01*
Y126921D01*
X437876D01*
Y131449D01*
D02*
G37*
G36*
X456150Y126177D02*
X454492D01*
Y124965D01*
X457690D01*
X457648Y125176D01*
X457296Y125702D01*
X456770Y126053D01*
X456150Y126177D01*
D02*
G37*
G36*
X452492D02*
X450835D01*
X450214Y126053D01*
X449688Y125702D01*
X449336Y125176D01*
X449294Y124965D01*
X452492D01*
Y126177D01*
D02*
G37*
G36*
X457690Y122965D02*
X454492D01*
Y121752D01*
X456150D01*
X456770Y121876D01*
X457296Y122227D01*
X457648Y122753D01*
X457690Y122965D01*
D02*
G37*
G36*
X452492D02*
X449294D01*
X449336Y122753D01*
X449688Y122227D01*
X450214Y121876D01*
X450835Y121752D01*
X452492D01*
Y122965D01*
D02*
G37*
G36*
X444798Y124921D02*
X439876D01*
Y120394D01*
X444798D01*
Y124921D01*
D02*
G37*
G36*
X437876D02*
X432955D01*
Y120394D01*
X437876D01*
Y124921D01*
D02*
G37*
G36*
X444898Y113339D02*
X439976D01*
Y108811D01*
X444898D01*
Y113339D01*
D02*
G37*
G36*
X437976D02*
X433055D01*
Y108811D01*
X437976D01*
Y113339D01*
D02*
G37*
G36*
X425382Y112067D02*
X418311D01*
Y108500D01*
X428177D01*
Y109272D01*
X428082Y109995D01*
X427803Y110669D01*
X427359Y111248D01*
X426780Y111693D01*
X426105Y111972D01*
X425382Y112067D01*
D02*
G37*
G36*
X416311D02*
X409240D01*
X408517Y111972D01*
X407842Y111693D01*
X407263Y111248D01*
X406819Y110669D01*
X406540Y109995D01*
X406445Y109272D01*
Y108500D01*
X416311D01*
Y112067D01*
D02*
G37*
G36*
X428177Y106500D02*
X418311D01*
Y102933D01*
X425382D01*
X426105Y103028D01*
X426780Y103307D01*
X427359Y103752D01*
X427803Y104331D01*
X428082Y105005D01*
X428177Y105728D01*
Y106500D01*
D02*
G37*
G36*
X416311D02*
X406445D01*
Y105728D01*
X406540Y105005D01*
X406819Y104331D01*
X407263Y103752D01*
X407842Y103307D01*
X408517Y103028D01*
X409240Y102933D01*
X416311D01*
Y106500D01*
D02*
G37*
G36*
X444898Y106811D02*
X439976D01*
Y102284D01*
X444898D01*
Y106811D01*
D02*
G37*
G36*
X437976D02*
X433055D01*
Y102284D01*
X437976D01*
Y106811D01*
D02*
G37*
%LPD*%
D11*
X492323Y117323D02*
Y133858D01*
X460216Y104745D02*
X479745D01*
X492323Y117323D01*
X459488Y105472D02*
X460216Y104745D01*
X459488Y105472D02*
Y111221D01*
X474752Y116484D02*
Y123965D01*
X469488Y111221D02*
X474752Y116484D01*
D14*
X385039Y229134D02*
Y237795D01*
Y229134D02*
X389764Y224410D01*
X400748D01*
X413465Y211693D01*
X375039Y231260D02*
Y237795D01*
Y231260D02*
X385906Y220394D01*
Y211693D02*
Y220394D01*
X358347Y211693D02*
X365039Y218386D01*
Y237795D01*
X482776Y125000D02*
X483268D01*
Y125984D01*
Y121063D02*
Y125000D01*
X491142Y138779D02*
Y146160D01*
X491242Y146260D01*
X456693Y147638D02*
X459646D01*
X453492Y144437D02*
X456693Y147638D01*
X453492Y138965D02*
Y144437D01*
X401575Y187008D02*
X401837D01*
X402329Y187500D01*
X417311D01*
X401575Y173228D02*
X405847Y177500D01*
X417311D01*
X401575Y171260D02*
Y173228D01*
X405689Y167500D02*
X417311D01*
X401575Y157480D02*
Y163386D01*
X405689Y167500D01*
X483268Y125984D02*
X483465Y125787D01*
X479303Y128965D02*
X481307Y126961D01*
X474752Y128965D02*
X479303D01*
D15*
X438976Y107811D02*
D03*
X438876Y125921D02*
D03*
D16*
X417311Y107500D02*
D03*
Y117500D02*
D03*
Y127500D02*
D03*
Y137500D02*
D03*
Y147500D02*
D03*
Y157500D02*
D03*
Y167500D02*
D03*
Y177500D02*
D03*
Y187500D02*
D03*
X346445D02*
D03*
Y177500D02*
D03*
Y167500D02*
D03*
Y157500D02*
D03*
Y147500D02*
D03*
Y137500D02*
D03*
Y127500D02*
D03*
Y117500D02*
D03*
Y107500D02*
D03*
D17*
X483268Y125984D02*
D03*
Y133858D02*
D03*
D18*
X491242Y146260D02*
D03*
X491142Y164370D02*
D03*
D19*
X453492Y138965D02*
D03*
Y133965D02*
D03*
Y128965D02*
D03*
Y123965D02*
D03*
X474752D02*
D03*
Y128965D02*
D03*
Y133965D02*
D03*
Y138965D02*
D03*
D20*
X464122Y131465D02*
D03*
D21*
X474606Y172244D02*
D03*
X452559D02*
D03*
D22*
X459646Y147638D02*
D03*
X467520D02*
D03*
D23*
X474016Y206693D02*
D03*
X456693Y206693D02*
D03*
D24*
X502953Y114370D02*
D03*
X502953Y131693D02*
D03*
D42*
X417203Y117608D02*
X417311Y117500D01*
X398425Y117717D02*
X398534Y117608D01*
X417203D01*
D43*
X502953Y145669D02*
X508858Y151574D01*
Y210787D01*
X502953Y133858D02*
Y145669D01*
X481457Y238189D02*
X508858Y210787D01*
D44*
X502953Y131693D02*
Y133858D01*
X501378D02*
X501870Y133366D01*
X492323Y133858D02*
X501378D01*
X483268D02*
X492323D01*
D45*
X474752Y133965D02*
X481685D01*
D46*
X437008Y149606D02*
D03*
X507874Y236221D02*
D03*
X342520D02*
D03*
D47*
X413465Y211693D02*
D03*
X358347D02*
D03*
X385906D02*
D03*
D48*
X403465D02*
D03*
X408465Y201693D02*
D03*
X353346D02*
D03*
X348346Y211693D02*
D03*
X380906Y201693D02*
D03*
X375905Y211693D02*
D03*
D49*
X471457Y238189D02*
D03*
X481457D02*
D03*
X469488Y111221D02*
D03*
X395039Y237795D02*
D03*
X385039D02*
D03*
X375039D02*
D03*
X365039D02*
D03*
X398425Y117717D02*
D03*
D50*
X459488Y111221D02*
D03*
D51*
X401575Y157480D02*
D03*
X485236Y202756D02*
D03*
Y210630D02*
D03*
Y206693D02*
D03*
X401575Y187008D02*
D03*
Y171260D02*
D03*
X507087Y106299D02*
D03*
X502756D02*
D03*
X498819D02*
D03*
D52*
X483268Y121063D02*
D03*
X491142Y138779D02*
D03*
M02*
